{"glyphs":{"0":{"ha":833,"x_min":92,"x_max":781,"o":"m 354 -14 q 202 22 263 -14 q 117 126 142 58 q 106 285 92 193 l 176 729 q 238 889 192 822 q 356 992 283 956 q 519 1028 428 1028 q 670 992 610 1028 q 756 889 731 956 q 765 729 781 822 l 694 285 q 634 126 681 193 q 516 22 588 58 q 354 -14 444 -14 m 368 71 q 522 128 460 71 q 600 285 585 186 l 671 729 q 643 885 688 828 q 506 943 599 943 q 349 885 413 943 q 271 729 286 828 l 200 285 q 229 129 183 188 q 368 71 275 71 m 439 435 q 385 456 406 435 q 364 511 364 478 q 385 566 364 546 q 439 586 406 586 q 493 566 472 586 q 514 511 514 546 q 493 456 514 478 q 439 435 472 435 z "},"1":{"ha":833,"x_min":72,"x_max":693,"o":"m 72 0 l 85 83 l 368 83 l 503 935 l 194 731 l 211 833 l 485 1014 l 607 1014 l 460 83 l 693 83 l 681 0 l 72 0 z "},"2":{"ha":833,"x_min":69,"x_max":781,"o":"m 69 0 l 86 97 l 454 424 q 609 591 556 514 q 675 740 663 668 q 644 892 690 836 q 503 947 597 947 q 338 891 404 947 q 257 738 272 835 l 165 738 q 230 892 182 826 q 351 992 278 957 q 515 1028 425 1028 q 667 993 606 1028 q 754 895 728 958 q 767 743 781 832 q 690 558 753 651 q 506 361 626 465 l 185 83 l 686 83 l 672 0 l 69 0 z "},"3":{"ha":833,"x_min":82,"x_max":769,"o":"m 339 -14 q 192 22 251 -14 q 107 120 132 57 q 96 269 82 183 l 188 269 q 217 122 172 175 q 353 68 261 68 q 507 123 446 68 q 582 269 568 178 l 596 361 q 567 506 611 454 q 431 558 524 558 l 346 558 l 360 646 l 660 931 l 238 931 l 251 1014 l 769 1014 l 754 922 l 440 625 l 442 640 q 642 565 575 640 q 688 361 708 489 l 674 269 q 614 120 660 183 q 497 22 568 57 q 339 -14 426 -14 z "},"4":{"ha":833,"x_min":103,"x_max":733,"o":"m 529 0 l 565 231 l 103 231 l 129 392 l 631 1013 l 733 1013 l 218 369 l 208 314 l 579 314 l 622 583 l 714 583 l 621 0 l 529 0 z "},"5":{"ha":833,"x_min":99,"x_max":772,"o":"m 351 -14 q 164 51 229 -14 q 106 228 99 115 l 197 228 q 235 110 192 153 q 367 68 279 68 q 519 124 460 68 q 594 281 578 181 l 610 375 q 584 530 625 475 q 449 585 543 585 q 333 550 383 585 q 254 453 282 515 l 163 453 l 258 1014 l 772 1014 l 758 931 l 333 931 l 267 542 l 300 542 l 257 500 q 333 622 269 576 q 493 667 397 667 q 669 591 615 667 q 701 375 724 515 l 686 281 q 576 66 665 146 q 351 -14 486 -14 z "},"6":{"ha":833,"x_min":82,"x_max":728,"o":"m 353 -14 q 198 26 261 -14 q 108 140 135 67 q 97 308 82 213 q 139 446 108 378 q 219 581 169 514 l 549 1014 l 651 1014 l 289 543 l 294 539 q 374 594 322 569 q 490 618 426 618 q 628 580 574 618 q 705 472 682 542 q 713 308 728 403 q 647 140 697 213 q 522 27 597 67 q 353 -14 446 -12 m 367 68 q 534 134 464 68 q 621 308 604 200 q 588 477 638 413 q 442 542 539 542 q 275 478 344 542 q 189 308 206 414 q 219 134 169 200 q 367 68 268 68 z "},"7":{"ha":833,"x_min":171,"x_max":835,"o":"m 215 0 l 725 926 l 297 926 l 267 739 l 171 739 l 215 1014 l 835 1014 l 819 919 l 321 0 l 215 0 z "},"8":{"ha":833,"x_min":79,"x_max":774,"o":"m 353 -14 q 147 57 215 -14 q 97 249 79 128 q 173 404 113 339 q 354 522 233 469 l 494 586 q 619 671 576 622 q 671 779 661 719 q 638 900 683 854 q 506 946 592 946 q 365 901 421 946 q 296 778 308 856 q 313 669 286 718 q 403 588 339 621 l 521 524 q 667 403 626 468 q 692 249 707 339 q 633 109 679 168 q 516 18 588 50 q 353 -14 444 -14 m 367 68 q 525 117 463 68 q 601 247 588 165 q 581 369 611 315 q 482 461 551 424 l 364 524 q 231 637 269 574 q 206 782 193 700 q 261 911 218 856 q 371 997 304 967 q 518 1028 438 1028 q 659 997 600 1028 q 746 910 718 965 q 763 782 774 854 q 688 638 749 701 q 513 522 626 575 l 374 461 q 247 371 293 425 q 189 250 200 317 q 224 117 175 167 q 367 68 272 68 z "},"9":{"ha":833,"x_min":144,"x_max":790,"o":"m 221 0 l 585 471 l 581 475 q 499 420 553 444 q 382 396 446 396 q 245 434 300 396 q 167 542 190 472 q 160 706 144 613 q 224 875 175 803 q 350 988 274 947 q 518 1028 426 1028 q 674 988 611 1028 q 763 875 736 947 q 775 706 790 803 q 734 568 765 636 q 653 433 703 500 l 324 0 l 221 0 m 431 472 q 597 537 528 472 q 685 707 667 601 q 654 880 703 814 q 506 946 606 946 q 339 880 408 946 q 251 706 269 814 q 284 537 235 601 q 431 472 333 472 z "},"A":{"ha":833,"x_min":24,"x_max":688,"o":"m 24 0 l 457 1014 l 576 1014 l 688 0 l 597 0 l 568 283 l 238 283 l 119 0 l 24 0 m 269 363 l 561 363 l 522 733 q 511 868 514 814 q 507 939 508 922 q 481 868 501 922 q 426 733 461 814 l 269 363 z "},"Á":{"ha":833,"x_min":24,"x_max":754,"o":"m 24 0 l 457 1014 l 576 1014 l 688 0 l 597 0 l 568 283 l 238 283 l 119 0 l 24 0 m 269 363 l 561 363 l 522 733 q 511 868 514 814 q 507 939 508 922 q 481 868 501 922 q 426 733 461 814 l 269 363 m 468 1125 l 646 1319 l 754 1319 l 569 1125 l 468 1125 z "},"Ă":{"ha":833,"x_min":24,"x_max":774,"o":"m 24 0 l 457 1014 l 576 1014 l 688 0 l 597 0 l 568 283 l 238 283 l 119 0 l 24 0 m 269 363 l 561 363 l 522 733 q 511 868 514 814 q 507 939 508 922 q 481 868 501 922 q 426 733 461 814 l 269 363 m 533 1121 q 389 1175 438 1121 q 354 1319 340 1229 l 431 1319 q 451 1222 421 1258 q 542 1186 481 1186 q 645 1222 603 1186 q 696 1319 688 1258 l 774 1319 q 694 1175 760 1229 q 533 1121 629 1121 z "},"Ắ":{"ha":833,"x_min":24,"x_max":771,"o":"m 24 0 l 457 1014 l 576 1014 l 688 0 l 597 0 l 568 283 l 238 283 l 119 0 l 24 0 m 269 363 l 561 363 l 522 733 q 511 868 514 814 q 507 939 508 922 q 481 868 501 922 q 426 733 461 814 l 269 363 m 482 1246 l 650 1417 l 757 1417 l 578 1246 l 482 1246 m 497 1083 q 369 1131 414 1083 q 338 1260 325 1179 l 414 1260 q 433 1180 407 1210 q 507 1150 458 1150 l 568 1150 q 653 1180 618 1150 q 694 1260 688 1210 l 771 1260 q 701 1131 758 1179 q 558 1083 643 1083 l 497 1083 z "},"Ặ":{"ha":833,"x_min":24,"x_max":774,"o":"m 533 1121 q 389 1175 438 1121 q 354 1319 340 1229 l 431 1319 q 451 1222 421 1258 q 542 1186 481 1186 q 645 1222 603 1186 q 696 1319 688 1258 l 774 1319 q 694 1175 760 1229 q 533 1121 629 1121 m 24 0 l 457 1014 l 576 1014 l 688 0 l 597 0 l 568 283 l 238 283 l 119 0 l 24 0 m 269 363 l 561 363 l 522 733 q 511 868 514 814 q 507 939 508 922 q 481 868 501 922 q 426 733 461 814 l 269 363 m 324 -289 q 263 -267 283 -289 q 249 -208 243 -246 q 282 -149 254 -171 q 350 -126 310 -126 q 410 -149 390 -126 q 424 -208 431 -171 q 391 -267 418 -246 q 324 -289 364 -289 z "},"Ằ":{"ha":833,"x_min":24,"x_max":771,"o":"m 24 0 l 457 1014 l 576 1014 l 688 0 l 597 0 l 568 283 l 238 283 l 119 0 l 24 0 m 269 363 l 561 363 l 522 733 q 511 868 514 814 q 507 939 508 922 q 481 868 501 922 q 426 733 461 814 l 269 363 m 497 1083 q 369 1131 414 1083 q 338 1260 325 1179 l 414 1260 q 433 1180 407 1210 q 507 1150 458 1150 l 568 1150 q 653 1180 618 1150 q 694 1260 688 1210 l 771 1260 q 701 1131 758 1179 q 558 1083 643 1083 l 497 1083 m 538 1246 l 424 1417 l 521 1417 l 624 1246 l 538 1246 z "},"Ẳ":{"ha":833,"x_min":24,"x_max":771,"o":"m 24 0 l 457 1014 l 576 1014 l 688 0 l 597 0 l 568 283 l 238 283 l 119 0 l 24 0 m 269 363 l 561 363 l 522 733 q 511 868 514 814 q 507 939 508 922 q 481 868 501 922 q 426 733 461 814 l 269 363 m 494 1222 l 571 1297 q 589 1319 582 1310 q 597 1333 596 1328 q 574 1354 601 1354 l 472 1354 l 483 1417 l 596 1417 q 658 1399 638 1417 q 672 1349 678 1381 q 659 1310 669 1331 q 631 1274 649 1290 l 581 1222 l 494 1222 m 497 1083 q 369 1131 414 1083 q 338 1260 325 1179 l 414 1260 q 433 1180 407 1210 q 507 1150 458 1150 l 568 1150 q 653 1180 618 1150 q 694 1260 688 1210 l 771 1260 q 701 1131 758 1179 q 558 1083 643 1083 l 497 1083 z "},"Ẵ":{"ha":833,"x_min":24,"x_max":794,"o":"m 24 0 l 457 1014 l 576 1014 l 688 0 l 597 0 l 568 283 l 238 283 l 119 0 l 24 0 m 269 363 l 561 363 l 522 733 q 511 868 514 814 q 507 939 508 922 q 481 868 501 922 q 426 733 461 814 l 269 363 m 497 1083 q 369 1128 414 1083 q 338 1250 325 1172 l 414 1250 q 432 1176 406 1203 q 507 1150 458 1150 l 568 1150 q 652 1176 618 1150 q 694 1250 686 1203 l 771 1250 q 701 1128 758 1172 q 558 1083 643 1083 l 497 1083 m 664 1278 q 601 1290 625 1278 q 558 1317 576 1301 q 521 1344 540 1332 q 474 1356 501 1356 q 415 1308 425 1356 l 413 1292 l 343 1292 l 346 1308 q 390 1388 354 1358 q 481 1417 426 1417 q 544 1405 519 1417 q 586 1378 568 1393 q 623 1351 604 1363 q 669 1339 642 1339 q 705 1352 690 1339 q 722 1386 719 1365 l 725 1403 l 794 1403 l 792 1386 q 751 1308 786 1338 q 664 1278 715 1278 z "},"Ǎ":{"ha":833,"x_min":24,"x_max":789,"o":"m 24 0 l 457 1014 l 576 1014 l 688 0 l 597 0 l 568 283 l 238 283 l 119 0 l 24 0 m 269 363 l 561 363 l 522 733 q 511 868 514 814 q 507 939 508 922 q 481 868 501 922 q 426 733 461 814 l 269 363 m 486 1125 l 339 1319 l 433 1319 l 542 1185 l 690 1319 l 789 1319 l 582 1125 l 486 1125 z "},"Â":{"ha":833,"x_min":24,"x_max":758,"o":"m 24 0 l 457 1014 l 576 1014 l 688 0 l 597 0 l 568 283 l 238 283 l 119 0 l 24 0 m 269 363 l 561 363 l 522 733 q 511 868 514 814 q 507 939 508 922 q 481 868 501 922 q 426 733 461 814 l 269 363 m 308 1125 l 515 1319 l 611 1319 l 758 1125 l 665 1125 l 558 1260 l 410 1125 l 308 1125 z "},"Ấ":{"ha":833,"x_min":24,"x_max":982,"o":"m 699 1246 l 872 1417 l 982 1417 l 799 1246 l 699 1246 m 303 1083 l 510 1278 l 607 1278 l 753 1083 l 660 1083 l 551 1218 l 404 1083 l 303 1083 m 24 0 l 457 1014 l 576 1014 l 688 0 l 597 0 l 568 283 l 238 283 l 119 0 l 24 0 m 269 363 l 561 363 l 522 733 q 511 868 514 814 q 507 939 508 922 q 481 868 501 922 q 426 733 461 814 l 269 363 z "},"Ậ":{"ha":833,"x_min":24,"x_max":758,"o":"m 308 1125 l 515 1319 l 611 1319 l 758 1125 l 665 1125 l 558 1260 l 410 1125 l 308 1125 m 24 0 l 457 1014 l 576 1014 l 688 0 l 597 0 l 568 283 l 238 283 l 119 0 l 24 0 m 269 363 l 561 363 l 522 733 q 511 868 514 814 q 507 939 508 922 q 481 868 501 922 q 426 733 461 814 l 269 363 m 324 -289 q 263 -267 283 -289 q 249 -208 243 -246 q 282 -149 254 -171 q 350 -126 310 -126 q 410 -149 390 -126 q 424 -208 431 -171 q 391 -267 418 -246 q 324 -289 364 -289 z "},"Ầ":{"ha":833,"x_min":24,"x_max":847,"o":"m 24 0 l 457 1014 l 576 1014 l 688 0 l 597 0 l 568 283 l 238 283 l 119 0 l 24 0 m 269 363 l 561 363 l 522 733 q 511 868 514 814 q 507 939 508 922 q 481 868 501 922 q 426 733 461 814 l 269 363 m 757 1246 l 618 1417 l 719 1417 l 847 1246 l 757 1246 m 303 1083 l 510 1278 l 607 1278 l 753 1083 l 660 1083 l 551 1218 l 404 1083 l 303 1083 z "},"Ẩ":{"ha":833,"x_min":24,"x_max":911,"o":"m 724 1222 l 801 1293 q 819 1313 813 1304 q 828 1331 826 1322 q 801 1356 832 1356 l 706 1356 l 715 1417 l 822 1417 q 889 1397 867 1417 q 906 1342 911 1376 q 892 1304 903 1322 q 864 1271 881 1286 l 813 1222 l 724 1222 m 303 1083 l 510 1278 l 607 1278 l 753 1083 l 660 1083 l 551 1218 l 404 1083 l 303 1083 m 24 0 l 457 1014 l 576 1014 l 688 0 l 597 0 l 568 283 l 238 283 l 119 0 l 24 0 m 269 363 l 561 363 l 522 733 q 511 868 514 814 q 507 939 508 922 q 481 868 501 922 q 426 733 461 814 l 269 363 z "},"Ẫ":{"ha":833,"x_min":24,"x_max":794,"o":"m 24 0 l 457 1014 l 576 1014 l 688 0 l 597 0 l 568 283 l 238 283 l 119 0 l 24 0 m 269 363 l 561 363 l 522 733 q 511 868 514 814 q 507 939 508 922 q 481 868 501 922 q 426 733 461 814 l 269 363 m 664 1278 q 601 1290 625 1278 q 558 1317 576 1301 q 521 1344 540 1332 q 474 1356 501 1356 q 415 1308 425 1356 l 413 1292 l 343 1292 l 346 1308 q 390 1388 354 1358 q 481 1417 426 1417 q 544 1405 519 1417 q 586 1378 568 1393 q 623 1351 604 1363 q 669 1339 642 1339 q 705 1352 690 1339 q 722 1386 719 1365 l 725 1403 l 794 1403 l 792 1386 q 751 1308 786 1338 q 664 1278 715 1278 m 303 1083 l 493 1246 l 614 1246 l 753 1083 l 660 1083 l 549 1200 l 404 1083 l 303 1083 z "},"Ä":{"ha":833,"x_min":24,"x_max":788,"o":"m 24 0 l 457 1014 l 576 1014 l 688 0 l 597 0 l 568 283 l 238 283 l 119 0 l 24 0 m 269 363 l 561 363 l 522 733 q 511 868 514 814 q 507 939 508 922 q 481 868 501 922 q 426 733 461 814 l 269 363 m 689 1142 q 635 1163 653 1142 q 622 1222 617 1185 q 654 1282 629 1260 q 715 1304 679 1304 q 768 1282 750 1304 q 779 1222 786 1260 q 749 1163 774 1185 q 689 1142 725 1142 m 388 1142 q 333 1163 351 1142 q 321 1222 315 1185 q 353 1282 328 1260 q 413 1304 378 1304 q 467 1282 449 1304 q 478 1222 485 1260 q 447 1163 472 1185 q 388 1142 422 1142 z "},"Ạ":{"ha":833,"x_min":24,"x_max":688,"o":"m 24 0 l 457 1014 l 576 1014 l 688 0 l 597 0 l 568 283 l 238 283 l 119 0 l 24 0 m 269 363 l 561 363 l 522 733 q 511 868 514 814 q 507 939 508 922 q 481 868 501 922 q 426 733 461 814 l 269 363 m 324 -289 q 263 -267 283 -289 q 249 -208 243 -246 q 282 -149 254 -171 q 350 -126 310 -126 q 410 -149 390 -126 q 424 -208 431 -171 q 391 -267 418 -246 q 324 -289 364 -289 z "},"À":{"ha":833,"x_min":24,"x_max":688,"o":"m 24 0 l 457 1014 l 576 1014 l 688 0 l 597 0 l 568 283 l 238 283 l 119 0 l 24 0 m 269 363 l 561 363 l 522 733 q 511 868 514 814 q 507 939 508 922 q 481 868 501 922 q 426 733 461 814 l 269 363 m 503 1125 l 376 1319 l 478 1319 l 596 1125 l 503 1125 z "},"Ả":{"ha":833,"x_min":24,"x_max":688,"o":"m 24 0 l 457 1014 l 576 1014 l 688 0 l 597 0 l 568 283 l 238 283 l 119 0 l 24 0 m 269 363 l 561 363 l 522 733 q 511 868 514 814 q 507 939 508 922 q 481 868 501 922 q 426 733 461 814 l 269 363 m 472 1132 l 563 1231 q 583 1257 574 1244 q 593 1278 592 1269 q 553 1313 599 1313 l 436 1313 l 447 1378 l 578 1378 q 656 1353 629 1378 q 675 1288 682 1329 q 663 1250 672 1269 q 639 1214 653 1231 l 567 1132 l 472 1132 z "},"Ā":{"ha":833,"x_min":24,"x_max":760,"o":"m 24 0 l 457 1014 l 576 1014 l 688 0 l 597 0 l 568 283 l 238 283 l 119 0 l 24 0 m 269 363 l 561 363 l 522 733 q 511 868 514 814 q 507 939 508 922 q 481 868 501 922 q 426 733 461 814 l 269 363 m 336 1178 l 349 1256 l 760 1256 l 747 1178 l 336 1178 z "},"Ą":{"ha":833,"x_min":24,"x_max":708,"o":"m 593 -275 q 494 -242 528 -275 q 469 -157 461 -210 q 513 -72 476 -115 q 613 14 549 -28 l 685 14 l 667 0 q 591 -73 618 -37 q 560 -137 564 -108 q 571 -188 554 -169 q 621 -207 588 -207 l 708 -207 l 697 -275 l 593 -275 m 24 0 l 457 1014 l 576 1014 l 688 0 l 597 0 l 568 283 l 238 283 l 119 0 l 24 0 m 269 363 l 561 363 l 522 733 q 511 868 514 814 q 507 939 508 922 q 481 868 501 922 q 426 733 461 814 l 269 363 z "},"Å":{"ha":833,"x_min":24,"x_max":714,"o":"m 24 0 l 457 1014 l 576 1014 l 688 0 l 597 0 l 568 283 l 238 283 l 119 0 l 24 0 m 269 363 l 561 363 l 522 733 q 511 868 514 814 q 507 939 508 922 q 481 868 501 922 q 426 733 461 814 l 269 363 m 526 1075 q 422 1116 458 1075 q 394 1222 385 1157 q 454 1328 406 1288 q 572 1369 503 1369 q 678 1328 642 1369 q 703 1222 714 1288 q 644 1116 693 1157 q 526 1075 596 1075 m 535 1135 q 603 1158 575 1135 q 636 1222 631 1182 q 623 1287 643 1263 q 564 1311 603 1311 q 496 1287 524 1311 q 461 1222 468 1263 q 476 1158 456 1182 q 535 1135 496 1135 z "},"Ã":{"ha":833,"x_min":24,"x_max":785,"o":"m 24 0 l 457 1014 l 576 1014 l 688 0 l 597 0 l 568 283 l 238 283 l 119 0 l 24 0 m 269 363 l 561 363 l 522 733 q 511 868 514 814 q 507 939 508 922 q 481 868 501 922 q 426 733 461 814 l 269 363 m 636 1132 q 572 1149 596 1132 q 532 1190 549 1167 q 499 1230 515 1213 q 458 1247 482 1247 q 413 1231 432 1247 q 390 1185 394 1214 l 383 1139 l 314 1139 l 321 1185 q 370 1278 331 1244 q 467 1313 410 1313 q 531 1295 507 1313 q 571 1255 554 1278 q 603 1215 588 1232 q 644 1197 619 1197 q 686 1214 669 1197 q 707 1260 703 1231 l 715 1306 l 785 1306 l 776 1260 q 729 1166 767 1200 q 636 1132 692 1132 z "},"Æ":{"ha":833,"x_min":-17,"x_max":890,"o":"m -17 0 l 382 1014 l 890 1014 l 876 931 l 601 931 l 544 568 l 776 568 l 764 485 l 532 485 l 468 83 l 743 83 l 729 0 l 365 0 l 411 292 l 192 292 l 76 0 l -17 0 m 222 371 l 424 371 l 513 931 l 439 931 l 222 371 z "},"Ǽ":{"ha":833,"x_min":-17,"x_max":890,"o":"m -17 0 l 382 1014 l 890 1014 l 876 931 l 601 931 l 544 568 l 776 568 l 764 485 l 532 485 l 468 83 l 743 83 l 729 0 l 365 0 l 411 292 l 192 292 l 76 0 l -17 0 m 222 371 l 424 371 l 513 931 l 439 931 l 222 371 m 475 1125 l 653 1319 l 761 1319 l 576 1125 l 475 1125 z "},"B":{"ha":833,"x_min":82,"x_max":778,"o":"m 82 0 l 243 1014 l 515 1014 q 712 944 646 1014 q 758 753 778 874 q 711 629 747 682 q 619 547 675 576 q 493 518 564 518 l 496 535 q 624 505 572 536 q 699 416 676 474 q 708 279 721 358 q 648 131 694 194 q 529 34 601 68 q 365 0 457 0 l 82 0 m 186 83 l 372 83 q 536 136 471 83 q 617 281 601 189 q 583 428 632 372 q 436 483 535 483 l 250 483 l 186 83 m 263 564 l 443 564 q 593 613 533 564 q 667 747 653 663 q 636 882 681 833 q 501 931 592 931 l 319 931 l 263 564 z "},"C":{"ha":833,"x_min":106,"x_max":782,"o":"m 360 -14 q 213 21 272 -14 q 130 119 154 56 q 118 269 106 183 l 193 744 q 253 896 208 832 q 367 994 297 960 q 525 1028 438 1028 q 673 992 614 1028 q 757 890 732 956 q 768 736 782 825 l 676 736 q 648 890 692 835 q 513 946 604 946 q 360 892 421 946 q 285 744 300 839 l 210 269 q 239 122 194 175 q 374 68 283 68 q 528 124 467 68 q 604 278 589 181 l 696 278 q 635 124 682 189 q 519 22 589 58 q 360 -14 449 -14 z "},"Ć":{"ha":833,"x_min":106,"x_max":782,"o":"m 360 -14 q 213 21 272 -14 q 130 119 154 56 q 118 269 106 183 l 193 744 q 253 896 208 832 q 367 994 297 960 q 525 1028 438 1028 q 673 992 614 1028 q 757 890 732 956 q 768 736 782 825 l 676 736 q 648 890 692 835 q 513 946 604 946 q 360 892 421 946 q 285 744 300 839 l 210 269 q 239 122 194 175 q 374 68 283 68 q 528 124 467 68 q 604 278 589 181 l 696 278 q 635 124 682 189 q 519 22 589 58 q 360 -14 449 -14 m 475 1125 l 653 1319 l 761 1319 l 576 1125 l 475 1125 z "},"Č":{"ha":833,"x_min":106,"x_max":796,"o":"m 360 -14 q 213 21 272 -14 q 130 119 154 56 q 118 269 106 183 l 193 744 q 253 896 208 832 q 367 994 297 960 q 525 1028 438 1028 q 673 992 614 1028 q 757 890 732 956 q 768 736 782 825 l 676 736 q 648 890 692 835 q 513 946 604 946 q 360 892 421 946 q 285 744 300 839 l 210 269 q 239 122 194 175 q 374 68 283 68 q 528 124 467 68 q 604 278 589 181 l 696 278 q 635 124 682 189 q 519 22 589 58 q 360 -14 449 -14 m 493 1125 l 346 1319 l 440 1319 l 549 1185 l 697 1319 l 796 1319 l 589 1125 l 493 1125 z "},"Ç":{"ha":833,"x_min":106,"x_max":782,"o":"m 213 -275 l 222 -215 l 328 -215 q 382 -198 360 -215 q 407 -161 404 -181 q 374 -111 413 -131 q 263 -92 335 -92 l 331 36 l 397 36 l 353 -47 q 422 -63 388 -50 q 478 -101 457 -76 q 493 -165 500 -126 q 440 -243 486 -211 q 326 -275 393 -275 l 213 -275 m 360 -14 q 213 21 272 -14 q 130 119 154 56 q 118 269 106 183 l 193 744 q 253 896 208 832 q 367 994 297 960 q 525 1028 438 1028 q 673 992 614 1028 q 757 890 732 956 q 768 736 782 825 l 676 736 q 648 890 692 835 q 513 946 604 946 q 360 892 421 946 q 285 744 300 839 l 210 269 q 239 122 194 175 q 374 68 283 68 q 528 124 467 68 q 604 278 589 181 l 696 278 q 635 124 682 189 q 519 22 589 58 q 360 -14 449 -14 z "},"Ĉ":{"ha":833,"x_min":106,"x_max":782,"o":"m 360 -14 q 213 21 272 -14 q 130 119 154 56 q 118 269 106 183 l 193 744 q 253 896 208 832 q 367 994 297 960 q 525 1028 438 1028 q 673 992 614 1028 q 757 890 732 956 q 768 736 782 825 l 676 736 q 648 890 692 835 q 513 946 604 946 q 360 892 421 946 q 285 744 300 839 l 210 269 q 239 122 194 175 q 374 68 283 68 q 528 124 467 68 q 604 278 589 181 l 696 278 q 635 124 682 189 q 519 22 589 58 q 360 -14 449 -14 m 315 1125 l 522 1319 l 618 1319 l 765 1125 l 672 1125 l 565 1260 l 417 1125 l 315 1125 z "},"Ċ":{"ha":833,"x_min":106,"x_max":782,"o":"m 360 -14 q 213 21 272 -14 q 130 119 154 56 q 118 269 106 183 l 193 744 q 253 896 208 832 q 367 994 297 960 q 525 1028 438 1028 q 673 992 614 1028 q 757 890 732 956 q 768 736 782 825 l 676 736 q 648 890 692 835 q 513 946 604 946 q 360 892 421 946 q 285 744 300 839 l 210 269 q 239 122 194 175 q 374 68 283 68 q 528 124 467 68 q 604 278 589 181 l 696 278 q 635 124 682 189 q 519 22 589 58 q 360 -14 449 -14 m 543 1140 q 483 1163 503 1140 q 468 1222 463 1185 q 502 1282 475 1260 q 569 1304 529 1304 q 630 1282 610 1304 q 643 1222 650 1260 q 610 1163 638 1185 q 543 1140 583 1140 z "},"D":{"ha":833,"x_min":82,"x_max":764,"o":"m 82 0 l 243 1014 l 481 1014 q 642 976 578 1014 q 735 869 707 938 q 749 708 764 801 l 685 306 q 620 145 671 214 q 493 38 569 76 q 319 0 417 0 l 82 0 m 186 83 l 333 83 q 506 143 436 83 q 593 306 576 203 l 657 708 q 621 870 672 810 q 467 931 569 931 l 321 931 l 186 83 z "},"Ð":{"ha":833,"x_min":14,"x_max":764,"o":"m 14 479 l 14 557 l 403 557 l 403 479 l 14 479 m 82 0 l 243 1014 l 481 1014 q 642 976 578 1014 q 735 869 707 938 q 749 708 764 801 l 685 306 q 620 145 671 214 q 493 38 569 76 q 319 0 417 0 l 82 0 m 186 83 l 333 83 q 506 143 436 83 q 593 306 576 203 l 657 708 q 621 870 672 810 q 467 931 569 931 l 321 931 l 186 83 z "},"Ď":{"ha":833,"x_min":82,"x_max":789,"o":"m 82 0 l 243 1014 l 481 1014 q 642 976 578 1014 q 735 869 707 938 q 749 708 764 801 l 685 306 q 620 145 671 214 q 493 38 569 76 q 319 0 417 0 l 82 0 m 186 83 l 333 83 q 506 143 436 83 q 593 306 576 203 l 657 708 q 621 870 672 810 q 467 931 569 931 l 321 931 l 186 83 m 486 1125 l 339 1319 l 433 1319 l 542 1185 l 690 1319 l 789 1319 l 582 1125 l 486 1125 z "},"Đ":{"ha":833,"x_min":14,"x_max":764,"o":"m 14 479 l 14 557 l 403 557 l 403 479 l 14 479 m 82 0 l 243 1014 l 481 1014 q 642 976 578 1014 q 735 869 707 938 q 749 708 764 801 l 685 306 q 620 145 671 214 q 493 38 569 76 q 319 0 417 0 l 82 0 m 186 83 l 333 83 q 506 143 436 83 q 593 306 576 203 l 657 708 q 621 870 672 810 q 467 931 569 931 l 321 931 l 186 83 z "},"E":{"ha":833,"x_min":94,"x_max":814,"o":"m 94 0 l 256 1014 l 814 1014 l 800 931 l 333 931 l 276 571 l 694 571 l 682 488 l 263 488 l 199 83 l 665 83 l 653 0 l 94 0 z "},"É":{"ha":833,"x_min":94,"x_max":814,"o":"m 94 0 l 256 1014 l 814 1014 l 800 931 l 333 931 l 276 571 l 694 571 l 682 488 l 263 488 l 199 83 l 665 83 l 653 0 l 94 0 m 496 1125 l 674 1319 l 782 1319 l 597 1125 l 496 1125 z "},"Ĕ":{"ha":833,"x_min":94,"x_max":814,"o":"m 94 0 l 256 1014 l 814 1014 l 800 931 l 333 931 l 276 571 l 694 571 l 682 488 l 263 488 l 199 83 l 665 83 l 653 0 l 94 0 m 561 1121 q 417 1175 465 1121 q 382 1319 368 1229 l 458 1319 q 478 1222 449 1258 q 569 1186 508 1186 q 673 1222 631 1186 q 724 1319 715 1258 l 801 1319 q 722 1175 788 1229 q 561 1121 657 1121 z "},"Ě":{"ha":833,"x_min":94,"x_max":817,"o":"m 94 0 l 256 1014 l 814 1014 l 800 931 l 333 931 l 276 571 l 694 571 l 682 488 l 263 488 l 199 83 l 665 83 l 653 0 l 94 0 m 514 1125 l 367 1319 l 461 1319 l 569 1185 l 718 1319 l 817 1319 l 610 1125 l 514 1125 z "},"Ê":{"ha":833,"x_min":94,"x_max":814,"o":"m 94 0 l 256 1014 l 814 1014 l 800 931 l 333 931 l 276 571 l 694 571 l 682 488 l 263 488 l 199 83 l 665 83 l 653 0 l 94 0 m 336 1125 l 543 1319 l 639 1319 l 786 1125 l 693 1125 l 586 1260 l 438 1125 l 336 1125 z "},"Ế":{"ha":833,"x_min":94,"x_max":982,"o":"m 94 0 l 256 1014 l 814 1014 l 800 931 l 333 931 l 276 571 l 694 571 l 682 488 l 263 488 l 199 83 l 665 83 l 653 0 l 94 0 m 699 1246 l 872 1417 l 982 1417 l 799 1246 l 699 1246 m 303 1083 l 510 1278 l 607 1278 l 753 1083 l 660 1083 l 551 1218 l 404 1083 l 303 1083 z "},"Ệ":{"ha":833,"x_min":94,"x_max":814,"o":"m 308 1125 l 515 1319 l 611 1319 l 758 1125 l 665 1125 l 558 1260 l 410 1125 l 308 1125 m 94 0 l 256 1014 l 814 1014 l 800 931 l 333 931 l 276 571 l 694 571 l 682 488 l 263 488 l 199 83 l 665 83 l 653 0 l 94 0 m 338 -289 q 277 -267 297 -289 q 263 -208 257 -246 q 296 -149 268 -171 q 364 -126 324 -126 q 424 -149 404 -126 q 438 -208 444 -171 q 405 -267 432 -246 q 338 -289 378 -289 z "},"Ề":{"ha":833,"x_min":94,"x_max":847,"o":"m 94 0 l 256 1014 l 814 1014 l 800 931 l 333 931 l 276 571 l 694 571 l 682 488 l 263 488 l 199 83 l 665 83 l 653 0 l 94 0 m 757 1246 l 618 1417 l 719 1417 l 847 1246 l 757 1246 m 303 1083 l 510 1278 l 607 1278 l 753 1083 l 660 1083 l 551 1218 l 404 1083 l 303 1083 z "},"Ể":{"ha":833,"x_min":94,"x_max":911,"o":"m 94 0 l 256 1014 l 814 1014 l 800 931 l 333 931 l 276 571 l 694 571 l 682 488 l 263 488 l 199 83 l 665 83 l 653 0 l 94 0 m 724 1222 l 801 1293 q 819 1313 813 1304 q 828 1331 826 1322 q 801 1356 832 1356 l 706 1356 l 715 1417 l 822 1417 q 889 1397 867 1417 q 906 1342 911 1376 q 892 1304 903 1322 q 864 1271 881 1286 l 813 1222 l 724 1222 m 303 1083 l 510 1278 l 607 1278 l 753 1083 l 660 1083 l 551 1218 l 404 1083 l 303 1083 z "},"Ễ":{"ha":833,"x_min":94,"x_max":814,"o":"m 94 0 l 256 1014 l 814 1014 l 800 931 l 333 931 l 276 571 l 694 571 l 682 488 l 263 488 l 199 83 l 665 83 l 653 0 l 94 0 m 664 1278 q 601 1290 625 1278 q 558 1317 576 1301 q 521 1344 540 1332 q 474 1356 501 1356 q 415 1308 425 1356 l 413 1292 l 343 1292 l 346 1308 q 390 1388 354 1358 q 481 1417 426 1417 q 544 1405 519 1417 q 586 1378 568 1393 q 623 1351 604 1363 q 669 1339 642 1339 q 705 1352 690 1339 q 722 1386 719 1365 l 725 1403 l 794 1403 l 792 1386 q 751 1308 786 1338 q 664 1278 715 1278 m 303 1083 l 493 1246 l 614 1246 l 753 1083 l 660 1083 l 549 1200 l 404 1083 l 303 1083 z "},"Ë":{"ha":833,"x_min":94,"x_max":815,"o":"m 94 0 l 256 1014 l 814 1014 l 800 931 l 333 931 l 276 571 l 694 571 l 682 488 l 263 488 l 199 83 l 665 83 l 653 0 l 94 0 m 717 1142 q 663 1163 681 1142 q 650 1222 644 1185 q 682 1282 657 1260 q 743 1304 707 1304 q 796 1282 778 1304 q 807 1222 814 1260 q 777 1163 801 1185 q 717 1142 753 1142 m 415 1142 q 361 1163 379 1142 q 349 1222 343 1185 q 381 1282 356 1260 q 440 1304 406 1304 q 494 1282 476 1304 q 506 1222 513 1260 q 475 1163 500 1185 q 415 1142 450 1142 z "},"Ė":{"ha":833,"x_min":94,"x_max":814,"o":"m 94 0 l 256 1014 l 814 1014 l 800 931 l 333 931 l 276 571 l 694 571 l 682 488 l 263 488 l 199 83 l 665 83 l 653 0 l 94 0 m 564 1140 q 503 1163 524 1140 q 489 1222 483 1185 q 523 1282 496 1260 q 590 1304 550 1304 q 651 1282 631 1304 q 664 1222 671 1260 q 631 1163 658 1185 q 564 1140 604 1140 z "},"Ẹ":{"ha":833,"x_min":94,"x_max":814,"o":"m 94 0 l 256 1014 l 814 1014 l 800 931 l 333 931 l 276 571 l 694 571 l 682 488 l 263 488 l 199 83 l 665 83 l 653 0 l 94 0 m 338 -289 q 277 -267 297 -289 q 263 -208 257 -246 q 296 -149 268 -171 q 364 -126 324 -126 q 424 -149 404 -126 q 438 -208 444 -171 q 405 -267 432 -246 q 338 -289 378 -289 z "},"È":{"ha":833,"x_min":94,"x_max":814,"o":"m 94 0 l 256 1014 l 814 1014 l 800 931 l 333 931 l 276 571 l 694 571 l 682 488 l 263 488 l 199 83 l 665 83 l 653 0 l 94 0 m 531 1125 l 404 1319 l 506 1319 l 624 1125 l 531 1125 z "},"Ẻ":{"ha":833,"x_min":94,"x_max":814,"o":"m 94 0 l 256 1014 l 814 1014 l 800 931 l 333 931 l 276 571 l 694 571 l 682 488 l 263 488 l 199 83 l 665 83 l 653 0 l 94 0 m 481 1111 l 571 1210 q 591 1236 582 1224 q 601 1257 600 1249 q 561 1292 607 1292 l 444 1292 l 456 1357 l 586 1357 q 664 1333 638 1357 q 683 1267 690 1308 q 671 1229 681 1249 q 647 1193 661 1210 l 575 1111 l 481 1111 z "},"Ē":{"ha":833,"x_min":94,"x_max":814,"o":"m 94 0 l 256 1014 l 814 1014 l 800 931 l 333 931 l 276 571 l 694 571 l 682 488 l 263 488 l 199 83 l 665 83 l 653 0 l 94 0 m 364 1178 l 376 1256 l 788 1256 l 775 1178 l 364 1178 z "},"Ę":{"ha":833,"x_min":94,"x_max":814,"o":"m 513 -275 q 414 -242 447 -275 q 389 -157 381 -210 q 431 -72 396 -115 q 532 14 467 -28 l 604 14 l 586 0 q 510 -73 538 -37 q 478 -137 483 -108 q 490 -188 474 -169 q 540 -207 507 -207 l 626 -207 l 617 -275 l 513 -275 m 94 0 l 256 1014 l 814 1014 l 800 931 l 333 931 l 276 571 l 694 571 l 682 488 l 263 488 l 199 83 l 665 83 l 653 0 l 94 0 z "},"Ẽ":{"ha":833,"x_min":94,"x_max":814,"o":"m 94 0 l 256 1014 l 814 1014 l 800 931 l 333 931 l 276 571 l 694 571 l 682 488 l 263 488 l 199 83 l 665 83 l 653 0 l 94 0 m 664 1132 q 600 1149 624 1132 q 560 1190 576 1167 q 526 1230 543 1213 q 486 1247 510 1247 q 441 1231 460 1247 q 418 1185 422 1214 l 411 1139 l 342 1139 l 349 1185 q 398 1278 358 1244 q 494 1313 438 1313 q 558 1295 535 1313 q 599 1255 582 1278 q 631 1215 615 1232 q 672 1197 647 1197 q 714 1214 697 1197 q 735 1260 731 1231 l 743 1306 l 813 1306 l 804 1260 q 757 1166 794 1200 q 664 1132 719 1132 z "},"F":{"ha":833,"x_min":88,"x_max":829,"o":"m 88 0 l 249 1014 l 829 1014 l 815 931 l 325 931 l 265 553 l 711 553 l 699 468 l 253 468 l 179 0 l 88 0 z "},"G":{"ha":833,"x_min":106,"x_max":782,"o":"m 360 -14 q 213 21 272 -14 q 130 119 154 56 q 118 269 106 183 l 193 744 q 253 896 208 832 q 367 994 297 960 q 525 1028 438 1028 q 673 992 614 1028 q 757 890 732 956 q 768 736 782 825 l 676 736 q 648 890 692 835 q 513 946 604 946 q 360 892 421 946 q 285 744 300 839 l 210 269 q 239 122 194 175 q 374 68 283 68 q 528 124 467 68 q 604 278 589 181 l 626 419 l 400 419 l 413 503 l 731 503 l 696 278 q 635 124 682 189 q 519 22 589 58 q 360 -14 449 -14 z "},"Ǵ":{"ha":833,"x_min":106,"x_max":782,"o":"m 360 -14 q 213 21 272 -14 q 130 119 154 56 q 118 269 106 183 l 193 744 q 253 896 208 832 q 367 994 297 960 q 525 1028 438 1028 q 673 992 614 1028 q 757 890 732 956 q 768 736 782 825 l 676 736 q 648 890 692 835 q 513 946 604 946 q 360 892 421 946 q 285 744 300 839 l 210 269 q 239 122 194 175 q 374 68 283 68 q 528 124 467 68 q 604 278 589 181 l 626 419 l 400 419 l 413 503 l 731 503 l 696 278 q 635 124 682 189 q 519 22 589 58 q 360 -14 449 -14 m 474 1125 l 651 1319 l 760 1319 l 575 1125 l 474 1125 z "},"Ğ":{"ha":833,"x_min":106,"x_max":782,"o":"m 360 -14 q 213 21 272 -14 q 130 119 154 56 q 118 269 106 183 l 193 744 q 253 896 208 832 q 367 994 297 960 q 525 1028 438 1028 q 673 992 614 1028 q 757 890 732 956 q 768 736 782 825 l 676 736 q 648 890 692 835 q 513 946 604 946 q 360 892 421 946 q 285 744 300 839 l 210 269 q 239 122 194 175 q 374 68 283 68 q 528 124 467 68 q 604 278 589 181 l 626 419 l 400 419 l 413 503 l 731 503 l 696 278 q 635 124 682 189 q 519 22 589 58 q 360 -14 449 -14 m 539 1121 q 394 1175 443 1121 q 360 1319 346 1229 l 436 1319 q 456 1222 426 1258 q 547 1186 486 1186 q 651 1222 608 1186 q 701 1319 693 1258 l 779 1319 q 700 1175 765 1229 q 539 1121 635 1121 z "},"Ǧ":{"ha":833,"x_min":106,"x_max":794,"o":"m 360 -14 q 213 21 272 -14 q 130 119 154 56 q 118 269 106 183 l 193 744 q 253 896 208 832 q 367 994 297 960 q 525 1028 438 1028 q 673 992 614 1028 q 757 890 732 956 q 768 736 782 825 l 676 736 q 648 890 692 835 q 513 946 604 946 q 360 892 421 946 q 285 744 300 839 l 210 269 q 239 122 194 175 q 374 68 283 68 q 528 124 467 68 q 604 278 589 181 l 626 419 l 400 419 l 413 503 l 731 503 l 696 278 q 635 124 682 189 q 519 22 589 58 q 360 -14 449 -14 m 492 1125 l 344 1319 l 439 1319 l 547 1185 l 696 1319 l 794 1319 l 588 1125 l 492 1125 z "},"Ĝ":{"ha":833,"x_min":106,"x_max":782,"o":"m 360 -14 q 213 21 272 -14 q 130 119 154 56 q 118 269 106 183 l 193 744 q 253 896 208 832 q 367 994 297 960 q 525 1028 438 1028 q 673 992 614 1028 q 757 890 732 956 q 768 736 782 825 l 676 736 q 648 890 692 835 q 513 946 604 946 q 360 892 421 946 q 285 744 300 839 l 210 269 q 239 122 194 175 q 374 68 283 68 q 528 124 467 68 q 604 278 589 181 l 626 419 l 400 419 l 413 503 l 731 503 l 696 278 q 635 124 682 189 q 519 22 589 58 q 360 -14 449 -14 m 314 1125 l 521 1319 l 617 1319 l 764 1125 l 671 1125 l 564 1260 l 415 1125 l 314 1125 z "},"Ģ":{"ha":833,"x_min":106,"x_max":782,"o":"m 360 -14 q 213 21 272 -14 q 130 119 154 56 q 118 269 106 183 l 193 744 q 253 896 208 832 q 367 994 297 960 q 525 1028 438 1028 q 673 992 614 1028 q 757 890 732 956 q 768 736 782 825 l 676 736 q 648 890 692 835 q 513 946 604 946 q 360 892 421 946 q 285 744 300 839 l 210 269 q 239 122 194 175 q 374 68 283 68 q 528 124 467 68 q 604 278 589 181 l 626 419 l 400 419 l 413 503 l 731 503 l 696 278 q 635 124 682 189 q 519 22 589 58 q 360 -14 449 -14 m 179 -333 l 339 -132 l 449 -132 l 271 -333 l 179 -333 z "},"Ġ":{"ha":833,"x_min":106,"x_max":782,"o":"m 360 -14 q 213 21 272 -14 q 130 119 154 56 q 118 269 106 183 l 193 744 q 253 896 208 832 q 367 994 297 960 q 525 1028 438 1028 q 673 992 614 1028 q 757 890 732 956 q 768 736 782 825 l 676 736 q 648 890 692 835 q 513 946 604 946 q 360 892 421 946 q 285 744 300 839 l 210 269 q 239 122 194 175 q 374 68 283 68 q 528 124 467 68 q 604 278 589 181 l 626 419 l 400 419 l 413 503 l 731 503 l 696 278 q 635 124 682 189 q 519 22 589 58 q 360 -14 449 -14 m 542 1140 q 481 1163 501 1140 q 467 1222 461 1185 q 501 1282 474 1260 q 568 1304 528 1304 q 628 1282 608 1304 q 642 1222 649 1260 q 609 1163 636 1185 q 542 1140 582 1140 z "},"H":{"ha":833,"x_min":82,"x_max":790,"o":"m 82 0 l 243 1014 l 335 1014 l 264 567 l 628 567 l 699 1014 l 790 1014 l 629 0 l 538 0 l 614 483 l 250 483 l 174 0 l 82 0 z "},"Ħ":{"ha":833,"x_min":71,"x_max":889,"o":"m 71 742 l 83 819 l 889 819 l 876 742 l 71 742 m 82 0 l 243 1014 l 335 1014 l 264 567 l 628 567 l 699 1014 l 790 1014 l 629 0 l 538 0 l 614 483 l 250 483 l 174 0 l 82 0 z "},"Ĥ":{"ha":833,"x_min":82,"x_max":790,"o":"m 82 0 l 243 1014 l 335 1014 l 264 567 l 628 567 l 699 1014 l 790 1014 l 629 0 l 538 0 l 614 483 l 250 483 l 174 0 l 82 0 m 308 1125 l 515 1319 l 611 1319 l 758 1125 l 665 1125 l 558 1260 l 410 1125 l 308 1125 z "},"I":{"ha":833,"x_min":97,"x_max":775,"o":"m 97 0 l 110 83 l 324 83 l 457 931 l 244 931 l 258 1015 l 775 1015 l 761 931 l 550 931 l 415 83 l 626 83 l 614 0 l 97 0 z "},"Í":{"ha":833,"x_min":97,"x_max":775,"o":"m 97 0 l 110 83 l 324 83 l 457 931 l 244 931 l 258 1015 l 775 1015 l 761 931 l 550 931 l 415 83 l 626 83 l 614 0 l 97 0 m 468 1125 l 646 1319 l 754 1319 l 569 1125 l 468 1125 z "},"Ĭ":{"ha":833,"x_min":97,"x_max":775,"o":"m 97 0 l 110 83 l 324 83 l 457 931 l 244 931 l 258 1015 l 775 1015 l 761 931 l 550 931 l 415 83 l 626 83 l 614 0 l 97 0 m 533 1121 q 389 1175 438 1121 q 354 1319 340 1229 l 431 1319 q 451 1222 421 1258 q 542 1186 481 1186 q 645 1222 603 1186 q 696 1319 688 1258 l 774 1319 q 694 1175 760 1229 q 533 1121 629 1121 z "},"Î":{"ha":833,"x_min":97,"x_max":775,"o":"m 97 0 l 110 83 l 324 83 l 457 931 l 244 931 l 258 1015 l 775 1015 l 761 931 l 550 931 l 415 83 l 626 83 l 614 0 l 97 0 m 308 1125 l 515 1319 l 611 1319 l 758 1125 l 665 1125 l 558 1260 l 410 1125 l 308 1125 z "},"Ï":{"ha":833,"x_min":97,"x_max":788,"o":"m 97 0 l 110 83 l 324 83 l 457 931 l 244 931 l 258 1015 l 775 1015 l 761 931 l 550 931 l 415 83 l 626 83 l 614 0 l 97 0 m 689 1142 q 635 1163 653 1142 q 622 1222 617 1185 q 654 1282 629 1260 q 715 1304 679 1304 q 768 1282 750 1304 q 779 1222 786 1260 q 749 1163 774 1185 q 689 1142 725 1142 m 388 1142 q 333 1163 351 1142 q 321 1222 315 1185 q 353 1282 328 1260 q 413 1304 378 1304 q 467 1282 449 1304 q 478 1222 485 1260 q 447 1163 472 1185 q 388 1142 422 1142 z "},"İ":{"ha":833,"x_min":97,"x_max":775,"o":"m 97 0 l 110 83 l 324 83 l 457 931 l 244 931 l 258 1015 l 775 1015 l 761 931 l 550 931 l 415 83 l 626 83 l 614 0 l 97 0 m 536 1140 q 476 1163 496 1140 q 461 1222 456 1185 q 495 1282 468 1260 q 563 1304 522 1304 q 623 1282 603 1304 q 636 1222 643 1260 q 603 1163 631 1185 q 536 1140 576 1140 z "},"Ị":{"ha":833,"x_min":97,"x_max":775,"o":"m 97 0 l 110 83 l 324 83 l 457 931 l 244 931 l 258 1015 l 775 1015 l 761 931 l 550 931 l 415 83 l 626 83 l 614 0 l 97 0 m 310 -289 q 249 -267 269 -289 q 235 -208 229 -246 q 268 -149 240 -171 q 336 -126 296 -126 q 397 -149 376 -126 q 410 -208 417 -171 q 377 -267 404 -246 q 310 -289 350 -289 z "},"Ì":{"ha":833,"x_min":97,"x_max":775,"o":"m 97 0 l 110 83 l 324 83 l 457 931 l 244 931 l 258 1015 l 775 1015 l 761 931 l 550 931 l 415 83 l 626 83 l 614 0 l 97 0 m 503 1125 l 376 1319 l 478 1319 l 596 1125 l 503 1125 z "},"Ỉ":{"ha":833,"x_min":97,"x_max":775,"o":"m 97 0 l 110 83 l 324 83 l 457 931 l 244 931 l 258 1015 l 775 1015 l 761 931 l 550 931 l 415 83 l 626 83 l 614 0 l 97 0 m 506 1111 l 596 1210 q 616 1236 607 1224 q 626 1257 625 1249 q 586 1292 632 1292 l 469 1292 l 481 1357 l 611 1357 q 689 1333 663 1357 q 708 1267 715 1308 q 696 1229 706 1249 q 672 1193 686 1210 l 600 1111 l 506 1111 z "},"Ī":{"ha":833,"x_min":97,"x_max":775,"o":"m 97 0 l 110 83 l 324 83 l 457 931 l 244 931 l 258 1015 l 775 1015 l 761 931 l 550 931 l 415 83 l 626 83 l 614 0 l 97 0 m 336 1178 l 349 1256 l 760 1256 l 747 1178 l 336 1178 z "},"Į":{"ha":833,"x_min":97,"x_max":775,"o":"m 317 -275 q 218 -242 251 -275 q 193 -157 185 -210 q 235 -72 200 -115 q 336 14 271 -28 l 408 14 l 390 0 q 315 -73 343 -37 q 282 -137 288 -108 q 294 -188 278 -169 q 344 -207 310 -207 l 431 -207 l 421 -275 l 317 -275 m 97 0 l 110 83 l 324 83 l 457 931 l 244 931 l 258 1015 l 775 1015 l 761 931 l 550 931 l 415 83 l 626 83 l 614 0 l 97 0 z "},"Ĩ":{"ha":833,"x_min":97,"x_max":785,"o":"m 97 0 l 110 83 l 324 83 l 457 931 l 244 931 l 258 1015 l 775 1015 l 761 931 l 550 931 l 415 83 l 626 83 l 614 0 l 97 0 m 636 1132 q 572 1149 596 1132 q 532 1190 549 1167 q 499 1230 515 1213 q 458 1247 482 1247 q 413 1231 432 1247 q 390 1185 394 1214 l 383 1139 l 314 1139 l 321 1185 q 370 1278 331 1244 q 467 1313 410 1313 q 531 1295 507 1313 q 571 1255 554 1278 q 603 1215 588 1232 q 644 1197 619 1197 q 686 1214 669 1197 q 707 1260 703 1231 l 715 1306 l 785 1306 l 776 1260 q 729 1166 767 1200 q 636 1132 692 1132 z "},"J":{"ha":833,"x_min":44,"x_max":775,"o":"m 315 -14 q 110 65 176 -14 q 67 283 44 144 l 158 283 q 188 125 143 182 q 329 68 233 68 q 488 125 425 68 q 567 282 551 182 l 669 929 l 417 929 l 431 1014 l 775 1014 l 658 282 q 598 124 644 190 q 479 22 551 57 q 315 -14 407 -14 z "},"Ĵ":{"ha":833,"x_min":44,"x_max":842,"o":"m 315 -14 q 110 65 176 -14 q 67 283 44 144 l 158 283 q 188 125 143 182 q 329 68 233 68 q 488 125 425 68 q 567 282 551 182 l 669 929 l 417 929 l 431 1014 l 775 1014 l 658 282 q 598 124 644 190 q 479 22 551 57 q 315 -14 407 -14 m 392 1125 l 599 1319 l 694 1319 l 842 1125 l 749 1125 l 642 1260 l 493 1125 l 392 1125 z "},"K":{"ha":833,"x_min":82,"x_max":847,"o":"m 82 0 l 243 1015 l 335 1015 l 264 565 l 449 565 l 743 1015 l 847 1015 l 526 524 l 700 0 l 597 0 l 439 485 l 250 485 l 174 0 l 82 0 z "},"Ķ":{"ha":833,"x_min":82,"x_max":847,"o":"m 82 0 l 243 1015 l 335 1015 l 264 565 l 449 565 l 743 1015 l 847 1015 l 526 524 l 700 0 l 597 0 l 439 485 l 250 485 l 174 0 l 82 0 m 172 -333 l 332 -132 l 442 -132 l 264 -333 l 172 -333 z "},"L":{"ha":833,"x_min":103,"x_max":686,"o":"m 103 0 l 264 1014 l 356 1014 l 207 83 l 686 83 l 674 0 l 103 0 z "},"Ĺ":{"ha":833,"x_min":103,"x_max":686,"o":"m 103 0 l 264 1014 l 356 1014 l 207 83 l 686 83 l 674 0 l 103 0 m 263 1125 l 440 1319 l 549 1319 l 364 1125 l 263 1125 z "},"Ľ":{"ha":833,"x_min":103,"x_max":701,"o":"m 103 0 l 264 1014 l 356 1014 l 207 83 l 686 83 l 674 0 l 103 0 m 558 764 l 613 1014 l 701 1014 l 633 764 l 558 764 z "},"Ļ":{"ha":833,"x_min":103,"x_max":686,"o":"m 103 0 l 264 1014 l 356 1014 l 207 83 l 686 83 l 674 0 l 103 0 m 200 -333 l 360 -132 l 469 -132 l 292 -333 l 200 -333 z "},"Ŀ":{"ha":833,"x_min":103,"x_max":686,"o":"m 103 0 l 264 1014 l 356 1014 l 207 83 l 686 83 l 674 0 l 103 0 z "},"Ł":{"ha":833,"x_min":18,"x_max":694,"o":"m 18 324 l 33 418 l 603 774 l 588 679 l 18 324 m 111 0 l 272 1014 l 364 1014 l 215 83 l 694 83 l 682 0 l 111 0 z "},"M":{"ha":833,"x_min":58,"x_max":814,"o":"m 58 0 l 219 1014 l 344 1014 l 413 650 q 426 574 419 614 q 436 511 433 535 q 466 574 447 535 q 501 650 485 614 l 685 1014 l 814 1014 l 653 0 l 564 0 l 646 514 q 666 635 654 572 q 691 760 678 699 q 717 875 704 821 q 739 968 729 929 l 476 449 l 379 449 l 279 968 q 272 876 278 929 q 260 762 267 824 q 247 636 254 700 q 229 514 239 572 l 147 0 l 58 0 z "},"N":{"ha":833,"x_min":81,"x_max":792,"o":"m 81 0 l 242 1014 l 364 1014 l 568 104 q 575 175 571 135 q 584 254 579 215 q 593 319 589 293 l 703 1014 l 792 1014 l 631 0 l 508 0 l 307 910 q 300 854 304 889 q 291 778 296 819 q 279 694 286 736 l 169 0 l 81 0 z "},"Ń":{"ha":833,"x_min":81,"x_max":792,"o":"m 81 0 l 242 1014 l 364 1014 l 568 104 q 575 175 571 135 q 584 254 579 215 q 593 319 589 293 l 703 1014 l 792 1014 l 631 0 l 508 0 l 307 910 q 300 854 304 889 q 291 778 296 819 q 279 694 286 736 l 169 0 l 81 0 m 468 1125 l 646 1319 l 754 1319 l 569 1125 l 468 1125 z "},"Ň":{"ha":833,"x_min":81,"x_max":792,"o":"m 81 0 l 242 1014 l 364 1014 l 568 104 q 575 175 571 135 q 584 254 579 215 q 593 319 589 293 l 703 1014 l 792 1014 l 631 0 l 508 0 l 307 910 q 300 854 304 889 q 291 778 296 819 q 279 694 286 736 l 169 0 l 81 0 m 486 1125 l 339 1319 l 433 1319 l 542 1185 l 690 1319 l 789 1319 l 582 1125 l 486 1125 z "},"Ņ":{"ha":833,"x_min":81,"x_max":792,"o":"m 81 0 l 242 1014 l 364 1014 l 568 104 q 575 175 571 135 q 584 254 579 215 q 593 319 589 293 l 703 1014 l 792 1014 l 631 0 l 508 0 l 307 910 q 300 854 304 889 q 291 778 296 819 q 279 694 286 736 l 169 0 l 81 0 m 171 -333 l 331 -132 l 443 -132 l 265 -333 l 171 -333 z "},"Ŋ":{"ha":833,"x_min":79,"x_max":793,"o":"m 221 -250 l 235 -167 l 338 -167 q 475 -121 422 -167 q 540 8 528 -75 l 306 910 q 300 854 304 889 q 290 778 296 819 q 278 694 285 736 l 168 0 l 79 0 l 240 1014 l 363 1014 l 581 178 q 586 238 582 201 q 595 319 590 275 q 607 403 600 363 l 704 1014 l 793 1014 l 632 8 q 578 -131 619 -72 q 472 -219 538 -189 q 324 -250 407 -250 l 221 -250 z "},"Ñ":{"ha":833,"x_min":81,"x_max":792,"o":"m 81 0 l 242 1014 l 364 1014 l 568 104 q 575 175 571 135 q 584 254 579 215 q 593 319 589 293 l 703 1014 l 792 1014 l 631 0 l 508 0 l 307 910 q 300 854 304 889 q 291 778 296 819 q 279 694 286 736 l 169 0 l 81 0 m 636 1132 q 572 1149 596 1132 q 532 1190 549 1167 q 499 1230 515 1213 q 458 1247 482 1247 q 413 1231 432 1247 q 390 1185 394 1214 l 383 1139 l 314 1139 l 321 1185 q 370 1278 331 1244 q 467 1313 410 1313 q 531 1295 507 1313 q 571 1255 554 1278 q 603 1215 588 1232 q 644 1197 619 1197 q 686 1214 669 1197 q 707 1260 703 1231 l 715 1306 l 785 1306 l 776 1260 q 729 1166 767 1200 q 636 1132 692 1132 z "},"O":{"ha":833,"x_min":106,"x_max":768,"o":"m 353 -14 q 210 20 268 -14 q 129 118 153 54 q 118 269 106 182 l 193 744 q 252 895 208 832 q 365 993 296 958 q 518 1028 433 1028 q 662 993 604 1028 q 744 895 719 958 q 754 744 768 832 l 679 269 q 621 118 665 182 q 508 20 576 54 q 353 -14 439 -14 m 365 68 q 513 121 456 68 q 588 269 571 174 l 663 744 q 636 893 678 840 q 506 946 594 946 q 358 893 417 946 q 285 744 300 840 l 210 269 q 235 121 194 174 q 365 68 276 68 z "},"Ó":{"ha":833,"x_min":106,"x_max":768,"o":"m 353 -14 q 210 20 268 -14 q 129 118 153 54 q 118 269 106 182 l 193 744 q 252 895 208 832 q 365 993 296 958 q 518 1028 433 1028 q 662 993 604 1028 q 744 895 719 958 q 754 744 768 832 l 679 269 q 621 118 665 182 q 508 20 576 54 q 353 -14 439 -14 m 365 68 q 513 121 456 68 q 588 269 571 174 l 663 744 q 636 893 678 840 q 506 946 594 946 q 358 893 417 946 q 285 744 300 840 l 210 269 q 235 121 194 174 q 365 68 276 68 m 468 1125 l 646 1319 l 754 1319 l 569 1125 l 468 1125 z "},"Ŏ":{"ha":833,"x_min":106,"x_max":774,"o":"m 353 -14 q 210 20 268 -14 q 129 118 153 54 q 118 269 106 182 l 193 744 q 252 895 208 832 q 365 993 296 958 q 518 1028 433 1028 q 662 993 604 1028 q 744 895 719 958 q 754 744 768 832 l 679 269 q 621 118 665 182 q 508 20 576 54 q 353 -14 439 -14 m 365 68 q 513 121 456 68 q 588 269 571 174 l 663 744 q 636 893 678 840 q 506 946 594 946 q 358 893 417 946 q 285 744 300 840 l 210 269 q 235 121 194 174 q 365 68 276 68 m 533 1121 q 389 1175 438 1121 q 354 1319 340 1229 l 431 1319 q 451 1222 421 1258 q 542 1186 481 1186 q 645 1222 603 1186 q 696 1319 688 1258 l 774 1319 q 694 1175 760 1229 q 533 1121 629 1121 z "},"Ô":{"ha":833,"x_min":106,"x_max":768,"o":"m 353 -14 q 210 20 268 -14 q 129 118 153 54 q 118 269 106 182 l 193 744 q 252 895 208 832 q 365 993 296 958 q 518 1028 433 1028 q 662 993 604 1028 q 744 895 719 958 q 754 744 768 832 l 679 269 q 621 118 665 182 q 508 20 576 54 q 353 -14 439 -14 m 365 68 q 513 121 456 68 q 588 269 571 174 l 663 744 q 636 893 678 840 q 506 946 594 946 q 358 893 417 946 q 285 744 300 840 l 210 269 q 235 121 194 174 q 365 68 276 68 m 308 1125 l 515 1319 l 611 1319 l 758 1125 l 665 1125 l 558 1260 l 410 1125 l 308 1125 z "},"Ố":{"ha":833,"x_min":106,"x_max":982,"o":"m 353 -14 q 210 20 268 -14 q 129 118 153 54 q 118 269 106 182 l 193 744 q 252 895 208 832 q 365 993 296 958 q 518 1028 433 1028 q 662 993 604 1028 q 744 895 719 958 q 754 744 768 832 l 679 269 q 621 118 665 182 q 508 20 576 54 q 353 -14 439 -14 m 365 68 q 513 121 456 68 q 588 269 571 174 l 663 744 q 636 893 678 840 q 506 946 594 946 q 358 893 417 946 q 285 744 300 840 l 210 269 q 235 121 194 174 q 365 68 276 68 m 699 1246 l 872 1417 l 982 1417 l 799 1246 l 699 1246 m 303 1083 l 510 1278 l 607 1278 l 753 1083 l 660 1083 l 551 1218 l 404 1083 l 303 1083 z "},"Ộ":{"ha":833,"x_min":106,"x_max":768,"o":"m 308 1125 l 515 1319 l 611 1319 l 758 1125 l 665 1125 l 558 1260 l 410 1125 l 308 1125 m 353 -14 q 210 20 268 -14 q 129 118 153 54 q 118 269 106 182 l 193 744 q 252 895 208 832 q 365 993 296 958 q 518 1028 433 1028 q 662 993 604 1028 q 744 895 719 958 q 754 744 768 832 l 679 269 q 621 118 665 182 q 508 20 576 54 q 353 -14 439 -14 m 365 68 q 513 121 456 68 q 588 269 571 174 l 663 744 q 636 893 678 840 q 506 946 594 946 q 358 893 417 946 q 285 744 300 840 l 210 269 q 235 121 194 174 q 365 68 276 68 m 310 -289 q 249 -267 269 -289 q 235 -208 229 -246 q 268 -149 240 -171 q 336 -126 296 -126 q 397 -149 376 -126 q 410 -208 417 -171 q 377 -267 404 -246 q 310 -289 350 -289 z "},"Ồ":{"ha":833,"x_min":106,"x_max":847,"o":"m 353 -14 q 210 20 268 -14 q 129 118 153 54 q 118 269 106 182 l 193 744 q 252 895 208 832 q 365 993 296 958 q 518 1028 433 1028 q 662 993 604 1028 q 744 895 719 958 q 754 744 768 832 l 679 269 q 621 118 665 182 q 508 20 576 54 q 353 -14 439 -14 m 365 68 q 513 121 456 68 q 588 269 571 174 l 663 744 q 636 893 678 840 q 506 946 594 946 q 358 893 417 946 q 285 744 300 840 l 210 269 q 235 121 194 174 q 365 68 276 68 m 757 1246 l 618 1417 l 719 1417 l 847 1246 l 757 1246 m 303 1083 l 510 1278 l 607 1278 l 753 1083 l 660 1083 l 551 1218 l 404 1083 l 303 1083 z "},"Ổ":{"ha":833,"x_min":106,"x_max":911,"o":"m 353 -14 q 210 20 268 -14 q 129 118 153 54 q 118 269 106 182 l 193 744 q 252 895 208 832 q 365 993 296 958 q 518 1028 433 1028 q 662 993 604 1028 q 744 895 719 958 q 754 744 768 832 l 679 269 q 621 118 665 182 q 508 20 576 54 q 353 -14 439 -14 m 365 68 q 513 121 456 68 q 588 269 571 174 l 663 744 q 636 893 678 840 q 506 946 594 946 q 358 893 417 946 q 285 744 300 840 l 210 269 q 235 121 194 174 q 365 68 276 68 m 724 1222 l 801 1293 q 819 1313 813 1304 q 828 1331 826 1322 q 801 1356 832 1356 l 706 1356 l 715 1417 l 822 1417 q 889 1397 867 1417 q 906 1342 911 1376 q 892 1304 903 1322 q 864 1271 881 1286 l 813 1222 l 724 1222 m 303 1083 l 510 1278 l 607 1278 l 753 1083 l 660 1083 l 551 1218 l 404 1083 l 303 1083 z "},"Ỗ":{"ha":833,"x_min":106,"x_max":794,"o":"m 353 -14 q 210 20 268 -14 q 129 118 153 54 q 118 269 106 182 l 193 744 q 252 895 208 832 q 365 993 296 958 q 518 1028 433 1028 q 662 993 604 1028 q 744 895 719 958 q 754 744 768 832 l 679 269 q 621 118 665 182 q 508 20 576 54 q 353 -14 439 -14 m 365 68 q 513 121 456 68 q 588 269 571 174 l 663 744 q 636 893 678 840 q 506 946 594 946 q 358 893 417 946 q 285 744 300 840 l 210 269 q 235 121 194 174 q 365 68 276 68 m 664 1278 q 601 1290 625 1278 q 558 1317 576 1301 q 521 1344 540 1332 q 474 1356 501 1356 q 415 1308 425 1356 l 413 1292 l 343 1292 l 346 1308 q 390 1388 354 1358 q 481 1417 426 1417 q 544 1405 519 1417 q 586 1378 568 1393 q 623 1351 604 1363 q 669 1339 642 1339 q 705 1352 690 1339 q 722 1386 719 1365 l 725 1403 l 794 1403 l 792 1386 q 751 1308 786 1338 q 664 1278 715 1278 m 303 1083 l 493 1246 l 614 1246 l 753 1083 l 660 1083 l 549 1200 l 404 1083 l 303 1083 z "},"Ö":{"ha":833,"x_min":106,"x_max":788,"o":"m 353 -14 q 210 20 268 -14 q 129 118 153 54 q 118 269 106 182 l 193 744 q 252 895 208 832 q 365 993 296 958 q 518 1028 433 1028 q 662 993 604 1028 q 744 895 719 958 q 754 744 768 832 l 679 269 q 621 118 665 182 q 508 20 576 54 q 353 -14 439 -14 m 365 68 q 513 121 456 68 q 588 269 571 174 l 663 744 q 636 893 678 840 q 506 946 594 946 q 358 893 417 946 q 285 744 300 840 l 210 269 q 235 121 194 174 q 365 68 276 68 m 689 1142 q 635 1163 653 1142 q 622 1222 617 1185 q 654 1282 629 1260 q 715 1304 679 1304 q 768 1282 750 1304 q 779 1222 786 1260 q 749 1163 774 1185 q 689 1142 725 1142 m 388 1142 q 333 1163 351 1142 q 321 1222 315 1185 q 353 1282 328 1260 q 413 1304 378 1304 q 467 1282 449 1304 q 478 1222 485 1260 q 447 1163 472 1185 q 388 1142 422 1142 z "},"Ọ":{"ha":833,"x_min":106,"x_max":768,"o":"m 353 -14 q 210 20 268 -14 q 129 118 153 54 q 118 269 106 182 l 193 744 q 252 895 208 832 q 365 993 296 958 q 518 1028 433 1028 q 662 993 604 1028 q 744 895 719 958 q 754 744 768 832 l 679 269 q 621 118 665 182 q 508 20 576 54 q 353 -14 439 -14 m 365 68 q 513 121 456 68 q 588 269 571 174 l 663 744 q 636 893 678 840 q 506 946 594 946 q 358 893 417 946 q 285 744 300 840 l 210 269 q 235 121 194 174 q 365 68 276 68 m 324 -289 q 263 -267 283 -289 q 249 -208 243 -246 q 282 -149 254 -171 q 350 -126 310 -126 q 410 -149 390 -126 q 424 -208 431 -171 q 391 -267 418 -246 q 324 -289 364 -289 z "},"Ò":{"ha":833,"x_min":106,"x_max":768,"o":"m 353 -14 q 210 20 268 -14 q 129 118 153 54 q 118 269 106 182 l 193 744 q 252 895 208 832 q 365 993 296 958 q 518 1028 433 1028 q 662 993 604 1028 q 744 895 719 958 q 754 744 768 832 l 679 269 q 621 118 665 182 q 508 20 576 54 q 353 -14 439 -14 m 365 68 q 513 121 456 68 q 588 269 571 174 l 663 744 q 636 893 678 840 q 506 946 594 946 q 358 893 417 946 q 285 744 300 840 l 210 269 q 235 121 194 174 q 365 68 276 68 m 503 1125 l 376 1319 l 478 1319 l 596 1125 l 503 1125 z "},"Ỏ":{"ha":833,"x_min":106,"x_max":768,"o":"m 353 -14 q 210 20 268 -14 q 129 118 153 54 q 118 269 106 182 l 193 744 q 252 895 208 832 q 365 993 296 958 q 518 1028 433 1028 q 662 993 604 1028 q 744 895 719 958 q 754 744 768 832 l 679 269 q 621 118 665 182 q 508 20 576 54 q 353 -14 439 -14 m 365 68 q 513 121 456 68 q 588 269 571 174 l 663 744 q 636 893 678 840 q 506 946 594 946 q 358 893 417 946 q 285 744 300 840 l 210 269 q 235 121 194 174 q 365 68 276 68 m 506 1111 l 596 1210 q 616 1236 607 1224 q 626 1257 625 1249 q 586 1292 632 1292 l 469 1292 l 481 1357 l 611 1357 q 689 1333 663 1357 q 708 1267 715 1308 q 696 1229 706 1249 q 672 1193 686 1210 l 600 1111 l 506 1111 z "},"Ơ":{"ha":833,"x_min":106,"x_max":847,"o":"m 632 907 l 643 972 l 692 972 q 735 989 717 972 q 757 1033 753 1006 l 772 1125 l 847 1125 l 832 1031 q 783 941 824 975 q 683 907 742 907 l 632 907 m 353 -14 q 210 20 268 -14 q 129 118 153 54 q 118 269 106 182 l 193 744 q 252 895 208 832 q 365 993 296 958 q 518 1028 433 1028 q 662 993 604 1028 q 744 895 719 958 q 754 744 768 832 l 679 269 q 621 118 665 182 q 508 20 576 54 q 353 -14 439 -14 m 365 68 q 513 121 456 68 q 588 269 571 174 l 663 744 q 636 893 678 840 q 506 946 594 946 q 358 893 417 946 q 285 744 300 840 l 210 269 q 235 121 194 174 q 365 68 276 68 z "},"Ớ":{"ha":833,"x_min":106,"x_max":847,"o":"m 632 907 l 643 972 l 692 972 q 735 989 717 972 q 757 1033 753 1006 l 772 1125 l 847 1125 l 832 1031 q 783 941 824 975 q 683 907 742 907 l 632 907 m 353 -14 q 210 20 268 -14 q 129 118 153 54 q 118 269 106 182 l 193 744 q 252 895 208 832 q 365 993 296 958 q 518 1028 433 1028 q 662 993 604 1028 q 744 895 719 958 q 754 744 768 832 l 679 269 q 621 118 665 182 q 508 20 576 54 q 353 -14 439 -14 m 365 68 q 513 121 456 68 q 588 269 571 174 l 663 744 q 636 893 678 840 q 506 946 594 946 q 358 893 417 946 q 285 744 300 840 l 210 269 q 235 121 194 174 q 365 68 276 68 m 478 1125 l 656 1319 l 764 1319 l 579 1125 l 478 1125 z "},"Ợ":{"ha":833,"x_min":106,"x_max":847,"o":"m 632 907 l 643 972 l 692 972 q 735 989 717 972 q 757 1033 753 1006 l 772 1125 l 847 1125 l 832 1031 q 783 941 824 975 q 683 907 742 907 l 632 907 m 353 -14 q 210 20 268 -14 q 129 118 153 54 q 118 269 106 182 l 193 744 q 252 895 208 832 q 365 993 296 958 q 518 1028 433 1028 q 662 993 604 1028 q 744 895 719 958 q 754 744 768 832 l 679 269 q 621 118 665 182 q 508 20 576 54 q 353 -14 439 -14 m 365 68 q 513 121 456 68 q 588 269 571 174 l 663 744 q 636 893 678 840 q 506 946 594 946 q 358 893 417 946 q 285 744 300 840 l 210 269 q 235 121 194 174 q 365 68 276 68 m 324 -289 q 263 -267 283 -289 q 249 -208 243 -246 q 282 -149 254 -171 q 350 -126 310 -126 q 410 -149 390 -126 q 424 -208 431 -171 q 391 -267 418 -246 q 324 -289 364 -289 z "},"Ờ":{"ha":833,"x_min":106,"x_max":847,"o":"m 632 907 l 643 972 l 692 972 q 735 989 717 972 q 757 1033 753 1006 l 772 1125 l 847 1125 l 832 1031 q 783 941 824 975 q 683 907 742 907 l 632 907 m 353 -14 q 210 20 268 -14 q 129 118 153 54 q 118 269 106 182 l 193 744 q 252 895 208 832 q 365 993 296 958 q 518 1028 433 1028 q 662 993 604 1028 q 744 895 719 958 q 754 744 768 832 l 679 269 q 621 118 665 182 q 508 20 576 54 q 353 -14 439 -14 m 365 68 q 513 121 456 68 q 588 269 571 174 l 663 744 q 636 893 678 840 q 506 946 594 946 q 358 893 417 946 q 285 744 300 840 l 210 269 q 235 121 194 174 q 365 68 276 68 m 513 1125 l 386 1319 l 488 1319 l 606 1125 l 513 1125 z "},"Ở":{"ha":833,"x_min":106,"x_max":847,"o":"m 632 907 l 643 972 l 692 972 q 735 989 717 972 q 757 1033 753 1006 l 772 1125 l 847 1125 l 832 1031 q 783 941 824 975 q 683 907 742 907 l 632 907 m 353 -14 q 210 20 268 -14 q 129 118 153 54 q 118 269 106 182 l 193 744 q 252 895 208 832 q 365 993 296 958 q 518 1028 433 1028 q 662 993 604 1028 q 744 895 719 958 q 754 744 768 832 l 679 269 q 621 118 665 182 q 508 20 576 54 q 353 -14 439 -14 m 365 68 q 513 121 456 68 q 588 269 571 174 l 663 744 q 636 893 678 840 q 506 946 594 946 q 358 893 417 946 q 285 744 300 840 l 210 269 q 235 121 194 174 q 365 68 276 68 m 481 1111 l 571 1210 q 591 1236 582 1224 q 601 1257 600 1249 q 561 1292 607 1292 l 444 1292 l 456 1357 l 586 1357 q 664 1333 638 1357 q 683 1267 690 1308 q 671 1229 681 1249 q 647 1193 661 1210 l 575 1111 l 481 1111 z "},"Ỡ":{"ha":833,"x_min":106,"x_max":847,"o":"m 632 907 l 643 972 l 692 972 q 735 989 717 972 q 757 1033 753 1006 l 772 1125 l 847 1125 l 832 1031 q 783 941 824 975 q 683 907 742 907 l 632 907 m 353 -14 q 210 20 268 -14 q 129 118 153 54 q 118 269 106 182 l 193 744 q 252 895 208 832 q 365 993 296 958 q 518 1028 433 1028 q 662 993 604 1028 q 744 895 719 958 q 754 744 768 832 l 679 269 q 621 118 665 182 q 508 20 576 54 q 353 -14 439 -14 m 365 68 q 513 121 456 68 q 588 269 571 174 l 663 744 q 636 893 678 840 q 506 946 594 946 q 358 893 417 946 q 285 744 300 840 l 210 269 q 235 121 194 174 q 365 68 276 68 m 646 1132 q 582 1149 606 1132 q 542 1190 558 1167 q 508 1230 525 1213 q 468 1247 492 1247 q 423 1231 442 1247 q 400 1185 404 1214 l 393 1139 l 324 1139 l 331 1185 q 380 1278 340 1244 q 476 1313 419 1313 q 540 1295 517 1313 q 581 1255 564 1278 q 613 1215 597 1232 q 654 1197 629 1197 q 696 1214 679 1197 q 717 1260 713 1231 l 725 1306 l 794 1306 l 786 1260 q 739 1166 776 1200 q 646 1132 701 1132 z "},"Ő":{"ha":833,"x_min":106,"x_max":860,"o":"m 353 -14 q 210 20 268 -14 q 129 118 153 54 q 118 269 106 182 l 193 744 q 252 895 208 832 q 365 993 296 958 q 518 1028 433 1028 q 662 993 604 1028 q 744 895 719 958 q 754 744 768 832 l 679 269 q 621 118 665 182 q 508 20 576 54 q 353 -14 439 -14 m 365 68 q 513 121 456 68 q 588 269 571 174 l 663 744 q 636 893 678 840 q 506 946 594 946 q 358 893 417 946 q 285 744 300 840 l 210 269 q 235 121 194 174 q 365 68 276 68 m 575 1125 l 756 1319 l 860 1319 l 672 1125 l 575 1125 m 342 1125 l 522 1319 l 626 1319 l 439 1125 l 342 1125 z "},"Ō":{"ha":833,"x_min":106,"x_max":768,"o":"m 353 -14 q 210 20 268 -14 q 129 118 153 54 q 118 269 106 182 l 193 744 q 252 895 208 832 q 365 993 296 958 q 518 1028 433 1028 q 662 993 604 1028 q 744 895 719 958 q 754 744 768 832 l 679 269 q 621 118 665 182 q 508 20 576 54 q 353 -14 439 -14 m 365 68 q 513 121 456 68 q 588 269 571 174 l 663 744 q 636 893 678 840 q 506 946 594 946 q 358 893 417 946 q 285 744 300 840 l 210 269 q 235 121 194 174 q 365 68 276 68 m 336 1178 l 349 1256 l 760 1256 l 747 1178 l 336 1178 z "},"Ǫ":{"ha":833,"x_min":106,"x_max":768,"o":"m 414 -275 q 315 -242 349 -275 q 290 -157 282 -210 q 308 -110 294 -135 q 343 -59 321 -85 q 394 -11 365 -33 q 374 -13 386 -12 q 353 -14 361 -14 q 210 20 268 -14 q 129 118 153 54 q 118 269 106 182 l 193 744 q 252 895 208 832 q 365 993 296 958 q 518 1028 433 1028 q 662 993 604 1028 q 744 895 719 958 q 754 744 768 832 l 679 269 q 622 121 665 183 q 513 22 579 58 l 485 3 q 411 -72 438 -35 q 379 -137 385 -108 q 392 -188 375 -169 q 442 -207 408 -207 l 528 -207 l 518 -275 l 414 -275 m 365 68 q 513 121 456 68 q 588 269 571 174 l 663 744 q 636 893 678 840 q 506 946 594 946 q 358 893 417 946 q 285 744 300 840 l 210 269 q 235 121 194 174 q 365 68 276 68 z "},"Ø":{"ha":833,"x_min":-8,"x_max":876,"o":"m -8 -56 l 788 1042 l 876 1042 l 81 -56 l -8 -56 m 353 -14 q 210 20 268 -14 q 128 118 153 54 q 118 269 104 182 l 193 744 q 252 895 208 832 q 365 993 296 958 q 518 1028 433 1028 q 661 993 604 1028 q 743 895 718 958 q 754 744 768 832 l 679 269 q 621 118 665 182 q 508 20 576 54 q 353 -14 439 -14 m 365 68 q 513 121 456 68 q 588 269 571 174 l 663 744 q 636 893 678 840 q 506 946 594 946 q 359 893 417 946 q 285 744 301 840 l 210 269 q 235 121 194 174 q 365 68 276 68 z "},"Ǿ":{"ha":833,"x_min":-8,"x_max":876,"o":"m -8 -56 l 788 1042 l 876 1042 l 81 -56 l -8 -56 m 353 -14 q 210 20 268 -14 q 128 118 153 54 q 118 269 104 182 l 193 744 q 252 895 208 832 q 365 993 296 958 q 518 1028 433 1028 q 661 993 604 1028 q 743 895 718 958 q 754 744 768 832 l 679 269 q 621 118 665 182 q 508 20 576 54 q 353 -14 439 -14 m 365 68 q 513 121 456 68 q 588 269 571 174 l 663 744 q 636 893 678 840 q 506 946 594 946 q 359 893 417 946 q 285 744 301 840 l 210 269 q 235 121 194 174 q 365 68 276 68 m 468 1125 l 646 1319 l 754 1319 l 569 1125 l 468 1125 z "},"Õ":{"ha":833,"x_min":106,"x_max":785,"o":"m 353 -14 q 210 20 268 -14 q 129 118 153 54 q 118 269 106 182 l 193 744 q 252 895 208 832 q 365 993 296 958 q 518 1028 433 1028 q 662 993 604 1028 q 744 895 719 958 q 754 744 768 832 l 679 269 q 621 118 665 182 q 508 20 576 54 q 353 -14 439 -14 m 365 68 q 513 121 456 68 q 588 269 571 174 l 663 744 q 636 893 678 840 q 506 946 594 946 q 358 893 417 946 q 285 744 300 840 l 210 269 q 235 121 194 174 q 365 68 276 68 m 636 1132 q 572 1149 596 1132 q 532 1190 549 1167 q 499 1230 515 1213 q 458 1247 482 1247 q 413 1231 432 1247 q 390 1185 394 1214 l 383 1139 l 314 1139 l 321 1185 q 370 1278 331 1244 q 467 1313 410 1313 q 531 1295 507 1313 q 571 1255 554 1278 q 603 1215 588 1232 q 644 1197 619 1197 q 686 1214 669 1197 q 707 1260 703 1231 l 715 1306 l 785 1306 l 776 1260 q 729 1166 767 1200 q 636 1132 692 1132 z "},"Œ":{"ha":833,"x_min":21,"x_max":893,"o":"m 208 -14 q 99 19 143 -14 q 38 110 56 51 q 33 244 21 168 l 117 769 q 165 905 129 847 q 255 995 201 963 q 374 1028 308 1028 q 452 1008 422 1028 q 497 959 482 988 q 514 903 513 931 l 521 903 l 539 1014 l 893 1014 l 879 926 l 619 926 l 563 567 l 779 567 l 765 481 l 549 481 l 486 88 l 746 88 l 732 0 l 378 0 l 396 111 l 389 111 q 354 56 379 85 q 293 6 329 26 q 208 -14 257 -14 m 244 72 q 357 119 310 72 q 417 244 404 165 l 500 769 q 480 895 513 849 q 383 942 447 942 q 272 894 318 942 q 213 769 225 847 l 129 244 q 148 119 117 167 q 244 72 179 72 z "},"P":{"ha":833,"x_min":82,"x_max":819,"o":"m 82 0 l 243 1014 l 553 1014 q 705 978 643 1014 q 793 878 767 943 q 806 725 819 814 q 744 574 792 639 q 624 472 697 508 q 461 436 551 436 l 243 436 l 174 0 l 82 0 m 256 519 l 474 519 q 633 576 568 519 q 711 725 697 632 q 681 876 728 821 q 539 931 633 931 l 321 931 l 256 519 z "},"Þ":{"ha":833,"x_min":76,"x_max":789,"o":"m 76 0 l 238 1014 l 329 1014 l 293 793 l 526 793 q 723 722 657 793 q 769 528 789 650 q 713 387 757 446 q 599 295 668 328 q 443 263 531 263 l 210 263 l 168 0 l 76 0 m 222 346 l 456 346 q 603 395 544 346 q 676 528 663 444 q 646 662 690 613 q 514 711 601 711 l 281 711 l 222 346 z "},"Q":{"ha":833,"x_min":100,"x_max":772,"o":"m 514 -250 l 403 -1 l 417 -8 q 388 -12 406 -10 q 354 -14 371 -14 q 208 22 267 -14 q 124 122 149 57 q 114 272 100 186 l 189 742 q 248 893 203 829 q 363 992 293 957 q 519 1028 432 1028 q 665 992 607 1028 q 747 891 722 956 q 758 742 772 826 l 683 272 q 613 105 668 175 q 472 7 557 35 l 476 54 l 611 -250 l 514 -250 m 368 68 q 517 123 457 68 q 592 272 576 178 l 667 742 q 639 892 682 838 q 507 946 596 946 q 356 892 417 946 q 281 742 296 838 l 206 272 q 234 123 190 178 q 368 68 278 68 z "},"R":{"ha":833,"x_min":82,"x_max":803,"o":"m 82 0 l 243 1014 l 539 1014 q 690 978 629 1014 q 776 879 750 943 q 789 729 803 815 q 738 593 778 653 q 638 497 699 533 q 500 450 576 460 l 510 493 l 681 0 l 578 0 l 431 447 l 244 447 l 174 0 l 82 0 m 257 529 l 461 529 q 618 585 554 529 q 696 731 682 640 q 664 876 711 822 q 525 931 617 931 l 321 931 l 257 529 z "},"Ŕ":{"ha":833,"x_min":82,"x_max":803,"o":"m 82 0 l 243 1014 l 539 1014 q 690 978 629 1014 q 776 879 750 943 q 789 729 803 815 q 738 593 778 653 q 638 497 699 533 q 500 450 576 460 l 510 493 l 681 0 l 578 0 l 431 447 l 244 447 l 174 0 l 82 0 m 257 529 l 461 529 q 618 585 554 529 q 696 731 682 640 q 664 876 711 822 q 525 931 617 931 l 321 931 l 257 529 m 468 1125 l 646 1319 l 754 1319 l 569 1125 l 468 1125 z "},"Ř":{"ha":833,"x_min":82,"x_max":803,"o":"m 82 0 l 243 1014 l 539 1014 q 690 978 629 1014 q 776 879 750 943 q 789 729 803 815 q 738 593 778 653 q 638 497 699 533 q 500 450 576 460 l 510 493 l 681 0 l 578 0 l 431 447 l 244 447 l 174 0 l 82 0 m 257 529 l 461 529 q 618 585 554 529 q 696 731 682 640 q 664 876 711 822 q 525 931 617 931 l 321 931 l 257 529 m 486 1125 l 339 1319 l 433 1319 l 542 1185 l 690 1319 l 789 1319 l 582 1125 l 486 1125 z "},"Ŗ":{"ha":833,"x_min":82,"x_max":803,"o":"m 82 0 l 243 1014 l 539 1014 q 690 978 629 1014 q 776 879 750 943 q 789 729 803 815 q 738 593 778 653 q 638 497 699 533 q 500 450 576 460 l 510 493 l 681 0 l 578 0 l 431 447 l 244 447 l 174 0 l 82 0 m 257 529 l 461 529 q 618 585 554 529 q 696 731 682 640 q 664 876 711 822 q 525 931 617 931 l 321 931 l 257 529 m 171 -333 l 331 -132 l 443 -132 l 265 -333 l 171 -333 z "},"S":{"ha":833,"x_min":72,"x_max":788,"o":"m 360 -14 q 144 60 215 -14 q 90 260 72 133 l 182 260 q 221 120 169 172 q 374 68 272 68 q 533 117 471 68 q 610 251 596 165 q 590 383 621 329 q 490 457 558 436 l 371 494 q 230 598 275 525 q 200 769 185 671 q 256 906 213 849 q 369 996 300 964 q 526 1028 439 1028 q 722 956 657 1028 q 768 760 788 883 l 676 760 q 646 896 690 846 q 513 946 601 946 q 363 901 422 946 q 292 776 304 857 q 312 651 282 704 q 407 578 342 599 l 526 539 q 672 431 625 508 q 703 256 718 354 q 643 113 690 174 q 523 19 596 53 q 360 -14 450 -14 z "},"Ś":{"ha":833,"x_min":72,"x_max":788,"o":"m 360 -14 q 144 60 215 -14 q 90 260 72 133 l 182 260 q 221 120 169 172 q 374 68 272 68 q 533 117 471 68 q 610 251 596 165 q 590 383 621 329 q 490 457 558 436 l 371 494 q 230 598 275 525 q 200 769 185 671 q 256 906 213 849 q 369 996 300 964 q 526 1028 439 1028 q 722 956 657 1028 q 768 760 788 883 l 676 760 q 646 896 690 846 q 513 946 601 946 q 363 901 422 946 q 292 776 304 857 q 312 651 282 704 q 407 578 342 599 l 526 539 q 672 431 625 508 q 703 256 718 354 q 643 113 690 174 q 523 19 596 53 q 360 -14 450 -14 m 468 1125 l 646 1319 l 754 1319 l 569 1125 l 468 1125 z "},"Š":{"ha":833,"x_min":72,"x_max":789,"o":"m 360 -14 q 144 60 215 -14 q 90 260 72 133 l 182 260 q 221 120 169 172 q 374 68 272 68 q 533 117 471 68 q 610 251 596 165 q 590 383 621 329 q 490 457 558 436 l 371 494 q 230 598 275 525 q 200 769 185 671 q 256 906 213 849 q 369 996 300 964 q 526 1028 439 1028 q 722 956 657 1028 q 768 760 788 883 l 676 760 q 646 896 690 846 q 513 946 601 946 q 363 901 422 946 q 292 776 304 857 q 312 651 282 704 q 407 578 342 599 l 526 539 q 672 431 625 508 q 703 256 718 354 q 643 113 690 174 q 523 19 596 53 q 360 -14 450 -14 m 486 1125 l 339 1319 l 433 1319 l 542 1185 l 690 1319 l 789 1319 l 582 1125 l 486 1125 z "},"Ş":{"ha":833,"x_min":72,"x_max":788,"o":"m 206 -275 l 215 -215 l 321 -215 q 375 -198 353 -215 q 400 -161 397 -181 q 367 -111 406 -131 q 256 -92 328 -92 l 324 36 l 390 36 l 347 -47 q 415 -63 381 -50 q 472 -101 450 -76 q 486 -165 493 -126 q 433 -243 481 -211 q 319 -275 386 -275 l 206 -275 m 360 -14 q 144 60 215 -14 q 90 260 72 133 l 182 260 q 221 120 169 172 q 374 68 272 68 q 533 117 471 68 q 610 251 596 165 q 590 383 621 329 q 490 457 558 436 l 371 494 q 230 598 275 525 q 200 769 185 671 q 256 906 213 849 q 369 996 300 964 q 526 1028 439 1028 q 722 956 657 1028 q 768 760 788 883 l 676 760 q 646 896 690 846 q 513 946 601 946 q 363 901 422 946 q 292 776 304 857 q 312 651 282 704 q 407 578 342 599 l 526 539 q 672 431 625 508 q 703 256 718 354 q 643 113 690 174 q 523 19 596 53 q 360 -14 450 -14 z "},"Ŝ":{"ha":833,"x_min":72,"x_max":788,"o":"m 360 -14 q 144 60 215 -14 q 90 260 72 133 l 182 260 q 221 120 169 172 q 374 68 272 68 q 533 117 471 68 q 610 251 596 165 q 590 383 621 329 q 490 457 558 436 l 371 494 q 230 598 275 525 q 200 769 185 671 q 256 906 213 849 q 369 996 300 964 q 526 1028 439 1028 q 722 956 657 1028 q 768 760 788 883 l 676 760 q 646 896 690 846 q 513 946 601 946 q 363 901 422 946 q 292 776 304 857 q 312 651 282 704 q 407 578 342 599 l 526 539 q 672 431 625 508 q 703 256 718 354 q 643 113 690 174 q 523 19 596 53 q 360 -14 450 -14 m 308 1125 l 515 1319 l 611 1319 l 758 1125 l 665 1125 l 558 1260 l 410 1125 l 308 1125 z "},"Ș":{"ha":833,"x_min":72,"x_max":788,"o":"m 360 -14 q 144 60 215 -14 q 90 260 72 133 l 182 260 q 221 120 169 172 q 374 68 272 68 q 533 117 471 68 q 610 251 596 165 q 590 383 621 329 q 490 457 558 436 l 371 494 q 230 598 275 525 q 200 769 185 671 q 256 906 213 849 q 369 996 300 964 q 526 1028 439 1028 q 722 956 657 1028 q 768 760 788 883 l 676 760 q 646 896 690 846 q 513 946 601 946 q 363 901 422 946 q 292 776 304 857 q 312 651 282 704 q 407 578 342 599 l 526 539 q 672 431 625 508 q 703 256 718 354 q 643 113 690 174 q 523 19 596 53 q 360 -14 450 -14 m 171 -333 l 331 -132 l 443 -132 l 265 -333 l 171 -333 z "},"ẞ":{"ha":833,"x_min":82,"x_max":825,"o":"m 82 0 l 200 743 q 257 886 213 825 q 369 981 301 947 q 522 1014 438 1014 l 825 1014 l 810 926 l 481 550 l 482 574 q 674 499 610 575 q 718 294 739 422 q 658 140 704 206 q 539 37 611 74 q 378 0 467 0 l 289 0 l 301 83 l 385 83 q 544 140 479 83 q 624 293 608 197 q 592 443 639 388 q 451 499 546 499 l 393 499 l 406 578 l 711 931 l 508 931 q 364 881 422 931 q 292 743 306 831 l 174 0 l 82 0 z "},"Ə":{"ha":833,"x_min":106,"x_max":774,"o":"m 351 -14 q 209 22 265 -14 q 129 121 153 57 q 119 269 106 185 l 161 538 l 628 538 l 661 744 q 636 892 676 839 q 504 946 596 946 q 357 890 414 946 q 285 736 300 835 l 193 736 q 250 890 207 825 q 361 992 293 956 q 517 1028 429 1028 q 712 951 650 1028 q 753 744 774 875 l 678 269 q 620 121 664 185 q 508 22 576 57 q 351 -14 439 -14 m 364 64 q 515 118 458 64 q 586 269 571 172 l 617 463 l 228 463 l 243 475 l 211 269 q 235 119 196 174 q 364 64 274 64 z "},"T":{"ha":833,"x_min":167,"x_max":853,"o":"m 311 0 l 458 931 l 167 931 l 181 1014 l 853 1014 l 839 931 l 550 931 l 403 0 l 311 0 z "},"Ŧ":{"ha":833,"x_min":167,"x_max":853,"o":"m 168 422 l 181 501 l 692 501 l 679 422 l 168 422 m 311 0 l 458 931 l 167 931 l 181 1014 l 853 1014 l 839 931 l 550 931 l 403 0 l 311 0 z "},"Ť":{"ha":833,"x_min":167,"x_max":853,"o":"m 311 0 l 458 931 l 167 931 l 181 1014 l 853 1014 l 839 931 l 550 931 l 403 0 l 311 0 m 486 1125 l 339 1319 l 433 1319 l 542 1185 l 690 1319 l 789 1319 l 582 1125 l 486 1125 z "},"Ţ":{"ha":833,"x_min":167,"x_max":853,"o":"m 236 -275 l 246 -215 l 351 -215 q 406 -198 383 -215 q 431 -161 428 -181 q 397 -111 436 -131 q 286 -92 358 -92 l 354 36 l 403 0 l 376 -47 q 446 -63 411 -50 q 502 -101 481 -76 q 517 -165 524 -126 q 463 -243 510 -211 q 350 -275 417 -275 l 236 -275 m 311 0 l 458 931 l 167 931 l 181 1014 l 853 1014 l 839 931 l 550 931 l 403 0 l 311 0 z "},"Ț":{"ha":833,"x_min":122,"x_max":853,"o":"m 311 0 l 458 931 l 167 931 l 181 1014 l 853 1014 l 839 931 l 550 931 l 403 0 l 311 0 m 122 -333 l 282 -132 l 394 -132 l 217 -333 l 122 -333 z "},"U":{"ha":833,"x_min":101,"x_max":793,"o":"m 354 -14 q 163 63 224 -14 q 122 269 101 140 l 240 1014 l 332 1014 l 214 269 q 238 122 199 175 q 368 68 278 68 q 513 122 457 68 q 583 269 568 175 l 701 1014 l 793 1014 l 675 269 q 619 119 663 183 q 508 21 575 56 q 354 -14 440 -14 z "},"Ú":{"ha":833,"x_min":101,"x_max":793,"o":"m 354 -14 q 163 63 224 -14 q 122 269 101 140 l 240 1014 l 332 1014 l 214 269 q 238 122 199 175 q 368 68 278 68 q 513 122 457 68 q 583 269 568 175 l 701 1014 l 793 1014 l 675 269 q 619 119 663 183 q 508 21 575 56 q 354 -14 440 -14 m 468 1125 l 646 1319 l 754 1319 l 569 1125 l 468 1125 z "},"Ŭ":{"ha":833,"x_min":101,"x_max":793,"o":"m 354 -14 q 163 63 224 -14 q 122 269 101 140 l 240 1014 l 332 1014 l 214 269 q 238 122 199 175 q 368 68 278 68 q 513 122 457 68 q 583 269 568 175 l 701 1014 l 793 1014 l 675 269 q 619 119 663 183 q 508 21 575 56 q 354 -14 440 -14 m 533 1121 q 389 1175 438 1121 q 354 1319 340 1229 l 431 1319 q 451 1222 421 1258 q 542 1186 481 1186 q 645 1222 603 1186 q 696 1319 688 1258 l 774 1319 q 694 1175 760 1229 q 533 1121 629 1121 z "},"Û":{"ha":833,"x_min":101,"x_max":793,"o":"m 354 -14 q 163 63 224 -14 q 122 269 101 140 l 240 1014 l 332 1014 l 214 269 q 238 122 199 175 q 368 68 278 68 q 513 122 457 68 q 583 269 568 175 l 701 1014 l 793 1014 l 675 269 q 619 119 663 183 q 508 21 575 56 q 354 -14 440 -14 m 308 1125 l 515 1319 l 611 1319 l 758 1125 l 665 1125 l 558 1260 l 410 1125 l 308 1125 z "},"Ü":{"ha":833,"x_min":101,"x_max":793,"o":"m 354 -14 q 163 63 224 -14 q 122 269 101 140 l 240 1014 l 332 1014 l 214 269 q 238 122 199 175 q 368 68 278 68 q 513 122 457 68 q 583 269 568 175 l 701 1014 l 793 1014 l 675 269 q 619 119 663 183 q 508 21 575 56 q 354 -14 440 -14 m 689 1142 q 635 1163 653 1142 q 622 1222 617 1185 q 654 1282 629 1260 q 715 1304 679 1304 q 768 1282 750 1304 q 779 1222 786 1260 q 749 1163 774 1185 q 689 1142 725 1142 m 388 1142 q 333 1163 351 1142 q 321 1222 315 1185 q 353 1282 328 1260 q 413 1304 378 1304 q 467 1282 449 1304 q 478 1222 485 1260 q 447 1163 472 1185 q 388 1142 422 1142 z "},"Ụ":{"ha":833,"x_min":101,"x_max":793,"o":"m 354 -14 q 163 63 224 -14 q 122 269 101 140 l 240 1014 l 332 1014 l 214 269 q 238 122 199 175 q 368 68 278 68 q 513 122 457 68 q 583 269 568 175 l 701 1014 l 793 1014 l 675 269 q 619 119 663 183 q 508 21 575 56 q 354 -14 440 -14 m 310 -289 q 249 -267 269 -289 q 235 -208 229 -246 q 268 -149 240 -171 q 336 -126 296 -126 q 397 -149 376 -126 q 410 -208 417 -171 q 377 -267 404 -246 q 310 -289 350 -289 z "},"Ù":{"ha":833,"x_min":101,"x_max":793,"o":"m 354 -14 q 163 63 224 -14 q 122 269 101 140 l 240 1014 l 332 1014 l 214 269 q 238 122 199 175 q 368 68 278 68 q 513 122 457 68 q 583 269 568 175 l 701 1014 l 793 1014 l 675 269 q 619 119 663 183 q 508 21 575 56 q 354 -14 440 -14 m 503 1125 l 376 1319 l 478 1319 l 596 1125 l 503 1125 z "},"Ủ":{"ha":833,"x_min":101,"x_max":793,"o":"m 354 -14 q 163 63 224 -14 q 122 269 101 140 l 240 1014 l 332 1014 l 214 269 q 238 122 199 175 q 368 68 278 68 q 513 122 457 68 q 583 269 568 175 l 701 1014 l 793 1014 l 675 269 q 619 119 663 183 q 508 21 575 56 q 354 -14 440 -14 m 481 1111 l 571 1210 q 591 1236 582 1224 q 601 1257 600 1249 q 561 1292 607 1292 l 444 1292 l 456 1357 l 586 1357 q 664 1333 638 1357 q 683 1267 690 1308 q 671 1229 681 1249 q 647 1193 661 1210 l 575 1111 l 481 1111 z "},"Ư":{"ha":833,"x_min":101,"x_max":965,"o":"m 700 949 l 711 1014 l 810 1014 q 853 1031 836 1014 q 876 1075 871 1047 l 890 1167 l 965 1167 l 950 1072 q 901 983 942 1017 q 801 949 860 949 l 700 949 m 354 -14 q 163 63 224 -14 q 122 269 101 140 l 240 1014 l 332 1014 l 214 269 q 238 122 199 175 q 368 68 278 68 q 513 122 457 68 q 583 269 568 175 l 701 1014 l 793 1014 l 675 269 q 619 119 663 183 q 508 21 575 56 q 354 -14 440 -14 z "},"Ứ":{"ha":833,"x_min":101,"x_max":965,"o":"m 700 949 l 711 1014 l 810 1014 q 853 1031 836 1014 q 876 1075 871 1047 l 890 1167 l 965 1167 l 950 1072 q 901 983 942 1017 q 801 949 860 949 l 700 949 m 354 -14 q 163 63 224 -14 q 122 269 101 140 l 240 1014 l 332 1014 l 214 269 q 238 122 199 175 q 368 68 278 68 q 513 122 457 68 q 583 269 568 175 l 701 1014 l 793 1014 l 675 269 q 619 119 663 183 q 508 21 575 56 q 354 -14 440 -14 m 458 1125 l 636 1319 l 744 1319 l 560 1125 l 458 1125 z "},"Ự":{"ha":833,"x_min":101,"x_max":965,"o":"m 324 -289 q 263 -267 283 -289 q 249 -208 243 -246 q 282 -149 254 -171 q 350 -126 310 -126 q 410 -149 390 -126 q 424 -208 431 -171 q 391 -267 418 -246 q 324 -289 364 -289 m 700 949 l 711 1014 l 810 1014 q 853 1031 836 1014 q 876 1075 871 1047 l 890 1167 l 965 1167 l 950 1072 q 901 983 942 1017 q 801 949 860 949 l 700 949 m 354 -14 q 163 63 224 -14 q 122 269 101 140 l 240 1014 l 332 1014 l 214 269 q 238 122 199 175 q 368 68 278 68 q 513 122 457 68 q 583 269 568 175 l 701 1014 l 793 1014 l 675 269 q 619 119 663 183 q 508 21 575 56 q 354 -14 440 -14 z "},"Ừ":{"ha":833,"x_min":101,"x_max":965,"o":"m 700 949 l 711 1014 l 810 1014 q 853 1031 836 1014 q 876 1075 871 1047 l 890 1167 l 965 1167 l 950 1072 q 901 983 942 1017 q 801 949 860 949 l 700 949 m 354 -14 q 163 63 224 -14 q 122 269 101 140 l 240 1014 l 332 1014 l 214 269 q 238 122 199 175 q 368 68 278 68 q 513 122 457 68 q 583 269 568 175 l 701 1014 l 793 1014 l 675 269 q 619 119 663 183 q 508 21 575 56 q 354 -14 440 -14 m 493 1125 l 367 1319 l 468 1319 l 586 1125 l 493 1125 z "},"Ử":{"ha":833,"x_min":101,"x_max":965,"o":"m 700 949 l 711 1014 l 810 1014 q 853 1031 836 1014 q 876 1075 871 1047 l 890 1167 l 965 1167 l 950 1072 q 901 983 942 1017 q 801 949 860 949 l 700 949 m 354 -14 q 163 63 224 -14 q 122 269 101 140 l 240 1014 l 332 1014 l 214 269 q 238 122 199 175 q 368 68 278 68 q 513 122 457 68 q 583 269 568 175 l 701 1014 l 793 1014 l 675 269 q 619 119 663 183 q 508 21 575 56 q 354 -14 440 -14 m 481 1111 l 571 1210 q 591 1236 582 1224 q 601 1257 600 1249 q 561 1292 607 1292 l 444 1292 l 456 1357 l 586 1357 q 664 1333 638 1357 q 683 1267 690 1308 q 671 1229 681 1249 q 647 1193 661 1210 l 575 1111 l 481 1111 z "},"Ữ":{"ha":833,"x_min":101,"x_max":965,"o":"m 700 949 l 711 1014 l 810 1014 q 853 1031 836 1014 q 876 1075 871 1047 l 890 1167 l 965 1167 l 950 1072 q 901 983 942 1017 q 801 949 860 949 l 700 949 m 354 -14 q 163 63 224 -14 q 122 269 101 140 l 240 1014 l 332 1014 l 214 269 q 238 122 199 175 q 368 68 278 68 q 513 122 457 68 q 583 269 568 175 l 701 1014 l 793 1014 l 675 269 q 619 119 663 183 q 508 21 575 56 q 354 -14 440 -14 m 626 1132 q 563 1149 586 1132 q 522 1190 539 1167 q 489 1230 506 1213 q 449 1247 472 1247 q 403 1231 422 1247 q 381 1185 385 1214 l 374 1139 l 304 1139 l 311 1185 q 360 1278 321 1244 q 457 1313 400 1313 q 521 1295 497 1313 q 561 1255 544 1278 q 594 1215 578 1232 q 635 1197 610 1197 q 676 1214 660 1197 q 697 1260 693 1231 l 706 1306 l 775 1306 l 767 1260 q 719 1166 757 1200 q 626 1132 682 1132 z "},"Ű":{"ha":833,"x_min":101,"x_max":860,"o":"m 354 -14 q 163 63 224 -14 q 122 269 101 140 l 240 1014 l 332 1014 l 214 269 q 238 122 199 175 q 368 68 278 68 q 513 122 457 68 q 583 269 568 175 l 701 1014 l 793 1014 l 675 269 q 619 119 663 183 q 508 21 575 56 q 354 -14 440 -14 m 575 1125 l 756 1319 l 860 1319 l 672 1125 l 575 1125 m 342 1125 l 522 1319 l 626 1319 l 439 1125 l 342 1125 z "},"Ū":{"ha":833,"x_min":101,"x_max":793,"o":"m 354 -14 q 163 63 224 -14 q 122 269 101 140 l 240 1014 l 332 1014 l 214 269 q 238 122 199 175 q 368 68 278 68 q 513 122 457 68 q 583 269 568 175 l 701 1014 l 793 1014 l 675 269 q 619 119 663 183 q 508 21 575 56 q 354 -14 440 -14 m 336 1178 l 349 1256 l 760 1256 l 747 1178 l 336 1178 z "},"Ų":{"ha":833,"x_min":108,"x_max":793,"o":"m 414 -275 q 315 -242 349 -275 q 290 -157 282 -210 q 308 -110 294 -135 q 343 -59 321 -85 q 394 -11 365 -33 q 374 -13 386 -12 q 353 -14 361 -14 q 211 20 268 -14 q 131 118 154 54 q 122 269 108 182 l 240 1014 l 332 1014 l 214 269 q 237 121 197 174 q 365 68 276 68 q 512 121 456 68 q 583 269 568 174 l 701 1014 l 793 1014 l 675 269 q 620 121 661 183 q 513 22 579 58 l 485 3 q 411 -72 438 -35 q 379 -137 385 -108 q 392 -188 375 -169 q 442 -207 408 -207 l 528 -207 l 518 -275 l 414 -275 z "},"Ů":{"ha":833,"x_min":101,"x_max":793,"o":"m 354 -14 q 163 63 224 -14 q 122 269 101 140 l 240 1014 l 332 1014 l 214 269 q 238 122 199 175 q 368 68 278 68 q 513 122 457 68 q 583 269 568 175 l 701 1014 l 793 1014 l 675 269 q 619 119 663 183 q 508 21 575 56 q 354 -14 440 -14 m 526 1075 q 422 1116 458 1075 q 394 1222 385 1157 q 454 1328 406 1288 q 572 1369 503 1369 q 678 1328 642 1369 q 703 1222 714 1288 q 644 1116 693 1157 q 526 1075 596 1075 m 535 1135 q 603 1158 575 1135 q 636 1222 631 1182 q 623 1287 643 1263 q 564 1311 603 1311 q 496 1287 524 1311 q 461 1222 468 1263 q 476 1158 456 1182 q 535 1135 496 1135 z "},"Ũ":{"ha":833,"x_min":101,"x_max":793,"o":"m 354 -14 q 163 63 224 -14 q 122 269 101 140 l 240 1014 l 332 1014 l 214 269 q 238 122 199 175 q 368 68 278 68 q 513 122 457 68 q 583 269 568 175 l 701 1014 l 793 1014 l 675 269 q 619 119 663 183 q 508 21 575 56 q 354 -14 440 -14 m 636 1132 q 572 1149 596 1132 q 532 1190 549 1167 q 499 1230 515 1213 q 458 1247 482 1247 q 413 1231 432 1247 q 390 1185 394 1214 l 383 1139 l 314 1139 l 321 1185 q 370 1278 331 1244 q 467 1313 410 1313 q 531 1295 507 1313 q 571 1255 554 1278 q 603 1215 588 1232 q 644 1197 619 1197 q 686 1214 669 1197 q 707 1260 703 1231 l 715 1306 l 785 1306 l 776 1260 q 729 1166 767 1200 q 636 1132 692 1132 z "},"V":{"ha":833,"x_min":185,"x_max":849,"o":"m 294 0 l 185 1014 l 276 1014 l 353 281 q 363 158 360 215 q 367 72 367 101 q 397 158 376 101 q 444 281 418 215 l 754 1014 l 849 1014 l 417 0 l 294 0 z "},"W":{"ha":833,"x_min":108,"x_max":886,"o":"m 108 0 l 147 1014 l 231 1014 l 199 264 q 195 200 197 236 q 191 128 193 164 q 188 65 189 92 q 206 128 196 92 q 226 200 215 164 q 244 264 236 236 l 465 1014 l 571 1014 l 549 264 q 547 200 547 236 q 544 128 546 164 q 542 65 543 92 q 560 128 550 92 q 579 200 569 164 q 597 264 589 236 l 800 1014 l 886 1014 l 601 0 l 479 0 l 501 747 q 504 819 503 782 q 507 890 506 856 q 508 946 508 924 q 493 890 503 924 q 472 819 483 856 q 451 747 461 782 l 229 0 l 108 0 z "},"Ẃ":{"ha":833,"x_min":108,"x_max":886,"o":"m 108 0 l 147 1014 l 231 1014 l 199 264 q 195 200 197 236 q 191 128 193 164 q 188 65 189 92 q 206 128 196 92 q 226 200 215 164 q 244 264 236 236 l 465 1014 l 571 1014 l 549 264 q 547 200 547 236 q 544 128 546 164 q 542 65 543 92 q 560 128 550 92 q 579 200 569 164 q 597 264 589 236 l 800 1014 l 886 1014 l 601 0 l 479 0 l 501 747 q 504 819 503 782 q 507 890 506 856 q 508 946 508 924 q 493 890 503 924 q 472 819 483 856 q 451 747 461 782 l 229 0 l 108 0 m 468 1125 l 646 1319 l 754 1319 l 569 1125 l 468 1125 z "},"Ŵ":{"ha":833,"x_min":108,"x_max":886,"o":"m 108 0 l 147 1014 l 231 1014 l 199 264 q 195 200 197 236 q 191 128 193 164 q 188 65 189 92 q 206 128 196 92 q 226 200 215 164 q 244 264 236 236 l 465 1014 l 571 1014 l 549 264 q 547 200 547 236 q 544 128 546 164 q 542 65 543 92 q 560 128 550 92 q 579 200 569 164 q 597 264 589 236 l 800 1014 l 886 1014 l 601 0 l 479 0 l 501 747 q 504 819 503 782 q 507 890 506 856 q 508 946 508 924 q 493 890 503 924 q 472 819 483 856 q 451 747 461 782 l 229 0 l 108 0 m 308 1125 l 515 1319 l 611 1319 l 758 1125 l 665 1125 l 558 1260 l 410 1125 l 308 1125 z "},"Ẅ":{"ha":833,"x_min":108,"x_max":886,"o":"m 108 0 l 147 1014 l 231 1014 l 199 264 q 195 200 197 236 q 191 128 193 164 q 188 65 189 92 q 206 128 196 92 q 226 200 215 164 q 244 264 236 236 l 465 1014 l 571 1014 l 549 264 q 547 200 547 236 q 544 128 546 164 q 542 65 543 92 q 560 128 550 92 q 579 200 569 164 q 597 264 589 236 l 800 1014 l 886 1014 l 601 0 l 479 0 l 501 747 q 504 819 503 782 q 507 890 506 856 q 508 946 508 924 q 493 890 503 924 q 472 819 483 856 q 451 747 461 782 l 229 0 l 108 0 m 689 1142 q 635 1163 653 1142 q 622 1222 617 1185 q 654 1282 629 1260 q 715 1304 679 1304 q 768 1282 750 1304 q 779 1222 786 1260 q 749 1163 774 1185 q 689 1142 725 1142 m 388 1142 q 333 1163 351 1142 q 321 1222 315 1185 q 353 1282 328 1260 q 413 1304 378 1304 q 467 1282 449 1304 q 478 1222 485 1260 q 447 1163 472 1185 q 388 1142 422 1142 z "},"Ẁ":{"ha":833,"x_min":108,"x_max":886,"o":"m 108 0 l 147 1014 l 231 1014 l 199 264 q 195 200 197 236 q 191 128 193 164 q 188 65 189 92 q 206 128 196 92 q 226 200 215 164 q 244 264 236 236 l 465 1014 l 571 1014 l 549 264 q 547 200 547 236 q 544 128 546 164 q 542 65 543 92 q 560 128 550 92 q 579 200 569 164 q 597 264 589 236 l 800 1014 l 886 1014 l 601 0 l 479 0 l 501 747 q 504 819 503 782 q 507 890 506 856 q 508 946 508 924 q 493 890 503 924 q 472 819 483 856 q 451 747 461 782 l 229 0 l 108 0 m 503 1125 l 376 1319 l 478 1319 l 596 1125 l 503 1125 z "},"X":{"ha":833,"x_min":6,"x_max":849,"o":"m 6 0 l 386 524 l 185 1014 l 286 1014 l 401 708 q 424 651 410 685 q 449 594 439 618 q 488 651 465 618 q 528 708 511 685 l 744 1014 l 849 1014 l 492 525 l 706 0 l 606 0 l 476 339 q 453 395 468 361 q 431 453 439 429 q 389 396 413 429 q 350 339 365 363 l 111 0 l 6 0 z "},"Y":{"ha":833,"x_min":161,"x_max":872,"o":"m 310 0 l 371 385 l 161 1014 l 253 1014 l 400 572 q 419 515 411 540 q 429 476 426 489 q 452 514 438 488 q 488 572 467 540 l 775 1014 l 872 1014 l 463 385 l 401 0 l 310 0 z "},"Ý":{"ha":833,"x_min":161,"x_max":872,"o":"m 310 0 l 371 385 l 161 1014 l 253 1014 l 400 572 q 419 515 411 540 q 429 476 426 489 q 452 514 438 488 q 488 572 467 540 l 775 1014 l 872 1014 l 463 385 l 401 0 l 310 0 m 468 1125 l 646 1319 l 754 1319 l 569 1125 l 468 1125 z "},"Ŷ":{"ha":833,"x_min":161,"x_max":872,"o":"m 310 0 l 371 385 l 161 1014 l 253 1014 l 400 572 q 419 515 411 540 q 429 476 426 489 q 452 514 438 488 q 488 572 467 540 l 775 1014 l 872 1014 l 463 385 l 401 0 l 310 0 m 308 1125 l 515 1319 l 611 1319 l 758 1125 l 665 1125 l 558 1260 l 410 1125 l 308 1125 z "},"Ÿ":{"ha":833,"x_min":161,"x_max":872,"o":"m 310 0 l 371 385 l 161 1014 l 253 1014 l 400 572 q 419 515 411 540 q 429 476 426 489 q 452 514 438 488 q 488 572 467 540 l 775 1014 l 872 1014 l 463 385 l 401 0 l 310 0 m 689 1142 q 635 1163 653 1142 q 622 1222 617 1185 q 654 1282 629 1260 q 715 1304 679 1304 q 768 1282 750 1304 q 779 1222 786 1260 q 749 1163 774 1185 q 689 1142 725 1142 m 388 1142 q 333 1163 351 1142 q 321 1222 315 1185 q 353 1282 328 1260 q 413 1304 378 1304 q 467 1282 449 1304 q 478 1222 485 1260 q 447 1163 472 1185 q 388 1142 422 1142 z "},"Ỵ":{"ha":833,"x_min":161,"x_max":872,"o":"m 310 0 l 371 385 l 161 1014 l 253 1014 l 400 572 q 419 515 411 540 q 429 476 426 489 q 452 514 438 488 q 488 572 467 540 l 775 1014 l 872 1014 l 463 385 l 401 0 l 310 0 m 324 -289 q 263 -267 283 -289 q 249 -208 243 -246 q 282 -149 254 -171 q 350 -126 310 -126 q 410 -149 390 -126 q 424 -208 431 -171 q 391 -267 418 -246 q 324 -289 364 -289 z "},"Ỳ":{"ha":833,"x_min":161,"x_max":872,"o":"m 310 0 l 371 385 l 161 1014 l 253 1014 l 400 572 q 419 515 411 540 q 429 476 426 489 q 452 514 438 488 q 488 572 467 540 l 775 1014 l 872 1014 l 463 385 l 401 0 l 310 0 m 503 1125 l 376 1319 l 478 1319 l 596 1125 l 503 1125 z "},"Ỷ":{"ha":833,"x_min":161,"x_max":872,"o":"m 310 0 l 371 385 l 161 1014 l 253 1014 l 400 572 q 419 515 411 540 q 429 476 426 489 q 452 514 438 488 q 488 572 467 540 l 775 1014 l 872 1014 l 463 385 l 401 0 l 310 0 m 481 1111 l 571 1210 q 591 1236 582 1224 q 601 1257 600 1249 q 561 1292 607 1292 l 444 1292 l 456 1357 l 586 1357 q 664 1333 638 1357 q 683 1267 690 1308 q 671 1229 681 1249 q 647 1193 661 1210 l 575 1111 l 481 1111 z "},"Ȳ":{"ha":833,"x_min":161,"x_max":872,"o":"m 310 0 l 371 385 l 161 1014 l 253 1014 l 400 572 q 419 515 411 540 q 429 476 426 489 q 452 514 438 488 q 488 572 467 540 l 775 1014 l 872 1014 l 463 385 l 401 0 l 310 0 m 336 1178 l 349 1256 l 760 1256 l 747 1178 l 336 1178 z "},"Ỹ":{"ha":833,"x_min":161,"x_max":872,"o":"m 310 0 l 371 385 l 161 1014 l 253 1014 l 400 572 q 419 515 411 540 q 429 476 426 489 q 452 514 438 488 q 488 572 467 540 l 775 1014 l 872 1014 l 463 385 l 401 0 l 310 0 m 636 1132 q 572 1149 596 1132 q 532 1190 549 1167 q 499 1230 515 1213 q 458 1247 482 1247 q 413 1231 432 1247 q 390 1185 394 1214 l 383 1139 l 314 1139 l 321 1185 q 370 1278 331 1244 q 467 1313 410 1313 q 531 1295 507 1313 q 571 1255 554 1278 q 603 1215 588 1232 q 644 1197 619 1197 q 686 1214 669 1197 q 707 1260 703 1231 l 715 1306 l 785 1306 l 776 1260 q 729 1166 767 1200 q 636 1132 692 1132 z "},"Z":{"ha":833,"x_min":63,"x_max":793,"o":"m 63 0 l 76 92 l 685 931 l 215 931 l 229 1014 l 793 1014 l 778 917 l 172 83 l 661 83 l 649 0 l 63 0 z "},"Ź":{"ha":833,"x_min":63,"x_max":793,"o":"m 63 0 l 76 92 l 685 931 l 215 931 l 229 1014 l 793 1014 l 778 917 l 172 83 l 661 83 l 649 0 l 63 0 m 468 1125 l 646 1319 l 754 1319 l 569 1125 l 468 1125 z "},"Ž":{"ha":833,"x_min":63,"x_max":793,"o":"m 63 0 l 76 92 l 685 931 l 215 931 l 229 1014 l 793 1014 l 778 917 l 172 83 l 661 83 l 649 0 l 63 0 m 486 1125 l 339 1319 l 433 1319 l 542 1185 l 690 1319 l 789 1319 l 582 1125 l 486 1125 z "},"Ż":{"ha":833,"x_min":63,"x_max":793,"o":"m 63 0 l 76 92 l 685 931 l 215 931 l 229 1014 l 793 1014 l 778 917 l 172 83 l 661 83 l 649 0 l 63 0 m 536 1140 q 476 1163 496 1140 q 461 1222 456 1185 q 495 1282 468 1260 q 563 1304 522 1304 q 623 1282 603 1304 q 636 1222 643 1260 q 603 1163 631 1185 q 536 1140 576 1140 z "},"a":{"ha":833,"x_min":99,"x_max":751,"o":"m 325 -14 q 155 62 211 -14 q 118 265 99 138 l 154 497 q 209 646 168 583 q 313 743 250 708 q 451 778 375 778 q 601 723 549 778 q 638 578 653 668 l 615 643 l 640 643 l 660 764 l 751 764 l 631 0 l 539 0 l 558 121 l 525 121 l 576 186 q 492 40 563 94 q 325 -14 422 -14 m 363 65 q 508 119 450 65 q 581 268 567 174 l 617 494 q 592 644 632 590 q 463 699 551 699 q 318 645 375 699 q 246 494 261 592 l 210 268 q 235 119 196 172 q 363 65 275 65 z "},"á":{"ha":833,"x_min":99,"x_max":751,"o":"m 325 -14 q 155 62 211 -14 q 118 265 99 138 l 154 497 q 209 646 168 583 q 313 743 250 708 q 451 778 375 778 q 601 723 549 778 q 638 578 653 668 l 615 643 l 640 643 l 660 764 l 751 764 l 631 0 l 539 0 l 558 121 l 525 121 l 576 186 q 492 40 563 94 q 325 -14 422 -14 m 363 65 q 508 119 450 65 q 581 268 567 174 l 617 494 q 592 644 632 590 q 463 699 551 699 q 318 645 375 699 q 246 494 261 592 l 210 268 q 235 119 196 172 q 363 65 275 65 m 447 896 l 625 1090 l 733 1090 l 549 896 l 447 896 z "},"ă":{"ha":833,"x_min":99,"x_max":751,"o":"m 325 -14 q 155 62 211 -14 q 118 265 99 138 l 154 497 q 209 646 168 583 q 313 743 250 708 q 451 778 375 778 q 601 723 549 778 q 638 578 653 668 l 615 643 l 640 643 l 660 764 l 751 764 l 631 0 l 539 0 l 558 121 l 525 121 l 576 186 q 492 40 563 94 q 325 -14 422 -14 m 363 65 q 508 119 450 65 q 581 268 567 174 l 617 494 q 592 644 632 590 q 463 699 551 699 q 318 645 375 699 q 246 494 261 592 l 210 268 q 235 119 196 172 q 363 65 275 65 m 504 892 q 360 946 408 892 q 325 1090 311 1000 l 401 1090 q 422 993 392 1029 q 513 957 451 957 q 616 993 574 957 q 667 1090 658 1029 l 744 1090 q 665 946 731 1000 q 504 892 600 892 z "},"ắ":{"ha":833,"x_min":99,"x_max":751,"o":"m 325 -14 q 155 62 211 -14 q 118 265 99 138 l 154 497 q 209 646 168 583 q 313 743 250 708 q 451 778 375 778 q 601 723 549 778 q 638 578 653 668 l 615 643 l 640 643 l 660 764 l 751 764 l 631 0 l 539 0 l 558 121 l 525 121 l 576 186 q 492 40 563 94 q 325 -14 422 -14 m 363 65 q 508 119 450 65 q 581 268 567 174 l 617 494 q 592 644 632 590 q 463 699 551 699 q 318 645 375 699 q 246 494 261 592 l 210 268 q 235 119 196 172 q 363 65 275 65 m 497 893 q 347 942 400 893 q 306 1069 293 990 l 381 1069 q 407 990 372 1019 q 506 960 442 960 q 615 990 571 960 q 667 1069 658 1019 l 744 1069 q 702 977 736 1017 q 615 915 668 938 q 497 893 563 893 m 450 1056 l 635 1236 l 743 1236 l 547 1056 l 450 1056 z "},"ặ":{"ha":833,"x_min":99,"x_max":751,"o":"m 504 892 q 360 946 408 892 q 325 1090 311 1000 l 401 1090 q 422 993 392 1029 q 513 957 451 957 q 616 993 574 957 q 667 1090 658 1029 l 744 1090 q 665 946 731 1000 q 504 892 600 892 m 325 -14 q 155 62 211 -14 q 118 265 99 138 l 154 497 q 209 646 168 583 q 313 743 250 708 q 451 778 375 778 q 601 723 549 778 q 638 578 653 668 l 615 643 l 640 643 l 660 764 l 751 764 l 631 0 l 539 0 l 558 121 l 525 121 l 576 186 q 492 40 563 94 q 325 -14 422 -14 m 363 65 q 508 119 450 65 q 581 268 567 174 l 617 494 q 592 644 632 590 q 463 699 551 699 q 318 645 375 699 q 246 494 261 592 l 210 268 q 235 119 196 172 q 363 65 275 65 m 317 -289 q 256 -267 276 -289 q 242 -208 236 -246 q 275 -149 247 -171 q 343 -126 303 -126 q 403 -149 383 -126 q 417 -208 424 -171 q 384 -267 411 -246 q 317 -289 357 -289 z "},"ằ":{"ha":833,"x_min":99,"x_max":751,"o":"m 325 -14 q 155 62 211 -14 q 118 265 99 138 l 154 497 q 209 646 168 583 q 313 743 250 708 q 451 778 375 778 q 601 723 549 778 q 638 578 653 668 l 615 643 l 640 643 l 660 764 l 751 764 l 631 0 l 539 0 l 558 121 l 525 121 l 576 186 q 492 40 563 94 q 325 -14 422 -14 m 363 65 q 508 119 450 65 q 581 268 567 174 l 617 494 q 592 644 632 590 q 463 699 551 699 q 318 645 375 699 q 246 494 261 592 l 210 268 q 235 119 196 172 q 363 65 275 65 m 497 893 q 347 942 400 893 q 306 1069 293 990 l 381 1069 q 407 990 372 1019 q 506 960 442 960 q 615 990 571 960 q 667 1069 658 1019 l 744 1069 q 702 977 736 1017 q 615 915 668 938 q 497 893 563 893 m 503 1056 l 365 1236 l 464 1236 l 590 1056 l 503 1056 z "},"ẳ":{"ha":833,"x_min":99,"x_max":751,"o":"m 325 -14 q 155 62 211 -14 q 118 265 99 138 l 154 497 q 209 646 168 583 q 313 743 250 708 q 451 778 375 778 q 601 723 549 778 q 638 578 653 668 l 615 643 l 640 643 l 660 764 l 751 764 l 631 0 l 539 0 l 558 121 l 525 121 l 576 186 q 492 40 563 94 q 325 -14 422 -14 m 363 65 q 508 119 450 65 q 581 268 567 174 l 617 494 q 592 644 632 590 q 463 699 551 699 q 318 645 375 699 q 246 494 261 592 l 210 268 q 235 119 196 172 q 363 65 275 65 m 497 893 q 347 942 400 893 q 306 1069 293 990 l 381 1069 q 408 990 374 1019 q 507 960 442 960 q 616 990 572 960 q 667 1069 660 1019 l 744 1069 q 702 977 736 1017 q 615 915 668 938 q 497 893 563 893 m 460 1056 l 543 1147 q 568 1190 565 1169 q 533 1226 574 1226 l 444 1226 l 453 1289 l 551 1289 q 631 1265 603 1289 q 651 1201 658 1240 q 640 1165 650 1185 q 611 1126 629 1144 l 549 1056 l 460 1056 z "},"ẵ":{"ha":833,"x_min":99,"x_max":768,"o":"m 325 -14 q 155 62 211 -14 q 118 265 99 138 l 154 497 q 209 646 168 583 q 313 743 250 708 q 451 778 375 778 q 601 723 549 778 q 638 578 653 668 l 615 643 l 640 643 l 660 764 l 751 764 l 631 0 l 539 0 l 558 121 l 525 121 l 576 186 q 492 40 563 94 q 325 -14 422 -14 m 363 65 q 508 119 450 65 q 581 268 567 174 l 617 494 q 592 644 632 590 q 463 699 551 699 q 318 645 375 699 q 246 494 261 592 l 210 268 q 235 119 196 172 q 363 65 275 65 m 497 896 q 350 944 401 896 q 311 1072 299 993 l 385 1072 q 410 992 376 1022 q 506 961 443 961 q 614 992 571 961 q 665 1072 657 1022 l 739 1072 q 698 980 731 1019 q 613 918 665 940 q 497 896 561 896 m 629 1131 q 569 1144 590 1131 q 533 1177 547 1158 q 502 1210 518 1196 q 460 1224 486 1224 q 401 1174 410 1224 l 396 1139 l 326 1139 l 332 1171 q 376 1256 340 1225 q 469 1286 413 1286 q 530 1272 508 1286 q 566 1240 551 1258 q 597 1207 581 1221 q 639 1193 613 1193 q 675 1206 661 1193 q 693 1243 689 1219 l 699 1278 l 768 1278 l 763 1246 q 719 1161 754 1192 q 629 1131 683 1131 z "},"ǎ":{"ha":833,"x_min":99,"x_max":761,"o":"m 325 -14 q 155 62 211 -14 q 118 265 99 138 l 154 497 q 209 646 168 583 q 313 743 250 708 q 451 778 375 778 q 601 723 549 778 q 638 578 653 668 l 615 643 l 640 643 l 660 764 l 751 764 l 631 0 l 539 0 l 558 121 l 525 121 l 576 186 q 492 40 563 94 q 325 -14 422 -14 m 363 65 q 508 119 450 65 q 581 268 567 174 l 617 494 q 592 644 632 590 q 463 699 551 699 q 318 645 375 699 q 246 494 261 592 l 210 268 q 235 119 196 172 q 363 65 275 65 m 458 896 l 311 1090 l 406 1090 l 514 956 l 663 1090 l 761 1090 l 554 896 l 458 896 z "},"â":{"ha":833,"x_min":99,"x_max":751,"o":"m 325 -14 q 155 62 211 -14 q 118 265 99 138 l 154 497 q 209 646 168 583 q 313 743 250 708 q 451 778 375 778 q 601 723 549 778 q 638 578 653 668 l 615 643 l 640 643 l 660 764 l 751 764 l 631 0 l 539 0 l 558 121 l 525 121 l 576 186 q 492 40 563 94 q 325 -14 422 -14 m 363 65 q 508 119 450 65 q 581 268 567 174 l 617 494 q 592 644 632 590 q 463 699 551 699 q 318 645 375 699 q 246 494 261 592 l 210 268 q 235 119 196 172 q 363 65 275 65 m 279 896 l 486 1090 l 582 1090 l 729 896 l 636 896 l 528 1031 l 381 896 l 279 896 z "},"ấ":{"ha":833,"x_min":99,"x_max":968,"o":"m 325 -14 q 155 62 211 -14 q 118 265 99 138 l 154 497 q 209 646 168 583 q 313 743 250 708 q 451 778 375 778 q 601 723 549 778 q 638 578 653 668 l 615 643 l 640 643 l 660 764 l 751 764 l 631 0 l 539 0 l 558 121 l 525 121 l 576 186 q 492 40 563 94 q 325 -14 422 -14 m 363 65 q 508 119 450 65 q 581 268 567 174 l 617 494 q 592 644 632 590 q 463 699 551 699 q 318 645 375 699 q 246 494 261 592 l 210 268 q 235 119 196 172 q 363 65 275 65 m 667 1056 l 857 1250 l 968 1250 l 767 1056 l 667 1056 m 272 896 l 479 1090 l 575 1090 l 722 896 l 629 896 l 521 1031 l 374 896 l 272 896 z "},"ậ":{"ha":833,"x_min":99,"x_max":751,"o":"m 279 896 l 486 1090 l 582 1090 l 729 896 l 636 896 l 528 1031 l 381 896 l 279 896 m 325 -14 q 155 62 211 -14 q 118 265 99 138 l 154 497 q 209 646 168 583 q 313 743 250 708 q 451 778 375 778 q 601 723 549 778 q 638 578 653 668 l 615 643 l 640 643 l 660 764 l 751 764 l 631 0 l 539 0 l 558 121 l 525 121 l 576 186 q 492 40 563 94 q 325 -14 422 -14 m 363 65 q 508 119 450 65 q 581 268 567 174 l 617 494 q 592 644 632 590 q 463 699 551 699 q 318 645 375 699 q 246 494 261 592 l 210 268 q 235 119 196 172 q 363 65 275 65 m 317 -289 q 256 -267 276 -289 q 242 -208 236 -246 q 275 -149 247 -171 q 343 -126 303 -126 q 403 -149 383 -126 q 417 -208 424 -171 q 384 -267 411 -246 q 317 -289 357 -289 z "},"ầ":{"ha":833,"x_min":99,"x_max":828,"o":"m 325 -14 q 155 62 211 -14 q 118 265 99 138 l 154 497 q 209 646 168 583 q 313 743 250 708 q 451 778 375 778 q 601 723 549 778 q 638 578 653 668 l 615 643 l 640 643 l 660 764 l 751 764 l 631 0 l 539 0 l 558 121 l 525 121 l 576 186 q 492 40 563 94 q 325 -14 422 -14 m 363 65 q 508 119 450 65 q 581 268 567 174 l 617 494 q 592 644 632 590 q 463 699 551 699 q 318 645 375 699 q 246 494 261 592 l 210 268 q 235 119 196 172 q 363 65 275 65 m 739 1056 l 590 1250 l 690 1250 l 828 1056 l 739 1056 m 272 896 l 479 1090 l 575 1090 l 722 896 l 629 896 l 521 1031 l 374 896 l 272 896 z "},"ẩ":{"ha":833,"x_min":99,"x_max":883,"o":"m 325 -14 q 155 62 211 -14 q 118 265 99 138 l 154 497 q 209 646 168 583 q 313 743 250 708 q 451 778 375 778 q 601 723 549 778 q 638 578 653 668 l 615 643 l 640 643 l 660 764 l 751 764 l 631 0 l 539 0 l 558 121 l 525 121 l 576 186 q 492 40 563 94 q 325 -14 422 -14 m 363 65 q 508 119 450 65 q 581 268 567 174 l 617 494 q 592 644 632 590 q 463 699 551 699 q 318 645 375 699 q 246 494 261 592 l 210 268 q 235 119 196 172 q 363 65 275 65 m 685 1056 l 768 1147 q 793 1190 790 1169 q 757 1226 799 1226 l 668 1226 l 678 1289 l 775 1289 q 856 1265 828 1289 q 876 1201 883 1240 q 836 1126 872 1165 l 774 1056 l 685 1056 m 272 896 l 479 1090 l 575 1090 l 722 896 l 629 896 l 521 1031 l 374 896 l 272 896 z "},"ẫ":{"ha":833,"x_min":99,"x_max":768,"o":"m 325 -14 q 155 62 211 -14 q 118 265 99 138 l 154 497 q 209 646 168 583 q 313 743 250 708 q 451 778 375 778 q 601 723 549 778 q 638 578 653 668 l 615 643 l 640 643 l 660 764 l 751 764 l 631 0 l 539 0 l 558 121 l 525 121 l 576 186 q 492 40 563 94 q 325 -14 422 -14 m 363 65 q 508 119 450 65 q 581 268 567 174 l 617 494 q 592 644 632 590 q 463 699 551 699 q 318 645 375 699 q 246 494 261 592 l 210 268 q 235 119 196 172 q 363 65 275 65 m 629 1131 q 568 1144 590 1131 q 531 1177 546 1158 q 501 1210 517 1196 q 460 1224 485 1224 q 401 1174 410 1224 l 396 1139 l 326 1139 l 332 1171 q 376 1256 340 1225 q 469 1286 413 1286 q 532 1272 510 1286 q 568 1240 554 1258 q 597 1207 582 1221 q 639 1193 613 1193 q 693 1243 685 1193 l 699 1278 l 768 1278 l 763 1246 q 719 1161 754 1192 q 629 1131 683 1131 m 272 896 l 479 1090 l 575 1090 l 722 896 l 631 896 l 522 1031 l 374 896 l 272 896 z "},"ä":{"ha":833,"x_min":99,"x_max":756,"o":"m 325 -14 q 155 62 211 -14 q 118 265 99 138 l 154 497 q 209 646 168 583 q 313 743 250 708 q 451 778 375 778 q 601 723 549 778 q 638 578 653 668 l 615 643 l 640 643 l 660 764 l 751 764 l 631 0 l 539 0 l 558 121 l 525 121 l 576 186 q 492 40 563 94 q 325 -14 422 -14 m 363 65 q 508 119 450 65 q 581 268 567 174 l 617 494 q 592 644 632 590 q 463 699 551 699 q 318 645 375 699 q 246 494 261 592 l 210 268 q 235 119 196 172 q 363 65 275 65 m 658 907 q 603 928 622 907 q 590 988 585 950 q 622 1047 597 1025 q 683 1069 647 1069 q 737 1047 718 1069 q 749 988 756 1025 q 718 928 743 950 q 658 907 693 907 m 356 907 q 302 928 321 907 q 289 988 283 950 q 321 1047 296 1025 q 381 1069 346 1069 q 435 1047 415 1069 q 447 988 454 1025 q 417 928 442 950 q 356 907 392 907 z "},"ạ":{"ha":833,"x_min":99,"x_max":751,"o":"m 325 -14 q 155 62 211 -14 q 118 265 99 138 l 154 497 q 209 646 168 583 q 313 743 250 708 q 451 778 375 778 q 601 723 549 778 q 638 578 653 668 l 615 643 l 640 643 l 660 764 l 751 764 l 631 0 l 539 0 l 558 121 l 525 121 l 576 186 q 492 40 563 94 q 325 -14 422 -14 m 363 65 q 508 119 450 65 q 581 268 567 174 l 617 494 q 592 644 632 590 q 463 699 551 699 q 318 645 375 699 q 246 494 261 592 l 210 268 q 235 119 196 172 q 363 65 275 65 m 317 -289 q 256 -267 276 -289 q 242 -208 236 -246 q 275 -149 247 -171 q 343 -126 303 -126 q 403 -149 383 -126 q 417 -208 424 -171 q 384 -267 411 -246 q 317 -289 357 -289 z "},"à":{"ha":833,"x_min":99,"x_max":751,"o":"m 325 -14 q 155 62 211 -14 q 118 265 99 138 l 154 497 q 209 646 168 583 q 313 743 250 708 q 451 778 375 778 q 601 723 549 778 q 638 578 653 668 l 615 643 l 640 643 l 660 764 l 751 764 l 631 0 l 539 0 l 558 121 l 525 121 l 576 186 q 492 40 563 94 q 325 -14 422 -14 m 363 65 q 508 119 450 65 q 581 268 567 174 l 617 494 q 592 644 632 590 q 463 699 551 699 q 318 645 375 699 q 246 494 261 592 l 210 268 q 235 119 196 172 q 363 65 275 65 m 475 896 l 349 1090 l 449 1090 l 568 896 l 475 896 z "},"ả":{"ha":833,"x_min":99,"x_max":751,"o":"m 325 -14 q 155 62 211 -14 q 118 265 99 138 l 154 497 q 209 646 168 583 q 313 743 250 708 q 451 778 375 778 q 601 723 549 778 q 638 578 653 668 l 615 643 l 640 643 l 660 764 l 751 764 l 631 0 l 539 0 l 558 121 l 525 121 l 576 186 q 492 40 563 94 q 325 -14 422 -14 m 363 65 q 508 119 450 65 q 581 268 567 174 l 617 494 q 592 644 632 590 q 463 699 551 699 q 318 645 375 699 q 246 494 261 592 l 210 268 q 235 119 196 172 q 363 65 275 65 m 465 896 l 556 994 q 576 1021 567 1008 q 586 1042 585 1033 q 546 1076 592 1076 l 429 1076 l 440 1142 l 571 1142 q 649 1117 622 1142 q 668 1051 675 1093 q 656 1014 665 1033 q 632 978 646 994 l 560 896 l 465 896 z "},"ā":{"ha":833,"x_min":99,"x_max":751,"o":"m 325 -14 q 155 62 211 -14 q 118 265 99 138 l 154 497 q 209 646 168 583 q 313 743 250 708 q 451 778 375 778 q 601 723 549 778 q 638 578 653 668 l 615 643 l 640 643 l 660 764 l 751 764 l 631 0 l 539 0 l 558 121 l 525 121 l 576 186 q 492 40 563 94 q 325 -14 422 -14 m 363 65 q 508 119 450 65 q 581 268 567 174 l 617 494 q 592 644 632 590 q 463 699 551 699 q 318 645 375 699 q 246 494 261 592 l 210 268 q 235 119 196 172 q 363 65 275 65 m 306 942 l 318 1019 l 729 1019 l 717 942 l 306 942 z "},"ą":{"ha":833,"x_min":99,"x_max":751,"o":"m 556 -275 q 457 -242 490 -275 q 432 -157 424 -210 q 474 -72 439 -115 q 574 14 510 -28 l 629 0 q 553 -73 581 -37 q 521 -137 526 -108 q 533 -188 517 -169 q 583 -207 550 -207 l 669 -207 l 660 -275 l 556 -275 m 325 -14 q 155 62 211 -14 q 118 265 99 138 l 154 497 q 209 646 168 583 q 313 743 250 708 q 451 778 375 778 q 601 723 549 778 q 638 578 653 668 l 615 643 l 640 643 l 660 764 l 751 764 l 631 0 l 539 0 l 558 121 l 525 121 l 576 186 q 492 40 563 94 q 325 -14 422 -14 m 363 65 q 508 119 450 65 q 581 268 567 174 l 617 494 q 592 644 632 590 q 463 699 551 699 q 318 645 375 699 q 246 494 261 592 l 210 268 q 235 119 196 172 q 363 65 275 65 z "},"å":{"ha":833,"x_min":99,"x_max":751,"o":"m 325 -14 q 155 62 211 -14 q 118 265 99 138 l 154 497 q 209 646 168 583 q 313 743 250 708 q 451 778 375 778 q 601 723 549 778 q 638 578 653 668 l 615 643 l 640 643 l 660 764 l 751 764 l 631 0 l 539 0 l 558 121 l 525 121 l 576 186 q 492 40 563 94 q 325 -14 422 -14 m 363 65 q 508 119 450 65 q 581 268 567 174 l 617 494 q 592 644 632 590 q 463 699 551 699 q 318 645 375 699 q 246 494 261 592 l 210 268 q 235 119 196 172 q 363 65 275 65 m 497 850 q 392 891 428 850 q 365 997 356 932 q 426 1103 376 1063 q 544 1143 475 1143 q 649 1103 614 1143 q 674 997 685 1063 q 615 890 664 931 q 497 850 567 850 m 507 908 q 574 933 546 908 q 607 997 601 957 q 594 1062 614 1038 q 535 1086 574 1086 q 467 1061 496 1086 q 432 997 439 1036 q 447 933 426 957 q 507 908 468 908 z "},"ã":{"ha":833,"x_min":99,"x_max":756,"o":"m 325 -14 q 155 62 211 -14 q 118 265 99 138 l 154 497 q 209 646 168 583 q 313 743 250 708 q 451 778 375 778 q 601 723 549 778 q 638 578 653 668 l 615 643 l 640 643 l 660 764 l 751 764 l 631 0 l 539 0 l 558 121 l 525 121 l 576 186 q 492 40 563 94 q 325 -14 422 -14 m 363 65 q 508 119 450 65 q 581 268 567 174 l 617 494 q 592 644 632 590 q 463 699 551 699 q 318 645 375 699 q 246 494 261 592 l 210 268 q 235 119 196 172 q 363 65 275 65 m 607 903 q 543 920 567 903 q 503 960 519 938 q 469 1001 486 983 q 429 1018 453 1018 q 384 1001 403 1018 q 361 956 365 985 l 354 910 l 285 910 l 292 956 q 341 1049 301 1015 q 438 1083 381 1083 q 501 1066 478 1083 q 541 1026 525 1049 q 574 985 557 1003 q 614 968 590 968 q 656 985 639 968 q 678 1031 674 1001 l 686 1076 l 756 1076 l 747 1031 q 700 937 738 971 q 607 903 663 903 z "},"æ":{"ha":833,"x_min":8,"x_max":825,"o":"m 175 -14 q 49 42 89 -14 q 22 188 8 97 l 32 260 q 106 392 46 343 q 256 442 165 442 l 386 442 l 406 564 q 390 663 415 626 q 310 699 365 699 q 227 668 263 699 q 181 588 192 638 l 92 588 q 169 726 110 674 q 313 778 228 778 q 399 759 367 778 q 447 714 432 740 q 463 661 463 688 l 467 661 q 500 714 476 688 q 561 759 524 740 q 649 778 599 778 q 782 719 739 778 q 808 564 825 661 l 776 365 l 460 365 l 435 200 q 451 104 425 142 q 531 67 478 67 q 615 97 581 67 q 660 176 649 126 l 749 176 q 671 38 731 90 q 525 -14 611 -14 q 440 5 472 -14 q 393 50 407 24 q 378 101 379 76 l 374 101 q 340 50 365 76 q 274 5 315 24 q 175 -14 233 -14 m 207 64 q 299 103 260 64 q 347 200 339 142 l 374 365 l 243 365 q 165 336 197 365 q 124 260 132 307 l 114 188 q 130 99 104 133 q 207 64 156 64 m 472 442 l 700 442 l 719 564 q 704 660 729 622 q 628 699 679 699 q 539 660 576 699 q 492 564 501 622 l 472 442 z "},"ǽ":{"ha":833,"x_min":8,"x_max":825,"o":"m 175 -14 q 49 42 89 -14 q 22 188 8 97 l 32 260 q 106 392 46 343 q 256 442 165 442 l 386 442 l 406 564 q 390 663 415 626 q 310 699 365 699 q 227 668 263 699 q 181 588 192 638 l 92 588 q 169 726 110 674 q 313 778 228 778 q 399 759 367 778 q 447 714 432 740 q 463 661 463 688 l 467 661 q 500 714 476 688 q 561 759 524 740 q 649 778 599 778 q 782 719 739 778 q 808 564 825 661 l 776 365 l 460 365 l 435 200 q 451 104 425 142 q 531 67 478 67 q 615 97 581 67 q 660 176 649 126 l 749 176 q 671 38 731 90 q 525 -14 611 -14 q 440 5 472 -14 q 393 50 407 24 q 378 101 379 76 l 374 101 q 340 50 365 76 q 274 5 315 24 q 175 -14 233 -14 m 207 64 q 299 103 260 64 q 347 200 339 142 l 374 365 l 243 365 q 165 336 197 365 q 124 260 132 307 l 114 188 q 130 99 104 133 q 207 64 156 64 m 472 442 l 700 442 l 719 564 q 704 660 729 622 q 628 699 679 699 q 539 660 576 699 q 492 564 501 622 l 472 442 m 440 896 l 618 1090 l 726 1090 l 542 896 l 440 896 z "},"b":{"ha":833,"x_min":82,"x_max":735,"o":"m 382 -14 q 232 40 283 -14 q 194 186 181 94 l 226 121 l 193 121 l 174 0 l 82 0 l 243 1014 l 335 1014 l 300 800 l 274 643 l 300 643 l 257 578 q 341 723 271 668 q 508 778 411 778 q 679 701 624 778 q 714 497 735 625 l 678 265 q 624 118 665 181 q 520 21 582 56 q 382 -14 458 -14 m 369 65 q 514 119 457 65 q 588 268 571 172 l 622 494 q 598 645 639 592 q 469 699 557 699 q 325 644 382 699 q 251 494 268 590 l 217 268 q 242 119 200 174 q 369 65 283 65 z "},"c":{"ha":833,"x_min":106,"x_max":743,"o":"m 357 -14 q 211 20 269 -14 q 129 118 153 54 q 118 269 106 182 l 153 494 q 213 645 168 582 q 326 743 257 708 q 483 778 396 778 q 677 706 611 778 q 725 514 743 635 l 633 514 q 602 647 646 600 q 469 694 558 694 q 319 642 379 694 q 246 494 260 590 l 210 269 q 238 122 194 175 q 371 69 281 69 q 518 117 460 69 q 592 250 576 165 l 683 250 q 574 58 663 129 q 357 -14 485 -14 z "},"ć":{"ha":833,"x_min":106,"x_max":743,"o":"m 357 -14 q 211 20 269 -14 q 129 118 153 54 q 118 269 106 182 l 153 494 q 213 645 168 582 q 326 743 257 708 q 483 778 396 778 q 677 706 611 778 q 725 514 743 635 l 633 514 q 602 647 646 600 q 469 694 558 694 q 319 642 379 694 q 246 494 260 590 l 210 269 q 238 122 194 175 q 371 69 281 69 q 518 117 460 69 q 592 250 576 165 l 683 250 q 574 58 663 129 q 357 -14 485 -14 m 444 896 l 622 1090 l 731 1090 l 546 896 l 444 896 z "},"č":{"ha":833,"x_min":106,"x_max":758,"o":"m 357 -14 q 211 20 269 -14 q 129 118 153 54 q 118 269 106 182 l 153 494 q 213 645 168 582 q 326 743 257 708 q 483 778 396 778 q 677 706 611 778 q 725 514 743 635 l 633 514 q 602 647 646 600 q 469 694 558 694 q 319 642 379 694 q 246 494 260 590 l 210 269 q 238 122 194 175 q 371 69 281 69 q 518 117 460 69 q 592 250 576 165 l 683 250 q 574 58 663 129 q 357 -14 485 -14 m 456 896 l 308 1090 l 403 1090 l 511 956 l 660 1090 l 758 1090 l 551 896 l 456 896 z "},"ç":{"ha":833,"x_min":106,"x_max":743,"o":"m 188 -275 l 199 -215 l 304 -215 q 358 -198 336 -215 q 383 -161 381 -181 q 349 -111 389 -131 q 239 -92 310 -92 l 307 36 l 374 36 l 329 -47 q 399 -63 364 -50 q 454 -101 433 -76 q 469 -165 475 -126 q 416 -243 463 -211 q 301 -275 369 -275 l 188 -275 m 357 -14 q 211 20 269 -14 q 129 118 153 54 q 118 269 106 182 l 153 494 q 213 645 168 582 q 326 743 257 708 q 483 778 396 778 q 677 706 611 778 q 725 514 743 635 l 633 514 q 602 647 646 600 q 469 694 558 694 q 319 642 379 694 q 246 494 260 590 l 210 269 q 238 122 194 175 q 371 69 281 69 q 518 117 460 69 q 592 250 576 165 l 683 250 q 574 58 663 129 q 357 -14 485 -14 z "},"ĉ":{"ha":833,"x_min":106,"x_max":743,"o":"m 357 -14 q 211 20 269 -14 q 129 118 153 54 q 118 269 106 182 l 153 494 q 213 645 168 582 q 326 743 257 708 q 483 778 396 778 q 677 706 611 778 q 725 514 743 635 l 633 514 q 602 647 646 600 q 469 694 558 694 q 319 642 379 694 q 246 494 260 590 l 210 269 q 238 122 194 175 q 371 69 281 69 q 518 117 460 69 q 592 250 576 165 l 683 250 q 574 58 663 129 q 357 -14 485 -14 m 272 896 l 479 1090 l 575 1090 l 722 896 l 629 896 l 521 1031 l 374 896 l 272 896 z "},"ċ":{"ha":833,"x_min":106,"x_max":743,"o":"m 357 -14 q 211 20 269 -14 q 129 118 153 54 q 118 269 106 182 l 153 494 q 213 645 168 582 q 326 743 257 708 q 483 778 396 778 q 677 706 611 778 q 725 514 743 635 l 633 514 q 602 647 646 600 q 469 694 558 694 q 319 642 379 694 q 246 494 260 590 l 210 269 q 238 122 194 175 q 371 69 281 69 q 518 117 460 69 q 592 250 576 165 l 683 250 q 574 58 663 129 q 357 -14 485 -14 m 506 907 q 444 928 467 907 q 424 988 422 950 q 452 1047 426 1025 q 517 1069 478 1069 q 580 1047 557 1069 q 600 988 603 1025 q 572 928 597 950 q 506 907 546 907 z "},"d":{"ha":833,"x_min":99,"x_max":792,"o":"m 325 -14 q 155 62 211 -14 q 118 265 99 138 l 154 497 q 209 646 168 583 q 313 743 250 708 q 451 778 375 778 q 601 723 549 778 q 638 578 653 668 l 615 643 l 640 643 l 665 800 l 700 1014 l 792 1014 l 631 0 l 539 0 l 558 121 l 525 121 l 576 186 q 492 40 563 94 q 325 -14 422 -14 m 363 65 q 508 119 450 65 q 581 268 565 174 l 617 494 q 592 644 632 590 q 463 699 551 699 q 318 645 375 699 q 246 494 261 592 l 210 268 q 235 119 194 172 q 363 65 275 65 z "},"ð":{"ha":833,"x_min":78,"x_max":738,"o":"m 353 -14 q 196 25 260 -14 q 105 134 132 64 q 92 299 78 204 q 153 462 107 393 q 272 568 200 531 q 432 606 344 606 q 515 588 479 606 q 573 547 550 571 q 606 500 596 522 l 617 500 q 594 564 613 518 q 542 676 576 610 l 467 811 l 213 703 l 225 785 l 432 875 l 351 1014 l 446 1014 l 503 908 l 738 1006 l 726 924 l 539 844 l 619 704 q 706 497 682 600 q 714 301 729 393 q 649 135 699 207 q 524 25 600 64 q 353 -14 447 -14 m 367 72 q 533 135 464 72 q 618 300 601 197 q 610 417 629 367 q 547 497 590 468 q 439 525 503 525 q 272 463 340 525 q 188 299 204 401 q 219 134 171 196 q 367 72 268 72 z "},"ď":{"ha":833,"x_min":71,"x_max":908,"o":"m 768 764 l 817 1014 l 908 1014 l 850 764 l 768 764 m 281 -14 q 122 61 174 -14 q 90 263 71 136 l 128 500 q 224 703 147 628 q 407 778 300 778 q 547 724 501 778 q 578 578 593 669 l 554 643 l 581 643 l 604 800 l 639 1014 l 731 1014 l 569 0 l 478 0 l 497 121 l 464 121 l 515 186 q 438 40 501 94 q 281 -14 375 -14 m 319 65 q 452 119 399 65 q 521 265 506 172 l 557 497 q 535 644 571 590 q 419 699 499 699 q 288 644 342 699 q 219 497 233 590 l 183 265 q 205 119 168 172 q 319 65 242 65 z "},"đ":{"ha":833,"x_min":99,"x_max":904,"o":"m 118 265 l 143 414 q 197 563 157 500 q 299 660 238 625 q 436 694 360 694 q 565 658 515 694 q 622 560 614 622 l 626 560 l 650 717 l 664 806 l 422 806 l 435 885 l 676 885 l 697 1014 l 789 1014 l 768 885 l 904 885 l 892 806 l 756 806 l 628 0 l 536 0 l 556 121 l 551 121 q 463 22 524 57 q 324 -14 403 -14 q 154 62 210 -14 q 118 265 99 138 m 211 268 q 235 119 196 172 q 363 65 275 65 q 507 119 450 65 q 579 268 564 174 l 603 411 q 577 561 617 507 q 449 615 538 615 q 305 562 361 615 q 233 411 249 508 l 211 268 z "},"e":{"ha":833,"x_min":106,"x_max":728,"o":"m 354 -14 q 210 21 267 -14 q 129 119 153 56 q 118 269 106 183 l 153 494 q 212 644 168 581 q 324 742 256 707 q 481 778 393 778 q 624 742 567 778 q 704 644 681 707 q 714 494 728 581 l 693 361 l 224 361 l 208 269 q 234 119 194 174 q 367 65 274 65 q 494 98 442 65 q 572 190 546 131 l 664 190 q 598 82 642 128 q 492 11 554 36 q 354 -14 429 -14 m 613 424 l 624 494 q 599 645 639 590 q 468 700 560 700 q 317 646 375 700 q 244 494 260 592 l 235 435 l 628 435 l 613 424 z "},"é":{"ha":833,"x_min":106,"x_max":728,"o":"m 354 -14 q 210 21 267 -14 q 129 119 153 56 q 118 269 106 183 l 153 494 q 212 644 168 581 q 324 742 256 707 q 481 778 393 778 q 624 742 567 778 q 704 644 681 707 q 714 494 728 581 l 693 361 l 224 361 l 208 269 q 234 119 194 174 q 367 65 274 65 q 494 98 442 65 q 572 190 546 131 l 664 190 q 598 82 642 128 q 492 11 554 36 q 354 -14 429 -14 m 613 424 l 624 494 q 599 645 639 590 q 468 700 560 700 q 317 646 375 700 q 244 494 260 592 l 235 435 l 628 435 l 613 424 m 440 896 l 618 1090 l 726 1090 l 542 896 l 440 896 z "},"ĕ":{"ha":833,"x_min":106,"x_max":738,"o":"m 354 -14 q 210 21 267 -14 q 129 119 153 56 q 118 269 106 183 l 153 494 q 212 644 168 581 q 324 742 256 707 q 481 778 393 778 q 624 742 567 778 q 704 644 681 707 q 714 494 728 581 l 693 361 l 224 361 l 208 269 q 234 119 194 174 q 367 65 274 65 q 494 98 442 65 q 572 190 546 131 l 664 190 q 598 82 642 128 q 492 11 554 36 q 354 -14 429 -14 m 613 424 l 624 494 q 599 645 639 590 q 468 700 560 700 q 317 646 375 700 q 244 494 260 592 l 235 435 l 628 435 l 613 424 m 497 892 q 353 946 401 892 q 318 1090 304 1000 l 394 1090 q 415 993 385 1029 q 506 957 444 957 q 609 993 567 957 q 660 1090 651 1029 l 738 1090 q 658 946 724 1000 q 497 892 593 892 z "},"ě":{"ha":833,"x_min":106,"x_max":754,"o":"m 354 -14 q 210 21 267 -14 q 129 119 153 56 q 118 269 106 183 l 153 494 q 212 644 168 581 q 324 742 256 707 q 481 778 393 778 q 624 742 567 778 q 704 644 681 707 q 714 494 728 581 l 693 361 l 224 361 l 208 269 q 234 119 194 174 q 367 65 274 65 q 494 98 442 65 q 572 190 546 131 l 664 190 q 598 82 642 128 q 492 11 554 36 q 354 -14 429 -14 m 613 424 l 624 494 q 599 645 639 590 q 468 700 560 700 q 317 646 375 700 q 244 494 260 592 l 235 435 l 628 435 l 613 424 m 451 896 l 304 1090 l 399 1090 l 507 956 l 656 1090 l 754 1090 l 547 896 l 451 896 z "},"ê":{"ha":833,"x_min":106,"x_max":728,"o":"m 354 -14 q 210 21 267 -14 q 129 119 153 56 q 118 269 106 183 l 153 494 q 212 644 168 581 q 324 742 256 707 q 481 778 393 778 q 624 742 567 778 q 704 644 681 707 q 714 494 728 581 l 693 361 l 224 361 l 208 269 q 234 119 194 174 q 367 65 274 65 q 494 98 442 65 q 572 190 546 131 l 664 190 q 598 82 642 128 q 492 11 554 36 q 354 -14 429 -14 m 613 424 l 624 494 q 599 645 639 590 q 468 700 560 700 q 317 646 375 700 q 244 494 260 592 l 235 435 l 628 435 l 613 424 m 272 896 l 479 1090 l 575 1090 l 722 896 l 629 896 l 521 1031 l 374 896 l 272 896 z "},"ế":{"ha":833,"x_min":106,"x_max":968,"o":"m 354 -14 q 210 21 267 -14 q 129 119 153 56 q 118 269 106 183 l 153 494 q 212 644 168 581 q 324 742 256 707 q 481 778 393 778 q 624 742 567 778 q 704 644 681 707 q 714 494 728 581 l 693 361 l 224 361 l 208 269 q 234 119 194 174 q 367 65 274 65 q 494 98 442 65 q 572 190 546 131 l 664 190 q 598 82 642 128 q 492 11 554 36 q 354 -14 429 -14 m 613 424 l 624 494 q 599 645 639 590 q 468 700 560 700 q 317 646 375 700 q 244 494 260 592 l 235 435 l 628 435 l 613 424 m 667 1056 l 857 1250 l 968 1250 l 767 1056 l 667 1056 m 272 896 l 479 1090 l 575 1090 l 722 896 l 629 896 l 521 1031 l 374 896 l 272 896 z "},"ệ":{"ha":833,"x_min":106,"x_max":728,"o":"m 275 896 l 482 1090 l 578 1090 l 725 896 l 632 896 l 524 1031 l 376 896 l 275 896 m 354 -14 q 210 21 267 -14 q 129 119 153 56 q 118 269 106 183 l 153 494 q 212 644 168 581 q 324 742 256 707 q 481 778 393 778 q 624 742 567 778 q 704 644 681 707 q 714 494 728 581 l 693 361 l 224 361 l 208 269 q 234 119 194 174 q 367 65 274 65 q 494 98 442 65 q 572 190 546 131 l 664 190 q 598 82 642 128 q 492 11 554 36 q 354 -14 429 -14 m 613 424 l 624 494 q 599 645 639 590 q 468 700 560 700 q 317 646 375 700 q 244 494 260 592 l 235 435 l 628 435 l 613 424 m 310 -289 q 249 -267 269 -289 q 235 -208 229 -246 q 268 -149 240 -171 q 336 -126 296 -126 q 397 -149 376 -126 q 410 -208 417 -171 q 377 -267 404 -246 q 310 -289 350 -289 z "},"ề":{"ha":833,"x_min":106,"x_max":828,"o":"m 354 -14 q 210 21 267 -14 q 129 119 153 56 q 118 269 106 183 l 153 494 q 212 644 168 581 q 324 742 256 707 q 481 778 393 778 q 624 742 567 778 q 704 644 681 707 q 714 494 728 581 l 693 361 l 224 361 l 208 269 q 234 119 194 174 q 367 65 274 65 q 494 98 442 65 q 572 190 546 131 l 664 190 q 598 82 642 128 q 492 11 554 36 q 354 -14 429 -14 m 613 424 l 624 494 q 599 645 639 590 q 468 700 560 700 q 317 646 375 700 q 244 494 260 592 l 235 435 l 628 435 l 613 424 m 739 1056 l 590 1250 l 690 1250 l 828 1056 l 739 1056 m 272 896 l 479 1090 l 575 1090 l 722 896 l 629 896 l 521 1031 l 374 896 l 272 896 z "},"ể":{"ha":833,"x_min":106,"x_max":883,"o":"m 354 -14 q 210 21 267 -14 q 129 119 153 56 q 118 269 106 183 l 153 494 q 212 644 168 581 q 324 742 256 707 q 481 778 393 778 q 624 742 567 778 q 704 644 681 707 q 714 494 728 581 l 693 361 l 224 361 l 208 269 q 234 119 194 174 q 367 65 274 65 q 494 98 442 65 q 572 190 546 131 l 664 190 q 598 82 642 128 q 492 11 554 36 q 354 -14 429 -14 m 613 424 l 624 494 q 599 645 639 590 q 468 700 560 700 q 317 646 375 700 q 244 494 260 592 l 235 435 l 628 435 l 613 424 m 685 1056 l 768 1147 q 793 1190 790 1169 q 757 1226 799 1226 l 668 1226 l 678 1289 l 775 1289 q 856 1265 828 1289 q 876 1201 883 1240 q 836 1126 872 1165 l 774 1056 l 685 1056 m 272 896 l 479 1090 l 575 1090 l 722 896 l 629 896 l 521 1031 l 374 896 l 272 896 z "},"ễ":{"ha":833,"x_min":106,"x_max":768,"o":"m 354 -14 q 210 21 267 -14 q 129 119 153 56 q 118 269 106 183 l 153 494 q 212 644 168 581 q 324 742 256 707 q 481 778 393 778 q 624 742 567 778 q 704 644 681 707 q 714 494 728 581 l 693 361 l 224 361 l 208 269 q 234 119 194 174 q 367 65 274 65 q 494 98 442 65 q 572 190 546 131 l 664 190 q 598 82 642 128 q 492 11 554 36 q 354 -14 429 -14 m 613 424 l 624 494 q 599 645 639 590 q 468 700 560 700 q 317 646 375 700 q 244 494 260 592 l 235 435 l 628 435 l 613 424 m 629 1131 q 568 1144 590 1131 q 531 1177 546 1158 q 501 1210 517 1196 q 460 1224 485 1224 q 401 1174 410 1224 l 396 1139 l 326 1139 l 332 1171 q 376 1256 340 1225 q 469 1286 413 1286 q 532 1272 510 1286 q 568 1240 554 1258 q 597 1207 582 1221 q 639 1193 613 1193 q 693 1243 685 1193 l 699 1278 l 768 1278 l 763 1246 q 719 1161 754 1192 q 629 1131 683 1131 m 272 896 l 479 1090 l 575 1090 l 722 896 l 631 896 l 522 1031 l 374 896 l 272 896 z "},"ë":{"ha":833,"x_min":106,"x_max":749,"o":"m 354 -14 q 210 21 267 -14 q 129 119 153 56 q 118 269 106 183 l 153 494 q 212 644 168 581 q 324 742 256 707 q 481 778 393 778 q 624 742 567 778 q 704 644 681 707 q 714 494 728 581 l 693 361 l 224 361 l 208 269 q 234 119 194 174 q 367 65 274 65 q 494 98 442 65 q 572 190 546 131 l 664 190 q 598 82 642 128 q 492 11 554 36 q 354 -14 429 -14 m 613 424 l 624 494 q 599 645 639 590 q 468 700 560 700 q 317 646 375 700 q 244 494 260 592 l 235 435 l 628 435 l 613 424 m 651 907 q 597 928 615 907 q 583 988 578 950 q 615 1047 590 1025 q 676 1069 640 1069 q 730 1047 711 1069 q 742 988 749 1025 q 711 928 736 950 q 651 907 686 907 m 349 907 q 295 928 314 907 q 282 988 276 950 q 314 1047 289 1025 q 374 1069 339 1069 q 428 1047 408 1069 q 440 988 447 1025 q 410 928 435 950 q 349 907 385 907 z "},"ė":{"ha":833,"x_min":106,"x_max":728,"o":"m 354 -14 q 210 21 267 -14 q 129 119 153 56 q 118 269 106 183 l 153 494 q 212 644 168 581 q 324 742 256 707 q 481 778 393 778 q 624 742 567 778 q 704 644 681 707 q 714 494 728 581 l 693 361 l 224 361 l 208 269 q 234 119 194 174 q 367 65 274 65 q 494 98 442 65 q 572 190 546 131 l 664 190 q 598 82 642 128 q 492 11 554 36 q 354 -14 429 -14 m 613 424 l 624 494 q 599 645 639 590 q 468 700 560 700 q 317 646 375 700 q 244 494 260 592 l 235 435 l 628 435 l 613 424 m 506 907 q 444 928 467 907 q 424 988 422 950 q 452 1047 426 1025 q 517 1069 478 1069 q 580 1047 557 1069 q 600 988 603 1025 q 572 928 597 950 q 506 907 546 907 z "},"ẹ":{"ha":833,"x_min":106,"x_max":728,"o":"m 354 -14 q 210 21 267 -14 q 129 119 153 56 q 118 269 106 183 l 153 494 q 212 644 168 581 q 324 742 256 707 q 481 778 393 778 q 624 742 567 778 q 704 644 681 707 q 714 494 728 581 l 693 361 l 224 361 l 208 269 q 234 119 194 174 q 367 65 274 65 q 494 98 442 65 q 572 190 546 131 l 664 190 q 598 82 642 128 q 492 11 554 36 q 354 -14 429 -14 m 613 424 l 624 494 q 599 645 639 590 q 468 700 560 700 q 317 646 375 700 q 244 494 260 592 l 235 435 l 628 435 l 613 424 m 310 -289 q 249 -267 269 -289 q 235 -208 229 -246 q 268 -149 240 -171 q 336 -126 296 -126 q 397 -149 376 -126 q 410 -208 417 -171 q 377 -267 404 -246 q 310 -289 350 -289 z "},"è":{"ha":833,"x_min":106,"x_max":728,"o":"m 354 -14 q 210 21 267 -14 q 129 119 153 56 q 118 269 106 183 l 153 494 q 212 644 168 581 q 324 742 256 707 q 481 778 393 778 q 624 742 567 778 q 704 644 681 707 q 714 494 728 581 l 693 361 l 224 361 l 208 269 q 234 119 194 174 q 367 65 274 65 q 494 98 442 65 q 572 190 546 131 l 664 190 q 598 82 642 128 q 492 11 554 36 q 354 -14 429 -14 m 613 424 l 624 494 q 599 645 639 590 q 468 700 560 700 q 317 646 375 700 q 244 494 260 592 l 235 435 l 628 435 l 613 424 m 468 896 l 342 1090 l 442 1090 l 561 896 l 468 896 z "},"ẻ":{"ha":833,"x_min":106,"x_max":728,"o":"m 354 -14 q 210 21 267 -14 q 129 119 153 56 q 118 269 106 183 l 153 494 q 212 644 168 581 q 324 742 256 707 q 481 778 393 778 q 624 742 567 778 q 704 644 681 707 q 714 494 728 581 l 693 361 l 224 361 l 208 269 q 234 119 194 174 q 367 65 274 65 q 494 98 442 65 q 572 190 546 131 l 664 190 q 598 82 642 128 q 492 11 554 36 q 354 -14 429 -14 m 613 424 l 624 494 q 599 645 639 590 q 468 700 560 700 q 317 646 375 700 q 244 494 260 592 l 235 435 l 628 435 l 613 424 m 447 896 l 538 994 q 558 1021 549 1008 q 568 1042 567 1033 q 528 1076 574 1076 l 411 1076 l 422 1142 l 553 1142 q 631 1117 604 1142 q 650 1051 657 1093 q 638 1014 647 1033 q 614 978 628 994 l 542 896 l 447 896 z "},"ē":{"ha":833,"x_min":106,"x_max":728,"o":"m 354 -14 q 210 21 267 -14 q 129 119 153 56 q 118 269 106 183 l 153 494 q 212 644 168 581 q 324 742 256 707 q 481 778 393 778 q 624 742 567 778 q 704 644 681 707 q 714 494 728 581 l 693 361 l 224 361 l 208 269 q 234 119 194 174 q 367 65 274 65 q 494 98 442 65 q 572 190 546 131 l 664 190 q 598 82 642 128 q 492 11 554 36 q 354 -14 429 -14 m 613 424 l 624 494 q 599 645 639 590 q 468 700 560 700 q 317 646 375 700 q 244 494 260 592 l 235 435 l 628 435 l 613 424 m 299 942 l 311 1019 l 722 1019 l 710 942 l 299 942 z "},"ę":{"ha":833,"x_min":106,"x_max":728,"o":"m 415 -275 q 318 -242 351 -275 q 293 -157 285 -210 q 324 -88 299 -125 q 401 -10 350 -51 q 378 -12 390 -11 q 354 -14 365 -14 q 210 21 267 -14 q 129 119 153 56 q 118 269 106 183 l 153 494 q 212 644 168 581 q 324 742 256 707 q 481 778 393 778 q 624 742 567 778 q 704 644 681 707 q 714 494 728 581 l 693 361 l 224 361 l 208 269 q 234 119 194 174 q 367 65 274 65 q 494 98 442 65 q 572 190 546 131 l 664 190 q 610 97 646 138 q 526 28 575 56 l 490 0 q 415 -73 442 -37 q 382 -137 388 -108 q 394 -188 378 -169 q 444 -207 410 -207 l 531 -207 l 519 -275 l 415 -275 m 608 394 l 624 494 q 599 645 639 590 q 468 700 560 700 q 317 646 375 700 q 244 494 260 592 l 235 435 l 656 435 l 608 394 z "},"ẽ":{"ha":833,"x_min":106,"x_max":749,"o":"m 354 -14 q 210 21 267 -14 q 129 119 153 56 q 118 269 106 183 l 153 494 q 212 644 168 581 q 324 742 256 707 q 481 778 393 778 q 624 742 567 778 q 704 644 681 707 q 714 494 728 581 l 693 361 l 224 361 l 208 269 q 234 119 194 174 q 367 65 274 65 q 494 98 442 65 q 572 190 546 131 l 664 190 q 598 82 642 128 q 492 11 554 36 q 354 -14 429 -14 m 613 424 l 624 494 q 599 645 639 590 q 468 700 560 700 q 317 646 375 700 q 244 494 260 592 l 235 435 l 628 435 l 613 424 m 600 903 q 536 920 560 903 q 496 960 513 938 q 463 1001 479 983 q 422 1018 446 1018 q 377 1001 396 1018 q 354 956 358 985 l 347 910 l 278 910 l 285 956 q 334 1049 294 1015 q 431 1083 374 1083 q 494 1066 471 1083 q 534 1026 518 1049 q 567 985 550 1003 q 607 968 583 968 q 649 985 632 968 q 671 1031 667 1001 l 679 1076 l 749 1076 l 740 1031 q 693 937 731 971 q 600 903 656 903 z "},"ə":{"ha":833,"x_min":106,"x_max":728,"o":"m 351 -14 q 209 22 265 -14 q 129 121 153 57 q 119 269 106 185 l 140 403 l 608 403 l 622 494 q 598 644 638 590 q 465 699 558 699 q 340 666 392 699 q 261 574 288 633 l 169 574 q 284 723 203 668 q 478 778 365 778 q 623 743 567 778 q 703 644 679 708 q 713 494 728 581 l 678 269 q 620 121 664 185 q 508 22 576 57 q 351 -14 439 -14 m 364 64 q 515 118 458 64 q 588 269 572 172 l 596 329 l 206 329 l 221 340 l 210 269 q 234 119 194 174 q 364 64 274 64 z "},"f":{"ha":833,"x_min":-47,"x_max":850,"o":"m -47 -250 l -33 -167 l 124 -167 q 210 -139 178 -167 q 251 -57 243 -111 l 357 604 l 126 604 l 139 686 l 369 686 l 392 821 q 433 924 401 881 q 513 990 464 967 q 626 1014 563 1014 l 850 1014 l 836 931 l 611 931 q 524 903 557 931 q 483 821 492 875 l 461 686 l 781 686 l 767 604 l 449 604 l 343 -57 q 267 -198 331 -146 q 108 -250 204 -250 l -47 -250 z "},"g":{"ha":833,"x_min":110,"x_max":751,"o":"m 135 -250 l 149 -167 l 367 -167 q 481 -131 439 -167 q 535 -24 524 -94 l 547 53 l 572 204 l 547 204 l 585 250 q 503 106 571 160 q 338 53 435 53 q 166 129 222 53 q 129 332 110 206 l 156 497 q 210 646 169 583 q 314 743 251 708 q 453 778 376 778 q 601 724 550 778 q 636 581 651 671 l 618 626 l 638 626 l 660 764 l 751 764 l 626 -24 q 538 -192 610 -133 q 351 -250 467 -250 l 135 -250 m 374 132 q 519 186 461 132 q 592 335 578 240 l 617 494 q 592 644 632 590 q 464 699 551 699 q 319 645 376 699 q 246 494 261 592 l 221 335 q 247 185 207 239 q 374 132 286 132 z "},"ǵ":{"ha":833,"x_min":110,"x_max":751,"o":"m 135 -250 l 149 -167 l 367 -167 q 481 -131 439 -167 q 535 -24 524 -94 l 547 53 l 572 204 l 547 204 l 585 250 q 503 106 571 160 q 338 53 435 53 q 166 129 222 53 q 129 332 110 206 l 156 497 q 210 646 169 583 q 314 743 251 708 q 453 778 376 778 q 601 724 550 778 q 636 581 651 671 l 618 626 l 638 626 l 660 764 l 751 764 l 626 -24 q 538 -192 610 -133 q 351 -250 467 -250 l 135 -250 m 374 132 q 519 186 461 132 q 592 335 578 240 l 617 494 q 592 644 632 590 q 464 699 551 699 q 319 645 376 699 q 246 494 261 592 l 221 335 q 247 185 207 239 q 374 132 286 132 m 435 896 l 613 1090 l 721 1090 l 536 896 l 435 896 z "},"ğ":{"ha":833,"x_min":110,"x_max":751,"o":"m 135 -250 l 149 -167 l 367 -167 q 481 -131 439 -167 q 535 -24 524 -94 l 547 53 l 572 204 l 547 204 l 585 250 q 503 106 571 160 q 338 53 435 53 q 166 129 222 53 q 129 332 110 206 l 156 497 q 210 646 169 583 q 314 743 251 708 q 453 778 376 778 q 601 724 550 778 q 636 581 651 671 l 618 626 l 638 626 l 660 764 l 751 764 l 626 -24 q 538 -192 610 -133 q 351 -250 467 -250 l 135 -250 m 374 132 q 519 186 461 132 q 592 335 578 240 l 617 494 q 592 644 632 590 q 464 699 551 699 q 319 645 376 699 q 246 494 261 592 l 221 335 q 247 185 207 239 q 374 132 286 132 m 493 892 q 349 946 397 892 q 314 1090 300 1000 l 390 1090 q 410 993 381 1029 q 501 957 440 957 q 605 993 563 957 q 656 1090 647 1029 l 733 1090 q 654 946 719 1000 q 493 892 589 892 z "},"ǧ":{"ha":833,"x_min":110,"x_max":751,"o":"m 135 -250 l 149 -167 l 367 -167 q 481 -131 439 -167 q 535 -24 524 -94 l 547 53 l 572 204 l 547 204 l 585 250 q 503 106 571 160 q 338 53 435 53 q 166 129 222 53 q 129 332 110 206 l 156 497 q 210 646 169 583 q 314 743 251 708 q 453 778 376 778 q 601 724 550 778 q 636 581 651 671 l 618 626 l 638 626 l 660 764 l 751 764 l 626 -24 q 538 -192 610 -133 q 351 -250 467 -250 l 135 -250 m 374 132 q 519 186 461 132 q 592 335 578 240 l 617 494 q 592 644 632 590 q 464 699 551 699 q 319 645 376 699 q 246 494 261 592 l 221 335 q 247 185 207 239 q 374 132 286 132 m 447 896 l 300 1090 l 394 1090 l 503 956 l 651 1090 l 750 1090 l 543 896 l 447 896 z "},"ĝ":{"ha":833,"x_min":110,"x_max":751,"o":"m 135 -250 l 149 -167 l 367 -167 q 481 -131 439 -167 q 535 -24 524 -94 l 547 53 l 572 204 l 547 204 l 585 250 q 503 106 571 160 q 338 53 435 53 q 166 129 222 53 q 129 332 110 206 l 156 497 q 210 646 169 583 q 314 743 251 708 q 453 778 376 778 q 601 724 550 778 q 636 581 651 671 l 618 626 l 638 626 l 660 764 l 751 764 l 626 -24 q 538 -192 610 -133 q 351 -250 467 -250 l 135 -250 m 374 132 q 519 186 461 132 q 592 335 578 240 l 617 494 q 592 644 632 590 q 464 699 551 699 q 319 645 376 699 q 246 494 261 592 l 221 335 q 247 185 207 239 q 374 132 286 132 m 268 896 l 475 1090 l 571 1090 l 718 896 l 625 896 l 517 1031 l 369 896 l 268 896 z "},"ģ":{"ha":833,"x_min":110,"x_max":751,"o":"m 135 -250 l 149 -167 l 367 -167 q 481 -131 439 -167 q 535 -24 524 -94 l 547 53 l 572 204 l 547 204 l 585 250 q 503 106 571 160 q 338 53 435 53 q 166 129 222 53 q 129 332 110 206 l 156 497 q 210 646 169 583 q 314 743 251 708 q 453 778 376 778 q 601 724 550 778 q 636 581 651 671 l 618 626 l 638 626 l 660 764 l 751 764 l 626 -24 q 538 -192 610 -133 q 351 -250 467 -250 l 135 -250 m 374 132 q 519 186 461 132 q 592 335 578 240 l 617 494 q 592 644 632 590 q 464 699 551 699 q 319 645 376 699 q 246 494 261 592 l 221 335 q 247 185 207 239 q 374 132 286 132 m 692 1222 l 517 896 l 393 896 l 613 1222 l 692 1222 z "},"ġ":{"ha":833,"x_min":110,"x_max":751,"o":"m 135 -250 l 149 -167 l 367 -167 q 481 -131 439 -167 q 535 -24 524 -94 l 547 53 l 572 204 l 547 204 l 585 250 q 503 106 571 160 q 338 53 435 53 q 166 129 222 53 q 129 332 110 206 l 156 497 q 210 646 169 583 q 314 743 251 708 q 453 778 376 778 q 601 724 550 778 q 636 581 651 671 l 618 626 l 638 626 l 660 764 l 751 764 l 626 -24 q 538 -192 610 -133 q 351 -250 467 -250 l 135 -250 m 374 132 q 519 186 461 132 q 592 335 578 240 l 617 494 q 592 644 632 590 q 464 699 551 699 q 319 645 376 699 q 246 494 261 592 l 221 335 q 247 185 207 239 q 374 132 286 132 m 501 907 q 440 928 463 907 q 419 988 418 950 q 448 1047 422 1025 q 513 1069 474 1069 q 576 1047 553 1069 q 596 988 599 1025 q 567 928 593 950 q 501 907 542 907 z "},"h":{"ha":833,"x_min":82,"x_max":733,"o":"m 82 0 l 243 1014 l 335 1014 l 299 789 l 274 639 l 304 639 l 258 578 q 341 724 274 669 q 506 778 408 778 q 676 706 619 778 q 714 511 733 635 l 632 0 l 540 0 l 619 500 q 595 647 635 594 q 471 700 556 700 q 326 645 385 700 q 251 494 267 590 l 174 0 l 82 0 z "},"ħ":{"ha":833,"x_min":74,"x_max":719,"o":"m 74 806 l 86 885 l 222 885 l 243 1014 l 335 1014 l 314 885 l 556 885 l 543 806 l 301 806 l 282 681 l 261 556 l 265 556 q 352 658 293 621 q 492 694 411 694 q 663 623 606 694 q 700 428 719 551 l 632 0 l 540 0 l 607 417 q 581 564 621 511 q 457 617 542 617 q 313 562 371 617 q 239 411 254 507 l 174 0 l 82 0 l 210 806 l 74 806 z "},"ĥ":{"ha":833,"x_min":64,"x_max":733,"o":"m 82 0 l 243 1014 l 335 1014 l 299 789 l 274 639 l 304 639 l 258 578 q 341 724 274 669 q 506 778 408 778 q 676 706 619 778 q 714 511 733 635 l 632 0 l 540 0 l 619 500 q 595 647 635 594 q 471 700 556 700 q 326 645 385 700 q 251 494 267 590 l 174 0 l 82 0 m 64 1118 l 271 1313 l 367 1313 l 514 1118 l 421 1118 l 313 1253 l 165 1118 l 64 1118 z "},"i":{"ha":833,"x_min":63,"x_max":703,"o":"m 63 0 l 75 83 l 351 83 l 446 681 l 206 681 l 218 764 l 551 764 l 443 83 l 703 83 l 690 0 l 63 0 m 526 907 q 465 928 488 907 q 444 988 443 950 q 473 1047 447 1025 q 538 1069 499 1069 q 601 1047 578 1069 q 621 988 624 1025 q 592 928 618 950 q 526 907 567 907 z "},"ı":{"ha":833,"x_min":63,"x_max":703,"o":"m 63 0 l 75 83 l 351 83 l 446 681 l 206 681 l 218 764 l 551 764 l 443 83 l 703 83 l 690 0 l 63 0 z "},"í":{"ha":833,"x_min":63,"x_max":747,"o":"m 63 0 l 75 83 l 351 83 l 446 681 l 206 681 l 218 764 l 551 764 l 443 83 l 703 83 l 690 0 l 63 0 m 461 896 l 639 1090 l 747 1090 l 563 896 l 461 896 z "},"ĭ":{"ha":833,"x_min":63,"x_max":758,"o":"m 63 0 l 75 83 l 351 83 l 446 681 l 206 681 l 218 764 l 551 764 l 443 83 l 703 83 l 690 0 l 63 0 m 518 892 q 374 946 422 892 q 339 1090 325 1000 l 415 1090 q 435 993 406 1029 q 526 957 465 957 q 630 993 588 957 q 681 1090 672 1029 l 758 1090 q 679 946 744 1000 q 518 892 614 892 z "},"î":{"ha":833,"x_min":63,"x_max":743,"o":"m 63 0 l 75 83 l 351 83 l 446 681 l 206 681 l 218 764 l 551 764 l 443 83 l 703 83 l 690 0 l 63 0 m 293 896 l 500 1090 l 596 1090 l 743 896 l 650 896 l 542 1031 l 394 896 l 293 896 z "},"ï":{"ha":833,"x_min":63,"x_max":769,"o":"m 63 0 l 75 83 l 351 83 l 446 681 l 206 681 l 218 764 l 551 764 l 443 83 l 703 83 l 690 0 l 63 0 m 672 907 q 617 928 636 907 q 604 988 599 950 q 636 1047 611 1025 q 697 1069 661 1069 q 751 1047 732 1069 q 763 988 769 1025 q 732 928 757 950 q 672 907 707 907 m 369 907 q 316 928 335 907 q 303 988 297 950 q 335 1047 310 1025 q 394 1069 360 1069 q 449 1047 429 1069 q 461 988 468 1025 q 431 928 456 950 q 369 907 406 907 z "},"ị":{"ha":833,"x_min":63,"x_max":703,"o":"m 63 0 l 75 83 l 351 83 l 446 681 l 206 681 l 218 764 l 551 764 l 443 83 l 703 83 l 690 0 l 63 0 m 526 907 q 465 928 488 907 q 444 988 443 950 q 473 1047 447 1025 q 538 1069 499 1069 q 601 1047 578 1069 q 621 988 624 1025 q 592 928 618 950 q 526 907 567 907 m 331 -289 q 270 -267 290 -289 q 256 -208 250 -246 q 289 -149 261 -171 q 357 -126 317 -126 q 417 -149 397 -126 q 431 -208 438 -171 q 398 -267 425 -246 q 331 -289 371 -289 z "},"ì":{"ha":833,"x_min":63,"x_max":703,"o":"m 63 0 l 75 83 l 351 83 l 446 681 l 206 681 l 218 764 l 551 764 l 443 83 l 703 83 l 690 0 l 63 0 m 489 896 l 363 1090 l 463 1090 l 582 896 l 489 896 z "},"ỉ":{"ha":833,"x_min":63,"x_max":703,"o":"m 63 0 l 75 83 l 351 83 l 446 681 l 206 681 l 218 764 l 551 764 l 443 83 l 703 83 l 690 0 l 63 0 m 472 896 l 563 994 q 583 1021 574 1008 q 593 1042 592 1033 q 553 1076 599 1076 l 436 1076 l 447 1142 l 578 1142 q 656 1117 629 1142 q 675 1051 682 1093 q 663 1014 672 1033 q 639 978 653 994 l 567 896 l 472 896 z "},"ī":{"ha":833,"x_min":63,"x_max":743,"o":"m 63 0 l 75 83 l 351 83 l 446 681 l 206 681 l 218 764 l 551 764 l 443 83 l 703 83 l 690 0 l 63 0 m 319 942 l 332 1019 l 743 1019 l 731 942 l 319 942 z "},"į":{"ha":833,"x_min":63,"x_max":703,"o":"m 339 -275 q 240 -242 274 -275 q 215 -157 207 -210 q 258 -72 222 -115 q 358 14 293 -28 l 431 14 l 413 0 q 337 -73 364 -37 q 304 -137 310 -108 q 317 -188 300 -169 q 367 -207 333 -207 l 453 -207 l 443 -275 l 339 -275 m 63 0 l 75 83 l 351 83 l 446 681 l 206 681 l 218 764 l 551 764 l 443 83 l 703 83 l 690 0 l 63 0 m 526 907 q 465 928 488 907 q 444 988 443 950 q 473 1047 447 1025 q 538 1069 499 1069 q 601 1047 578 1069 q 621 988 624 1025 q 592 928 618 950 q 526 907 567 907 z "},"ĩ":{"ha":833,"x_min":63,"x_max":769,"o":"m 63 0 l 75 83 l 351 83 l 446 681 l 206 681 l 218 764 l 551 764 l 443 83 l 703 83 l 690 0 l 63 0 m 621 903 q 557 920 581 903 q 517 960 533 938 q 483 1001 500 983 q 443 1018 467 1018 q 398 1001 417 1018 q 375 956 379 985 l 368 910 l 299 910 l 306 956 q 355 1049 315 1015 q 451 1083 394 1083 q 515 1066 492 1083 q 555 1026 539 1049 q 588 985 571 1003 q 628 968 604 968 q 670 985 653 968 q 692 1031 688 1001 l 700 1076 l 769 1076 l 761 1031 q 714 937 751 971 q 621 903 676 903 z "},"j":{"ha":833,"x_min":25,"x_max":728,"o":"m 25 -250 l 39 -167 l 224 -167 q 374 -117 317 -167 q 447 25 432 -67 l 550 681 l 214 681 l 226 764 l 654 764 l 539 25 q 481 -122 525 -60 q 367 -217 436 -183 q 210 -250 297 -250 l 25 -250 m 631 907 q 569 928 592 907 q 549 988 547 950 q 577 1047 551 1025 q 642 1069 603 1069 q 705 1047 682 1069 q 725 988 728 1025 q 697 928 722 950 q 631 907 671 907 z "},"ȷ":{"ha":833,"x_min":25,"x_max":654,"o":"m 25 -250 l 39 -167 l 224 -167 q 374 -117 317 -167 q 447 25 432 -67 l 550 681 l 214 681 l 226 764 l 654 764 l 539 25 q 481 -122 525 -60 q 367 -217 436 -183 q 210 -250 297 -250 l 25 -250 z "},"ĵ":{"ha":833,"x_min":25,"x_max":765,"o":"m 25 -250 l 39 -167 l 224 -167 q 374 -117 317 -167 q 447 25 432 -67 l 550 681 l 214 681 l 226 764 l 654 764 l 539 25 q 481 -122 525 -60 q 367 -217 436 -183 q 210 -250 297 -250 l 25 -250 m 314 896 l 521 1090 l 617 1090 l 764 896 l 671 896 l 563 1031 l 415 896 l 314 896 z "},"k":{"ha":833,"x_min":86,"x_max":801,"o":"m 86 0 l 247 1014 l 339 1014 l 247 438 l 408 438 l 692 764 l 801 764 l 483 394 l 685 0 l 579 0 l 400 356 l 235 356 l 178 0 l 86 0 z "},"ķ":{"ha":833,"x_min":86,"x_max":801,"o":"m 86 0 l 247 1014 l 339 1014 l 247 438 l 408 438 l 692 764 l 801 764 l 483 394 l 685 0 l 579 0 l 400 356 l 235 356 l 178 0 l 86 0 m 171 -333 l 331 -132 l 443 -132 l 265 -333 l 171 -333 z "},"ĸ":{"ha":833,"x_min":88,"x_max":801,"o":"m 88 0 l 208 764 l 300 764 l 247 438 l 407 438 l 692 764 l 801 764 l 486 394 l 685 0 l 579 0 l 401 356 l 235 356 l 179 0 l 88 0 z "},"l":{"ha":833,"x_min":150,"x_max":707,"o":"m 446 0 q 303 53 350 0 q 272 199 257 106 l 388 931 l 150 931 l 164 1014 l 493 1014 l 364 199 q 379 113 354 143 q 458 83 404 83 l 707 83 l 694 0 l 446 0 z "},"ĺ":{"ha":833,"x_min":150,"x_max":707,"o":"m 446 0 q 303 53 350 0 q 272 199 257 106 l 388 931 l 150 931 l 164 1014 l 493 1014 l 364 199 q 379 113 354 143 q 458 83 404 83 l 707 83 l 694 0 l 446 0 m 385 1125 l 563 1319 l 671 1319 l 486 1125 l 385 1125 z "},"ľ":{"ha":833,"x_min":150,"x_max":824,"o":"m 446 0 q 303 53 350 0 q 272 199 257 106 l 388 931 l 150 931 l 164 1014 l 493 1014 l 364 199 q 379 113 354 143 q 458 83 404 83 l 707 83 l 694 0 l 446 0 m 681 764 l 735 1014 l 824 1014 l 756 764 l 681 764 z "},"ļ":{"ha":833,"x_min":149,"x_max":707,"o":"m 446 0 q 303 53 350 0 q 272 199 257 106 l 388 931 l 150 931 l 164 1014 l 493 1014 l 364 199 q 379 113 354 143 q 458 83 404 83 l 707 83 l 694 0 l 446 0 m 149 -333 l 308 -132 l 421 -132 l 243 -333 l 149 -333 z "},"ŀ":{"ha":833,"x_min":122,"x_max":832,"o":"m 418 0 q 276 53 322 0 q 244 199 229 106 l 360 931 l 122 931 l 136 1014 l 465 1014 l 336 199 q 351 113 326 143 q 431 83 376 83 l 679 83 l 667 0 l 418 0 z "},"ł":{"ha":833,"x_min":139,"x_max":707,"o":"m 139 328 l 139 418 l 653 769 l 653 679 l 139 328 m 446 0 q 303 53 350 0 q 272 199 257 106 l 388 931 l 150 931 l 164 1014 l 493 1014 l 364 199 q 379 113 354 143 q 458 83 404 83 l 707 83 l 694 0 l 446 0 z "},"m":{"ha":833,"x_min":42,"x_max":778,"o":"m 42 0 l 163 764 l 243 764 l 228 665 l 242 665 l 229 640 q 279 740 239 703 q 379 778 319 778 q 470 738 440 778 q 493 624 500 697 l 481 665 l 511 665 l 494 640 q 544 740 504 703 q 646 778 585 778 q 747 727 715 778 q 763 592 778 676 l 669 0 l 583 0 l 675 588 q 665 673 683 642 q 604 704 647 704 q 528 673 560 704 q 489 588 497 642 l 396 0 l 315 0 l 408 588 q 397 673 417 642 q 335 704 378 704 q 262 673 292 704 q 221 588 232 642 l 128 0 l 42 0 z "},"n":{"ha":833,"x_min":82,"x_max":733,"o":"m 82 0 l 203 764 l 294 764 l 272 626 l 301 626 l 258 572 q 340 723 274 668 q 506 778 407 778 q 676 706 619 778 q 714 511 733 635 l 632 0 l 540 0 l 619 500 q 595 647 635 594 q 471 700 556 700 q 326 645 385 700 q 251 494 267 590 l 174 0 l 82 0 z "},"ń":{"ha":833,"x_min":82,"x_max":733,"o":"m 82 0 l 203 764 l 294 764 l 272 626 l 301 626 l 258 572 q 340 723 274 668 q 506 778 407 778 q 676 706 619 778 q 714 511 733 635 l 632 0 l 540 0 l 619 500 q 595 647 635 594 q 471 700 556 700 q 326 645 385 700 q 251 494 267 590 l 174 0 l 82 0 m 390 896 l 568 1090 l 676 1090 l 492 896 l 390 896 z "},"ŉ":{"ha":833,"x_min":-93,"x_max":733,"o":"m 82 0 l 203 764 l 294 764 l 272 626 l 301 626 l 258 572 q 340 723 274 668 q 506 778 407 778 q 676 706 619 778 q 714 511 733 635 l 632 0 l 540 0 l 619 500 q 595 647 635 594 q 471 700 556 700 q 326 645 385 700 q 251 494 267 590 l 174 0 l 82 0 m -93 896 l 67 1097 l 179 1097 l 1 896 l -93 896 z "},"ň":{"ha":833,"x_min":82,"x_max":754,"o":"m 82 0 l 203 764 l 294 764 l 272 626 l 301 626 l 258 572 q 340 723 274 668 q 506 778 407 778 q 676 706 619 778 q 714 511 733 635 l 632 0 l 540 0 l 619 500 q 595 647 635 594 q 471 700 556 700 q 326 645 385 700 q 251 494 267 590 l 174 0 l 82 0 m 451 896 l 304 1090 l 399 1090 l 507 956 l 656 1090 l 754 1090 l 547 896 l 451 896 z "},"ņ":{"ha":833,"x_min":82,"x_max":733,"o":"m 82 0 l 203 764 l 294 764 l 272 626 l 301 626 l 258 572 q 340 723 274 668 q 506 778 407 778 q 676 706 619 778 q 714 511 733 635 l 632 0 l 540 0 l 619 500 q 595 647 635 594 q 471 700 556 700 q 326 645 385 700 q 251 494 267 590 l 174 0 l 82 0 m 171 -333 l 331 -132 l 443 -132 l 265 -333 l 171 -333 z "},"ŋ":{"ha":833,"x_min":83,"x_max":732,"o":"m 236 -250 l 250 -167 l 319 -167 q 469 -117 408 -167 q 542 21 529 -67 l 618 500 q 594 647 633 594 q 471 700 556 700 q 326 645 385 700 q 253 494 268 590 l 175 0 l 83 0 l 204 764 l 296 764 l 274 626 l 303 626 l 260 572 q 341 723 275 668 q 506 778 407 778 q 676 706 619 778 q 713 511 732 635 l 633 21 q 576 -123 621 -62 q 461 -217 531 -183 q 306 -250 392 -250 l 236 -250 z "},"ñ":{"ha":833,"x_min":82,"x_max":749,"o":"m 82 0 l 203 764 l 294 764 l 272 626 l 301 626 l 258 572 q 340 723 274 668 q 506 778 407 778 q 676 706 619 778 q 714 511 733 635 l 632 0 l 540 0 l 619 500 q 595 647 635 594 q 471 700 556 700 q 326 645 385 700 q 251 494 267 590 l 174 0 l 82 0 m 600 903 q 536 920 560 903 q 496 960 513 938 q 463 1001 479 983 q 422 1018 446 1018 q 377 1001 396 1018 q 354 956 358 985 l 347 910 l 278 910 l 285 956 q 334 1049 294 1015 q 431 1083 374 1083 q 494 1066 471 1083 q 534 1026 518 1049 q 567 985 550 1003 q 607 968 583 968 q 649 985 632 968 q 671 1031 667 1001 l 679 1076 l 749 1076 l 740 1031 q 693 937 731 971 q 600 903 656 903 z "},"o":{"ha":833,"x_min":106,"x_max":728,"o":"m 353 -14 q 210 20 268 -14 q 129 118 153 54 q 118 269 106 182 l 153 494 q 212 645 168 582 q 325 743 256 708 q 479 778 394 778 q 622 743 565 778 q 703 645 679 708 q 714 494 728 582 l 679 269 q 621 118 665 182 q 508 20 576 54 q 353 -14 439 -14 m 365 67 q 513 119 456 67 q 588 269 571 172 l 622 494 q 597 644 639 592 q 467 697 556 697 q 319 644 378 697 q 244 494 261 592 l 210 269 q 235 119 194 172 q 365 67 276 67 z "},"ó":{"ha":833,"x_min":106,"x_max":728,"o":"m 353 -14 q 210 20 268 -14 q 129 118 153 54 q 118 269 106 182 l 153 494 q 212 645 168 582 q 325 743 256 708 q 479 778 394 778 q 622 743 565 778 q 703 645 679 708 q 714 494 728 582 l 679 269 q 621 118 665 182 q 508 20 576 54 q 353 -14 439 -14 m 365 67 q 513 119 456 67 q 588 269 571 172 l 622 494 q 597 644 639 592 q 467 697 556 697 q 319 644 378 697 q 244 494 261 592 l 210 269 q 235 119 194 172 q 365 67 276 67 m 440 896 l 618 1090 l 726 1090 l 542 896 l 440 896 z "},"ŏ":{"ha":833,"x_min":106,"x_max":738,"o":"m 353 -14 q 210 20 268 -14 q 129 118 153 54 q 118 269 106 182 l 153 494 q 212 645 168 582 q 325 743 256 708 q 479 778 394 778 q 622 743 565 778 q 703 645 679 708 q 714 494 728 582 l 679 269 q 621 118 665 182 q 508 20 576 54 q 353 -14 439 -14 m 365 67 q 513 119 456 67 q 588 269 571 172 l 622 494 q 597 644 639 592 q 467 697 556 697 q 319 644 378 697 q 244 494 261 592 l 210 269 q 235 119 194 172 q 365 67 276 67 m 497 892 q 353 946 401 892 q 318 1090 304 1000 l 394 1090 q 415 993 385 1029 q 506 957 444 957 q 609 993 567 957 q 660 1090 651 1029 l 738 1090 q 658 946 724 1000 q 497 892 593 892 z "},"ô":{"ha":833,"x_min":106,"x_max":728,"o":"m 353 -14 q 210 20 268 -14 q 129 118 153 54 q 118 269 106 182 l 153 494 q 212 645 168 582 q 325 743 256 708 q 479 778 394 778 q 622 743 565 778 q 703 645 679 708 q 714 494 728 582 l 679 269 q 621 118 665 182 q 508 20 576 54 q 353 -14 439 -14 m 365 67 q 513 119 456 67 q 588 269 571 172 l 622 494 q 597 644 639 592 q 467 697 556 697 q 319 644 378 697 q 244 494 261 592 l 210 269 q 235 119 194 172 q 365 67 276 67 m 272 896 l 479 1090 l 575 1090 l 722 896 l 629 896 l 521 1031 l 374 896 l 272 896 z "},"ố":{"ha":833,"x_min":106,"x_max":968,"o":"m 353 -14 q 210 20 268 -14 q 129 118 153 54 q 118 269 106 182 l 153 494 q 212 645 168 582 q 325 743 256 708 q 479 778 394 778 q 622 743 565 778 q 703 645 679 708 q 714 494 728 582 l 679 269 q 621 118 665 182 q 508 20 576 54 q 353 -14 439 -14 m 365 67 q 513 119 456 67 q 588 269 571 172 l 622 494 q 597 644 639 592 q 467 697 556 697 q 319 644 378 697 q 244 494 261 592 l 210 269 q 235 119 194 172 q 365 67 276 67 m 667 1056 l 857 1250 l 968 1250 l 767 1056 l 667 1056 m 272 896 l 479 1090 l 575 1090 l 722 896 l 629 896 l 521 1031 l 374 896 l 272 896 z "},"ộ":{"ha":833,"x_min":106,"x_max":728,"o":"m 272 896 l 479 1090 l 575 1090 l 722 896 l 629 896 l 521 1031 l 374 896 l 272 896 m 353 -14 q 210 20 268 -14 q 129 118 153 54 q 118 269 106 182 l 153 494 q 212 645 168 582 q 325 743 256 708 q 479 778 394 778 q 622 743 565 778 q 703 645 679 708 q 714 494 728 582 l 679 269 q 621 118 665 182 q 508 20 576 54 q 353 -14 439 -14 m 365 67 q 513 119 456 67 q 588 269 571 172 l 622 494 q 597 644 639 592 q 467 697 556 697 q 319 644 378 697 q 244 494 261 592 l 210 269 q 235 119 194 172 q 365 67 276 67 m 324 -289 q 263 -267 283 -289 q 249 -208 243 -246 q 282 -149 254 -171 q 350 -126 310 -126 q 410 -149 390 -126 q 424 -208 431 -171 q 391 -267 418 -246 q 324 -289 364 -289 z "},"ồ":{"ha":833,"x_min":106,"x_max":828,"o":"m 353 -14 q 210 20 268 -14 q 129 118 153 54 q 118 269 106 182 l 153 494 q 212 645 168 582 q 325 743 256 708 q 479 778 394 778 q 622 743 565 778 q 703 645 679 708 q 714 494 728 582 l 679 269 q 621 118 665 182 q 508 20 576 54 q 353 -14 439 -14 m 365 67 q 513 119 456 67 q 588 269 571 172 l 622 494 q 597 644 639 592 q 467 697 556 697 q 319 644 378 697 q 244 494 261 592 l 210 269 q 235 119 194 172 q 365 67 276 67 m 739 1056 l 590 1250 l 690 1250 l 828 1056 l 739 1056 m 272 896 l 479 1090 l 575 1090 l 722 896 l 629 896 l 521 1031 l 374 896 l 272 896 z "},"ổ":{"ha":833,"x_min":106,"x_max":883,"o":"m 353 -14 q 210 20 268 -14 q 129 118 153 54 q 118 269 106 182 l 153 494 q 212 645 168 582 q 325 743 256 708 q 479 778 394 778 q 622 743 565 778 q 703 645 679 708 q 714 494 728 582 l 679 269 q 621 118 665 182 q 508 20 576 54 q 353 -14 439 -14 m 365 67 q 513 119 456 67 q 588 269 571 172 l 622 494 q 597 644 639 592 q 467 697 556 697 q 319 644 378 697 q 244 494 261 592 l 210 269 q 235 119 194 172 q 365 67 276 67 m 685 1056 l 768 1147 q 793 1190 790 1169 q 757 1226 799 1226 l 668 1226 l 678 1289 l 775 1289 q 856 1265 828 1289 q 876 1201 883 1240 q 836 1126 872 1165 l 774 1056 l 685 1056 m 272 896 l 479 1090 l 575 1090 l 722 896 l 629 896 l 521 1031 l 374 896 l 272 896 z "},"ỗ":{"ha":833,"x_min":106,"x_max":768,"o":"m 353 -14 q 210 20 268 -14 q 129 118 153 54 q 118 269 106 182 l 153 494 q 212 645 168 582 q 325 743 256 708 q 479 778 394 778 q 622 743 565 778 q 703 645 679 708 q 714 494 728 582 l 679 269 q 621 118 665 182 q 508 20 576 54 q 353 -14 439 -14 m 365 67 q 513 119 456 67 q 588 269 571 172 l 622 494 q 597 644 639 592 q 467 697 556 697 q 319 644 378 697 q 244 494 261 592 l 210 269 q 235 119 194 172 q 365 67 276 67 m 629 1131 q 568 1144 590 1131 q 531 1177 546 1158 q 501 1210 517 1196 q 460 1224 485 1224 q 401 1174 410 1224 l 396 1139 l 326 1139 l 332 1171 q 376 1256 340 1225 q 469 1286 413 1286 q 532 1272 510 1286 q 568 1240 554 1258 q 597 1207 582 1221 q 639 1193 613 1193 q 693 1243 685 1193 l 699 1278 l 768 1278 l 763 1246 q 719 1161 754 1192 q 629 1131 683 1131 m 272 896 l 479 1090 l 575 1090 l 722 896 l 631 896 l 522 1031 l 374 896 l 272 896 z "},"ö":{"ha":833,"x_min":106,"x_max":749,"o":"m 353 -14 q 210 20 268 -14 q 129 118 153 54 q 118 269 106 182 l 153 494 q 212 645 168 582 q 325 743 256 708 q 479 778 394 778 q 622 743 565 778 q 703 645 679 708 q 714 494 728 582 l 679 269 q 621 118 665 182 q 508 20 576 54 q 353 -14 439 -14 m 365 67 q 513 119 456 67 q 588 269 571 172 l 622 494 q 597 644 639 592 q 467 697 556 697 q 319 644 378 697 q 244 494 261 592 l 210 269 q 235 119 194 172 q 365 67 276 67 m 651 907 q 597 928 615 907 q 583 988 578 950 q 615 1047 590 1025 q 676 1069 640 1069 q 730 1047 711 1069 q 742 988 749 1025 q 711 928 736 950 q 651 907 686 907 m 349 907 q 295 928 314 907 q 282 988 276 950 q 314 1047 289 1025 q 374 1069 339 1069 q 428 1047 408 1069 q 440 988 447 1025 q 410 928 435 950 q 349 907 385 907 z "},"ọ":{"ha":833,"x_min":106,"x_max":728,"o":"m 353 -14 q 210 20 268 -14 q 129 118 153 54 q 118 269 106 182 l 153 494 q 212 645 168 582 q 325 743 256 708 q 479 778 394 778 q 622 743 565 778 q 703 645 679 708 q 714 494 728 582 l 679 269 q 621 118 665 182 q 508 20 576 54 q 353 -14 439 -14 m 365 67 q 513 119 456 67 q 588 269 571 172 l 622 494 q 597 644 639 592 q 467 697 556 697 q 319 644 378 697 q 244 494 261 592 l 210 269 q 235 119 194 172 q 365 67 276 67 m 324 -289 q 263 -267 283 -289 q 249 -208 243 -246 q 282 -149 254 -171 q 350 -126 310 -126 q 410 -149 390 -126 q 424 -208 431 -171 q 391 -267 418 -246 q 324 -289 364 -289 z "},"ò":{"ha":833,"x_min":106,"x_max":728,"o":"m 353 -14 q 210 20 268 -14 q 129 118 153 54 q 118 269 106 182 l 153 494 q 212 645 168 582 q 325 743 256 708 q 479 778 394 778 q 622 743 565 778 q 703 645 679 708 q 714 494 728 582 l 679 269 q 621 118 665 182 q 508 20 576 54 q 353 -14 439 -14 m 365 67 q 513 119 456 67 q 588 269 571 172 l 622 494 q 597 644 639 592 q 467 697 556 697 q 319 644 378 697 q 244 494 261 592 l 210 269 q 235 119 194 172 q 365 67 276 67 m 468 896 l 342 1090 l 442 1090 l 561 896 l 468 896 z "},"ỏ":{"ha":833,"x_min":106,"x_max":728,"o":"m 353 -14 q 210 20 268 -14 q 129 118 153 54 q 118 269 106 182 l 153 494 q 212 645 168 582 q 325 743 256 708 q 479 778 394 778 q 622 743 565 778 q 703 645 679 708 q 714 494 728 582 l 679 269 q 621 118 665 182 q 508 20 576 54 q 353 -14 439 -14 m 365 67 q 513 119 456 67 q 588 269 571 172 l 622 494 q 597 644 639 592 q 467 697 556 697 q 319 644 378 697 q 244 494 261 592 l 210 269 q 235 119 194 172 q 365 67 276 67 m 447 896 l 538 994 q 558 1021 549 1008 q 568 1042 567 1033 q 528 1076 574 1076 l 411 1076 l 422 1142 l 553 1142 q 631 1117 604 1142 q 650 1051 657 1093 q 638 1014 647 1033 q 614 978 628 994 l 542 896 l 447 896 z "},"ơ":{"ha":833,"x_min":106,"x_max":818,"o":"m 603 671 l 614 736 l 663 736 q 706 753 688 736 q 728 797 724 769 l 743 889 l 818 889 l 803 794 q 753 705 793 739 q 654 671 713 671 l 603 671 m 353 -14 q 210 20 268 -14 q 129 118 153 54 q 118 269 106 182 l 153 494 q 212 645 168 582 q 325 743 256 708 q 479 778 394 778 q 622 743 565 778 q 703 645 679 708 q 714 494 728 582 l 679 269 q 621 118 665 182 q 508 20 576 54 q 353 -14 439 -14 m 365 67 q 513 119 456 67 q 588 269 571 172 l 622 494 q 597 644 639 592 q 467 697 556 697 q 319 644 378 697 q 244 494 261 592 l 210 269 q 235 119 194 172 q 365 67 276 67 z "},"ớ":{"ha":833,"x_min":106,"x_max":818,"o":"m 603 671 l 614 736 l 663 736 q 706 753 688 736 q 728 797 724 769 l 743 889 l 818 889 l 803 794 q 753 705 793 739 q 654 671 713 671 l 603 671 m 353 -14 q 210 20 268 -14 q 129 118 153 54 q 118 269 106 182 l 153 494 q 212 645 168 582 q 325 743 256 708 q 479 778 394 778 q 622 743 565 778 q 703 645 679 708 q 714 494 728 582 l 679 269 q 621 118 665 182 q 508 20 576 54 q 353 -14 439 -14 m 365 67 q 513 119 456 67 q 588 269 571 172 l 622 494 q 597 644 639 592 q 467 697 556 697 q 319 644 378 697 q 244 494 261 592 l 210 269 q 235 119 194 172 q 365 67 276 67 m 432 896 l 610 1090 l 718 1090 l 533 896 l 432 896 z "},"ợ":{"ha":833,"x_min":106,"x_max":818,"o":"m 603 671 l 614 736 l 663 736 q 706 753 688 736 q 728 797 724 769 l 743 889 l 818 889 l 803 794 q 753 705 793 739 q 654 671 713 671 l 603 671 m 353 -14 q 210 20 268 -14 q 129 118 153 54 q 118 269 106 182 l 153 494 q 212 645 168 582 q 325 743 256 708 q 479 778 394 778 q 622 743 565 778 q 703 645 679 708 q 714 494 728 582 l 679 269 q 621 118 665 182 q 508 20 576 54 q 353 -14 439 -14 m 365 67 q 513 119 456 67 q 588 269 571 172 l 622 494 q 597 644 639 592 q 467 697 556 697 q 319 644 378 697 q 244 494 261 592 l 210 269 q 235 119 194 172 q 365 67 276 67 m 324 -289 q 263 -267 283 -289 q 249 -208 243 -246 q 282 -149 254 -171 q 350 -126 310 -126 q 410 -149 390 -126 q 424 -208 431 -171 q 391 -267 418 -246 q 324 -289 364 -289 z "},"ờ":{"ha":833,"x_min":106,"x_max":818,"o":"m 603 671 l 614 736 l 663 736 q 706 753 688 736 q 728 797 724 769 l 743 889 l 818 889 l 803 794 q 753 705 793 739 q 654 671 713 671 l 603 671 m 353 -14 q 210 20 268 -14 q 129 118 153 54 q 118 269 106 182 l 153 494 q 212 645 168 582 q 325 743 256 708 q 479 778 394 778 q 622 743 565 778 q 703 645 679 708 q 714 494 728 582 l 679 269 q 621 118 665 182 q 508 20 576 54 q 353 -14 439 -14 m 365 67 q 513 119 456 67 q 588 269 571 172 l 622 494 q 597 644 639 592 q 467 697 556 697 q 319 644 378 697 q 244 494 261 592 l 210 269 q 235 119 194 172 q 365 67 276 67 m 460 896 l 333 1090 l 433 1090 l 553 896 l 460 896 z "},"ở":{"ha":833,"x_min":106,"x_max":818,"o":"m 603 671 l 614 736 l 663 736 q 706 753 688 736 q 728 797 724 769 l 743 889 l 818 889 l 803 794 q 753 705 793 739 q 654 671 713 671 l 603 671 m 353 -14 q 210 20 268 -14 q 129 118 153 54 q 118 269 106 182 l 153 494 q 212 645 168 582 q 325 743 256 708 q 479 778 394 778 q 622 743 565 778 q 703 645 679 708 q 714 494 728 582 l 679 269 q 621 118 665 182 q 508 20 576 54 q 353 -14 439 -14 m 365 67 q 513 119 456 67 q 588 269 571 172 l 622 494 q 597 644 639 592 q 467 697 556 697 q 319 644 378 697 q 244 494 261 592 l 210 269 q 235 119 194 172 q 365 67 276 67 m 447 896 l 538 994 q 558 1021 549 1008 q 568 1042 567 1033 q 528 1076 574 1076 l 411 1076 l 422 1142 l 553 1142 q 631 1117 604 1142 q 650 1051 657 1093 q 638 1014 647 1033 q 614 978 628 994 l 542 896 l 447 896 z "},"ỡ":{"ha":833,"x_min":106,"x_max":818,"o":"m 603 671 l 614 736 l 663 736 q 706 753 688 736 q 728 797 724 769 l 743 889 l 818 889 l 803 794 q 753 705 793 739 q 654 671 713 671 l 603 671 m 353 -14 q 210 20 268 -14 q 129 118 153 54 q 118 269 106 182 l 153 494 q 212 645 168 582 q 325 743 256 708 q 479 778 394 778 q 622 743 565 778 q 703 645 679 708 q 714 494 728 582 l 679 269 q 621 118 665 182 q 508 20 576 54 q 353 -14 439 -14 m 365 67 q 513 119 456 67 q 588 269 571 172 l 622 494 q 597 644 639 592 q 467 697 556 697 q 319 644 378 697 q 244 494 261 592 l 210 269 q 235 119 194 172 q 365 67 276 67 m 592 903 q 528 920 551 903 q 488 960 504 938 q 454 1001 471 983 q 414 1018 438 1018 q 369 1001 388 1018 q 346 956 350 985 l 339 910 l 269 910 l 276 956 q 326 1049 286 1015 q 422 1083 365 1083 q 486 1066 463 1083 q 526 1026 510 1049 q 558 985 542 1003 q 599 968 575 968 q 641 985 624 968 q 663 1031 658 1001 l 671 1076 l 740 1076 l 732 1031 q 685 937 722 971 q 592 903 647 903 z "},"ő":{"ha":833,"x_min":106,"x_max":824,"o":"m 353 -14 q 210 20 268 -14 q 129 118 153 54 q 118 269 106 182 l 153 494 q 212 645 168 582 q 325 743 256 708 q 479 778 394 778 q 622 743 565 778 q 703 645 679 708 q 714 494 728 582 l 679 269 q 621 118 665 182 q 508 20 576 54 q 353 -14 439 -14 m 365 67 q 513 119 456 67 q 588 269 571 172 l 622 494 q 597 644 639 592 q 467 697 556 697 q 319 644 378 697 q 244 494 261 592 l 210 269 q 235 119 194 172 q 365 67 276 67 m 539 896 l 719 1090 l 824 1090 l 635 896 l 539 896 m 306 896 l 486 1090 l 590 1090 l 403 896 l 306 896 z "},"ō":{"ha":833,"x_min":106,"x_max":728,"o":"m 353 -14 q 210 20 268 -14 q 129 118 153 54 q 118 269 106 182 l 153 494 q 212 645 168 582 q 325 743 256 708 q 479 778 394 778 q 622 743 565 778 q 703 645 679 708 q 714 494 728 582 l 679 269 q 621 118 665 182 q 508 20 576 54 q 353 -14 439 -14 m 365 67 q 513 119 456 67 q 588 269 571 172 l 622 494 q 597 644 639 592 q 467 697 556 697 q 319 644 378 697 q 244 494 261 592 l 210 269 q 235 119 194 172 q 365 67 276 67 m 299 942 l 311 1019 l 722 1019 l 710 942 l 299 942 z "},"ǫ":{"ha":833,"x_min":106,"x_max":728,"o":"m 413 -275 q 315 -242 349 -275 q 290 -157 281 -210 q 319 -90 294 -125 q 397 -11 344 -54 q 383 -12 390 -11 q 368 -13 375 -12 q 353 -14 361 -14 q 210 20 268 -14 q 129 118 153 54 q 118 269 106 182 l 153 494 q 212 645 168 582 q 325 743 256 708 q 479 778 394 778 q 622 743 565 778 q 703 645 679 708 q 714 494 728 582 l 679 269 q 626 128 665 189 q 528 32 588 68 l 488 0 q 411 -73 439 -37 q 379 -137 383 -108 q 390 -188 374 -169 q 442 -207 407 -207 l 528 -207 l 517 -275 l 413 -275 m 365 67 q 513 119 456 67 q 588 269 571 172 l 622 494 q 597 644 639 592 q 467 697 556 697 q 319 644 378 697 q 244 494 261 592 l 210 269 q 235 119 194 172 q 365 67 276 67 z "},"ø":{"ha":833,"x_min":0,"x_max":833,"o":"m 0 -42 l 739 819 l 833 819 l 94 -42 l 0 -42 m 353 -14 q 210 20 268 -14 q 129 118 153 54 q 118 269 106 182 l 153 494 q 211 645 167 582 q 325 743 256 708 q 479 778 394 778 q 623 743 565 778 q 705 645 681 708 q 714 494 729 582 l 679 269 q 621 118 665 182 q 508 20 576 54 q 353 -14 439 -14 m 365 67 q 515 120 457 67 q 590 269 574 174 l 625 494 q 598 644 640 590 q 467 697 556 697 q 317 644 376 697 q 242 494 258 590 l 207 269 q 233 120 192 174 q 365 67 275 67 z "},"ǿ":{"ha":833,"x_min":0,"x_max":833,"o":"m 0 -42 l 739 819 l 833 819 l 94 -42 l 0 -42 m 353 -14 q 210 20 268 -14 q 129 118 153 54 q 118 269 106 182 l 153 494 q 211 645 167 582 q 325 743 256 708 q 479 778 394 778 q 623 743 565 778 q 705 645 681 708 q 714 494 729 582 l 679 269 q 621 118 665 182 q 508 20 576 54 q 353 -14 439 -14 m 365 67 q 515 120 457 67 q 590 269 574 174 l 625 494 q 598 644 640 590 q 467 697 556 697 q 317 644 376 697 q 242 494 258 590 l 207 269 q 233 120 192 174 q 365 67 275 67 m 440 896 l 618 1090 l 726 1090 l 542 896 l 440 896 z "},"õ":{"ha":833,"x_min":106,"x_max":749,"o":"m 353 -14 q 210 20 268 -14 q 129 118 153 54 q 118 269 106 182 l 153 494 q 212 645 168 582 q 325 743 256 708 q 479 778 394 778 q 622 743 565 778 q 703 645 679 708 q 714 494 728 582 l 679 269 q 621 118 665 182 q 508 20 576 54 q 353 -14 439 -14 m 365 67 q 513 119 456 67 q 588 269 571 172 l 622 494 q 597 644 639 592 q 467 697 556 697 q 319 644 378 697 q 244 494 261 592 l 210 269 q 235 119 194 172 q 365 67 276 67 m 600 903 q 536 920 560 903 q 496 960 513 938 q 463 1001 479 983 q 422 1018 446 1018 q 377 1001 396 1018 q 354 956 358 985 l 347 910 l 278 910 l 285 956 q 334 1049 294 1015 q 431 1083 374 1083 q 494 1066 471 1083 q 534 1026 518 1049 q 567 985 550 1003 q 607 968 583 968 q 649 985 632 968 q 671 1031 667 1001 l 679 1076 l 749 1076 l 740 1031 q 693 937 731 971 q 600 903 656 903 z "},"œ":{"ha":833,"x_min":4,"x_max":829,"o":"m 181 -14 q 47 44 90 -14 q 19 199 4 101 l 76 563 q 157 719 93 661 q 313 778 221 778 q 399 759 367 778 q 447 714 432 740 q 461 661 461 688 l 465 661 q 497 714 474 688 q 558 759 519 740 q 649 778 597 778 q 785 719 740 778 q 813 564 829 661 l 781 356 l 458 356 l 433 200 q 451 103 425 140 q 529 65 476 65 q 615 96 578 65 q 665 174 653 126 l 754 174 q 669 38 732 89 q 525 -14 607 -14 q 438 5 471 -14 q 390 50 404 24 q 376 101 376 76 l 371 101 q 340 50 364 76 q 277 5 317 24 q 181 -14 238 -14 m 207 65 q 298 103 260 65 q 344 200 336 140 l 403 564 q 387 661 413 624 q 307 699 361 699 q 215 661 254 699 q 167 563 176 624 l 108 199 q 127 102 100 139 q 207 65 154 65 m 471 438 l 704 438 l 724 564 q 707 661 733 624 q 628 699 681 699 q 538 661 575 699 q 492 564 501 624 l 471 438 z "},"p":{"ha":833,"x_min":42,"x_max":735,"o":"m 42 -250 l 203 764 l 294 764 l 275 643 l 308 643 l 257 578 q 340 724 271 669 q 508 778 410 778 q 679 702 624 778 q 714 499 735 626 l 678 267 q 624 119 665 182 q 521 21 583 56 q 382 -14 458 -14 q 232 41 283 -14 q 194 186 181 96 l 218 121 l 192 121 l 172 -11 l 133 -250 l 42 -250 m 369 65 q 514 119 457 65 q 588 269 571 172 l 622 496 q 599 646 639 593 q 471 699 558 699 q 326 645 383 699 q 251 496 268 592 l 217 269 q 242 119 200 174 q 369 65 283 65 z "},"þ":{"ha":833,"x_min":39,"x_max":732,"o":"m 39 -250 l 92 82 l 183 82 l 131 -250 l 39 -250 m 379 -14 q 229 40 281 -14 q 192 186 178 94 l 224 121 l 190 121 l 171 0 l 79 0 l 240 1014 l 332 1014 l 297 800 l 271 643 l 297 643 l 254 578 q 338 723 268 668 q 506 778 408 778 q 676 701 621 778 q 711 497 732 625 l 675 265 q 621 118 663 181 q 517 21 579 56 q 379 -14 456 -14 m 367 65 q 511 119 454 65 q 585 268 568 172 l 619 494 q 595 645 636 592 q 467 699 554 699 q 322 644 379 699 q 249 494 265 590 l 214 268 q 239 119 197 174 q 367 65 281 65 z "},"q":{"ha":833,"x_min":97,"x_max":750,"o":"m 497 -250 l 532 -36 l 558 121 l 532 121 l 575 186 q 492 41 561 96 q 324 -14 422 -14 q 153 63 210 -14 q 118 267 97 139 l 154 499 q 209 647 168 583 q 312 744 250 710 q 450 778 374 778 q 601 724 549 778 q 638 578 653 669 l 606 643 l 639 643 l 658 764 l 750 764 l 589 -250 l 497 -250 m 363 65 q 508 119 450 65 q 581 269 565 174 l 615 496 q 591 645 632 592 q 463 699 550 699 q 318 646 375 699 q 244 496 261 593 l 210 269 q 235 119 194 174 q 363 65 275 65 z "},"r":{"ha":833,"x_min":107,"x_max":765,"o":"m 107 0 l 228 764 l 318 764 l 299 643 l 328 643 l 274 553 q 358 719 292 661 q 526 778 424 778 q 707 703 649 778 q 746 499 765 628 l 739 456 l 643 456 l 650 494 q 625 646 665 592 q 496 700 585 700 q 350 646 408 700 q 276 494 292 592 l 199 0 l 107 0 z "},"ŕ":{"ha":833,"x_min":107,"x_max":765,"o":"m 107 0 l 228 764 l 318 764 l 299 643 l 328 643 l 274 553 q 358 719 292 661 q 526 778 424 778 q 707 703 649 778 q 746 499 765 628 l 739 456 l 643 456 l 650 494 q 625 646 665 592 q 496 700 585 700 q 350 646 408 700 q 276 494 292 592 l 199 0 l 107 0 m 468 896 l 646 1090 l 754 1090 l 569 896 l 468 896 z "},"ř":{"ha":833,"x_min":107,"x_max":782,"o":"m 107 0 l 228 764 l 318 764 l 299 643 l 328 643 l 274 553 q 358 719 292 661 q 526 778 424 778 q 707 703 649 778 q 746 499 765 628 l 739 456 l 643 456 l 650 494 q 625 646 665 592 q 496 700 585 700 q 350 646 408 700 q 276 494 292 592 l 199 0 l 107 0 m 479 896 l 332 1090 l 426 1090 l 535 956 l 683 1090 l 782 1090 l 575 896 l 479 896 z "},"ŗ":{"ha":833,"x_min":-58,"x_max":765,"o":"m 107 0 l 228 764 l 318 764 l 299 643 l 328 643 l 274 553 q 358 719 292 661 q 526 778 424 778 q 707 703 649 778 q 746 499 765 628 l 739 456 l 643 456 l 650 494 q 625 646 665 592 q 496 700 585 700 q 350 646 408 700 q 276 494 292 592 l 199 0 l 107 0 m -58 -333 l 101 -132 l 214 -132 l 36 -333 l -58 -333 z "},"s":{"ha":833,"x_min":89,"x_max":733,"o":"m 317 -14 q 148 42 207 -14 q 93 188 89 97 l 185 188 q 225 102 186 136 q 331 68 264 68 l 410 68 q 533 104 486 68 q 589 200 579 140 q 569 293 597 256 q 479 339 540 331 l 353 358 q 206 425 253 374 q 174 567 158 476 q 264 721 189 664 q 457 778 339 778 l 513 778 q 676 726 619 778 q 732 588 733 674 l 640 588 q 603 665 640 635 q 500 696 567 696 l 443 696 q 322 661 368 696 q 265 567 275 626 q 285 483 258 513 q 379 442 313 453 l 504 422 q 650 351 604 407 q 682 203 696 296 q 590 44 665 103 q 396 -14 515 -14 l 317 -14 z "},"ś":{"ha":833,"x_min":89,"x_max":740,"o":"m 317 -14 q 148 42 207 -14 q 93 188 89 97 l 185 188 q 225 102 186 136 q 331 68 264 68 l 410 68 q 533 104 486 68 q 589 200 579 140 q 569 293 597 256 q 479 339 540 331 l 353 358 q 206 425 253 374 q 174 567 158 476 q 264 721 189 664 q 457 778 339 778 l 513 778 q 676 726 619 778 q 732 588 733 674 l 640 588 q 603 665 640 635 q 500 696 567 696 l 443 696 q 322 661 368 696 q 265 567 275 626 q 285 483 258 513 q 379 442 313 453 l 504 422 q 650 351 604 407 q 682 203 696 296 q 590 44 665 103 q 396 -14 515 -14 l 317 -14 m 454 896 l 632 1090 l 740 1090 l 556 896 l 454 896 z "},"š":{"ha":833,"x_min":89,"x_max":768,"o":"m 317 -14 q 148 42 207 -14 q 93 188 89 97 l 185 188 q 225 102 186 136 q 331 68 264 68 l 410 68 q 533 104 486 68 q 589 200 579 140 q 569 293 597 256 q 479 339 540 331 l 353 358 q 206 425 253 374 q 174 567 158 476 q 264 721 189 664 q 457 778 339 778 l 513 778 q 676 726 619 778 q 732 588 733 674 l 640 588 q 603 665 640 635 q 500 696 567 696 l 443 696 q 322 661 368 696 q 265 567 275 626 q 285 483 258 513 q 379 442 313 453 l 504 422 q 650 351 604 407 q 682 203 696 296 q 590 44 665 103 q 396 -14 515 -14 l 317 -14 m 465 896 l 318 1090 l 413 1090 l 521 956 l 669 1090 l 768 1090 l 561 896 l 465 896 z "},"ş":{"ha":833,"x_min":89,"x_max":733,"o":"m 274 -275 l 279 -215 l 385 -215 q 438 -198 417 -215 q 461 -161 460 -181 q 425 -111 465 -131 q 313 -92 385 -92 l 372 36 l 439 36 l 400 -47 q 470 -63 435 -50 q 528 -101 506 -76 q 547 -165 551 -126 q 499 -243 543 -211 q 388 -275 456 -275 l 274 -275 m 317 -14 q 148 42 207 -14 q 93 188 89 97 l 185 188 q 225 102 186 136 q 331 68 264 68 l 410 68 q 533 104 486 68 q 589 200 579 140 q 569 293 597 256 q 479 339 540 331 l 353 358 q 206 425 253 374 q 174 567 158 476 q 264 721 189 664 q 457 778 339 778 l 513 778 q 676 726 619 778 q 732 588 733 674 l 640 588 q 603 665 640 635 q 500 696 567 696 l 443 696 q 322 661 368 696 q 265 567 275 626 q 285 483 258 513 q 379 442 313 453 l 504 422 q 650 351 604 407 q 682 203 696 296 q 590 44 665 103 q 396 -14 515 -14 l 317 -14 z "},"ŝ":{"ha":833,"x_min":89,"x_max":736,"o":"m 317 -14 q 148 42 207 -14 q 93 188 89 97 l 185 188 q 225 102 186 136 q 331 68 264 68 l 410 68 q 533 104 486 68 q 589 200 579 140 q 569 293 597 256 q 479 339 540 331 l 353 358 q 206 425 253 374 q 174 567 158 476 q 264 721 189 664 q 457 778 339 778 l 513 778 q 676 726 619 778 q 732 588 733 674 l 640 588 q 603 665 640 635 q 500 696 567 696 l 443 696 q 322 661 368 696 q 265 567 275 626 q 285 483 258 513 q 379 442 313 453 l 504 422 q 650 351 604 407 q 682 203 696 296 q 590 44 665 103 q 396 -14 515 -14 l 317 -14 m 286 896 l 493 1090 l 589 1090 l 736 896 l 643 896 l 535 1031 l 388 896 l 286 896 z "},"ș":{"ha":833,"x_min":89,"x_max":733,"o":"m 317 -14 q 148 42 207 -14 q 93 188 89 97 l 185 188 q 225 102 186 136 q 331 68 264 68 l 410 68 q 533 104 486 68 q 589 200 579 140 q 569 293 597 256 q 479 339 540 331 l 353 358 q 206 425 253 374 q 174 567 158 476 q 264 721 189 664 q 457 778 339 778 l 513 778 q 676 726 619 778 q 732 588 733 674 l 640 588 q 603 665 640 635 q 500 696 567 696 l 443 696 q 322 661 368 696 q 265 567 275 626 q 285 483 258 513 q 379 442 313 453 l 504 422 q 650 351 604 407 q 682 203 696 296 q 590 44 665 103 q 396 -14 515 -14 l 317 -14 m 165 -333 l 325 -132 l 438 -132 l 260 -333 l 165 -333 z "},"ß":{"ha":833,"x_min":-183,"x_max":776,"o":"m -183 -250 l -169 -167 l -57 -167 q 31 -139 -1 -167 q 72 -57 64 -111 l 200 749 q 258 896 214 833 q 372 993 303 958 q 524 1028 440 1028 q 668 997 610 1028 q 751 906 726 965 q 764 767 776 847 q 715 639 753 694 q 619 552 676 583 q 494 521 563 521 l 496 538 q 625 508 574 539 q 699 422 676 478 q 708 289 721 365 q 649 137 694 201 q 531 36 603 72 q 368 0 460 0 l 279 0 l 293 83 l 375 83 q 537 137 475 83 q 613 283 599 190 q 583 428 628 376 q 439 479 539 479 l 381 479 l 393 560 l 450 560 q 596 614 538 560 q 667 751 654 668 q 640 893 682 842 q 511 944 599 944 q 366 892 425 944 q 292 749 307 839 l 164 -57 q 88 -198 150 -146 q -71 -250 25 -250 l -183 -250 z "},"ſ":{"ha":833,"x_min":-47,"x_max":850,"o":"m -47 -250 l -33 -167 l 124 -167 q 210 -139 178 -167 q 251 -57 243 -111 l 392 821 q 433 924 401 881 q 513 990 464 967 q 626 1014 563 1014 l 850 1014 l 836 931 l 611 931 q 524 903 557 931 q 483 821 492 875 l 343 -57 q 267 -198 331 -146 q 108 -250 204 -250 l -47 -250 z "},"t":{"ha":833,"x_min":136,"x_max":769,"o":"m 439 0 q 305 48 347 0 q 276 185 263 96 l 356 681 l 136 681 l 149 764 l 368 764 l 401 972 l 493 972 l 460 764 l 769 764 l 757 681 l 447 681 l 368 185 q 451 83 353 83 l 647 83 l 635 0 l 439 0 z "},"ŧ":{"ha":833,"x_min":119,"x_max":769,"o":"m 119 350 l 132 428 l 658 428 l 646 350 l 119 350 m 439 0 q 305 48 347 0 q 276 185 263 96 l 356 681 l 136 681 l 149 764 l 368 764 l 401 972 l 493 972 l 460 764 l 769 764 l 757 681 l 447 681 l 368 185 q 451 83 353 83 l 647 83 l 635 0 l 439 0 z "},"ť":{"ha":833,"x_min":136,"x_max":865,"o":"m 603 861 l 754 1078 l 865 1078 l 692 861 l 603 861 m 439 0 q 305 48 347 0 q 276 185 263 96 l 356 681 l 136 681 l 149 764 l 368 764 l 401 972 l 493 972 l 460 764 l 769 764 l 757 681 l 447 681 l 368 185 q 451 83 353 83 l 647 83 l 635 0 l 439 0 z "},"ţ":{"ha":833,"x_min":136,"x_max":769,"o":"m 372 -275 l 372 -215 l 478 -215 q 530 -198 510 -215 q 550 -161 550 -181 q 508 -111 550 -131 q 393 -92 465 -92 l 442 36 l 508 36 l 478 -47 q 549 -63 513 -50 q 611 -101 586 -76 q 636 -165 636 -126 q 595 -243 636 -211 q 486 -275 554 -275 l 372 -275 m 439 0 q 305 48 347 0 q 276 185 263 96 l 356 681 l 136 681 l 149 764 l 368 764 l 401 972 l 493 972 l 460 764 l 769 764 l 757 681 l 447 681 l 368 185 q 451 83 353 83 l 647 83 l 635 0 l 439 0 z "},"ț":{"ha":833,"x_min":136,"x_max":769,"o":"m 439 0 q 305 48 347 0 q 276 185 263 96 l 356 681 l 136 681 l 149 764 l 368 764 l 401 972 l 493 972 l 460 764 l 769 764 l 757 681 l 447 681 l 368 185 q 451 83 353 83 l 647 83 l 635 0 l 439 0 m 171 -333 l 331 -132 l 443 -132 l 265 -333 l 171 -333 z "},"u":{"ha":833,"x_min":101,"x_max":753,"o":"m 351 -14 q 163 63 225 -14 q 122 272 101 140 l 200 764 l 292 764 l 214 272 q 239 122 199 176 q 365 68 279 68 q 510 122 453 68 q 585 272 568 176 l 661 764 l 753 764 l 676 272 q 618 120 663 185 q 506 21 574 56 q 351 -14 438 -14 z "},"ú":{"ha":833,"x_min":101,"x_max":753,"o":"m 351 -14 q 163 63 225 -14 q 122 272 101 140 l 200 764 l 292 764 l 214 272 q 239 122 199 176 q 365 68 279 68 q 510 122 453 68 q 585 272 568 176 l 661 764 l 753 764 l 676 272 q 618 120 663 185 q 506 21 574 56 q 351 -14 438 -14 m 440 896 l 618 1090 l 726 1090 l 542 896 l 440 896 z "},"ŭ":{"ha":833,"x_min":101,"x_max":753,"o":"m 351 -14 q 163 63 225 -14 q 122 272 101 140 l 200 764 l 292 764 l 214 272 q 239 122 199 176 q 365 68 279 68 q 510 122 453 68 q 585 272 568 176 l 661 764 l 753 764 l 676 272 q 618 120 663 185 q 506 21 574 56 q 351 -14 438 -14 m 497 892 q 353 946 401 892 q 318 1090 304 1000 l 394 1090 q 415 993 385 1029 q 506 957 444 957 q 609 993 567 957 q 660 1090 651 1029 l 738 1090 q 658 946 724 1000 q 497 892 593 892 z "},"û":{"ha":833,"x_min":101,"x_max":753,"o":"m 351 -14 q 163 63 225 -14 q 122 272 101 140 l 200 764 l 292 764 l 214 272 q 239 122 199 176 q 365 68 279 68 q 510 122 453 68 q 585 272 568 176 l 661 764 l 753 764 l 676 272 q 618 120 663 185 q 506 21 574 56 q 351 -14 438 -14 m 272 896 l 479 1090 l 575 1090 l 722 896 l 629 896 l 521 1031 l 374 896 l 272 896 z "},"ü":{"ha":833,"x_min":101,"x_max":753,"o":"m 351 -14 q 163 63 225 -14 q 122 272 101 140 l 200 764 l 292 764 l 214 272 q 239 122 199 176 q 365 68 279 68 q 510 122 453 68 q 585 272 568 176 l 661 764 l 753 764 l 676 272 q 618 120 663 185 q 506 21 574 56 q 351 -14 438 -14 m 651 907 q 597 928 615 907 q 583 988 578 950 q 615 1047 590 1025 q 676 1069 640 1069 q 730 1047 711 1069 q 742 988 749 1025 q 711 928 736 950 q 651 907 686 907 m 349 907 q 295 928 314 907 q 282 988 276 950 q 314 1047 289 1025 q 374 1069 339 1069 q 428 1047 408 1069 q 440 988 447 1025 q 410 928 435 950 q 349 907 385 907 z "},"ụ":{"ha":833,"x_min":101,"x_max":753,"o":"m 351 -14 q 163 63 225 -14 q 122 272 101 140 l 200 764 l 292 764 l 214 272 q 239 122 199 176 q 365 68 279 68 q 510 122 453 68 q 585 272 568 176 l 661 764 l 753 764 l 676 272 q 618 120 663 185 q 506 21 574 56 q 351 -14 438 -14 m 310 -289 q 249 -267 269 -289 q 235 -208 229 -246 q 268 -149 240 -171 q 336 -126 296 -126 q 397 -149 376 -126 q 410 -208 417 -171 q 377 -267 404 -246 q 310 -289 350 -289 z "},"ù":{"ha":833,"x_min":101,"x_max":753,"o":"m 351 -14 q 163 63 225 -14 q 122 272 101 140 l 200 764 l 292 764 l 214 272 q 239 122 199 176 q 365 68 279 68 q 510 122 453 68 q 585 272 568 176 l 661 764 l 753 764 l 676 272 q 618 120 663 185 q 506 21 574 56 q 351 -14 438 -14 m 468 896 l 342 1090 l 442 1090 l 561 896 l 468 896 z "},"ủ":{"ha":833,"x_min":101,"x_max":753,"o":"m 351 -14 q 163 63 225 -14 q 122 272 101 140 l 200 764 l 292 764 l 214 272 q 239 122 199 176 q 365 68 279 68 q 510 122 453 68 q 585 272 568 176 l 661 764 l 753 764 l 676 272 q 618 120 663 185 q 506 21 574 56 q 351 -14 438 -14 m 447 896 l 538 994 q 558 1021 549 1008 q 568 1042 567 1033 q 528 1076 574 1076 l 411 1076 l 422 1142 l 553 1142 q 631 1117 604 1142 q 650 1051 657 1093 q 638 1014 647 1033 q 614 978 628 994 l 542 896 l 447 896 z "},"ư":{"ha":833,"x_min":101,"x_max":899,"o":"m 122 272 l 200 764 l 292 764 l 214 272 q 239 122 199 176 q 365 68 279 68 q 510 122 453 68 q 585 272 568 176 l 661 764 l 742 764 q 785 781 767 764 q 808 825 803 797 l 824 917 l 899 917 l 882 822 q 838 733 874 767 q 743 699 801 699 l 676 272 q 618 120 663 185 q 506 21 574 56 q 351 -14 438 -14 q 163 63 225 -14 q 122 272 101 140 z "},"ứ":{"ha":833,"x_min":101,"x_max":899,"o":"m 122 272 l 200 764 l 292 764 l 214 272 q 239 122 199 176 q 365 68 279 68 q 510 122 453 68 q 585 272 568 176 l 661 764 l 742 764 q 785 781 767 764 q 808 825 803 797 l 824 917 l 899 917 l 882 822 q 838 733 874 767 q 743 699 801 699 l 676 272 q 618 120 663 185 q 506 21 574 56 q 351 -14 438 -14 q 163 63 225 -14 q 122 272 101 140 m 440 896 l 618 1090 l 726 1090 l 542 896 l 440 896 z "},"ự":{"ha":833,"x_min":101,"x_max":899,"o":"m 122 272 l 200 764 l 292 764 l 214 272 q 239 122 199 176 q 365 68 279 68 q 510 122 453 68 q 585 272 568 176 l 661 764 l 742 764 q 785 781 767 764 q 808 825 803 797 l 824 917 l 899 917 l 882 822 q 838 733 874 767 q 743 699 801 699 l 676 272 q 618 120 663 185 q 506 21 574 56 q 351 -14 438 -14 q 163 63 225 -14 q 122 272 101 140 m 308 -289 q 248 -267 268 -289 q 233 -208 228 -246 q 267 -149 239 -171 q 335 -126 294 -126 q 395 -149 375 -126 q 408 -208 415 -171 q 376 -267 403 -246 q 308 -289 349 -289 z "},"ừ":{"ha":833,"x_min":101,"x_max":899,"o":"m 122 272 l 200 764 l 292 764 l 214 272 q 239 122 199 176 q 365 68 279 68 q 510 122 453 68 q 585 272 568 176 l 661 764 l 742 764 q 785 781 767 764 q 808 825 803 797 l 824 917 l 899 917 l 882 822 q 838 733 874 767 q 743 699 801 699 l 676 272 q 618 120 663 185 q 506 21 574 56 q 351 -14 438 -14 q 163 63 225 -14 q 122 272 101 140 m 468 896 l 342 1090 l 442 1090 l 561 896 l 468 896 z "},"ử":{"ha":833,"x_min":101,"x_max":899,"o":"m 122 272 l 200 764 l 292 764 l 214 272 q 239 122 199 176 q 365 68 279 68 q 510 122 453 68 q 585 272 568 176 l 661 764 l 742 764 q 785 781 767 764 q 808 825 803 797 l 824 917 l 899 917 l 882 822 q 838 733 874 767 q 743 699 801 699 l 676 272 q 618 120 663 185 q 506 21 574 56 q 351 -14 438 -14 q 163 63 225 -14 q 122 272 101 140 m 447 896 l 538 994 q 558 1021 549 1008 q 568 1042 567 1033 q 528 1076 574 1076 l 411 1076 l 422 1142 l 553 1142 q 631 1117 604 1142 q 650 1051 657 1093 q 638 1014 647 1033 q 614 978 628 994 l 542 896 l 447 896 z "},"ữ":{"ha":833,"x_min":101,"x_max":899,"o":"m 122 272 l 200 764 l 292 764 l 214 272 q 239 122 199 176 q 365 68 279 68 q 510 122 453 68 q 585 272 568 176 l 661 764 l 742 764 q 785 781 767 764 q 808 825 803 797 l 824 917 l 899 917 l 882 822 q 838 733 874 767 q 743 699 801 699 l 676 272 q 618 120 663 185 q 506 21 574 56 q 351 -14 438 -14 q 163 63 225 -14 q 122 272 101 140 m 600 903 q 536 920 560 903 q 496 960 513 938 q 463 1001 479 983 q 422 1018 446 1018 q 377 1001 396 1018 q 354 956 358 985 l 347 910 l 278 910 l 285 956 q 334 1049 294 1015 q 431 1083 374 1083 q 494 1066 471 1083 q 534 1026 518 1049 q 567 985 550 1003 q 607 968 583 968 q 649 985 632 968 q 671 1031 667 1001 l 679 1076 l 749 1076 l 740 1031 q 693 937 731 971 q 600 903 656 903 z "},"ű":{"ha":833,"x_min":101,"x_max":824,"o":"m 351 -14 q 163 63 225 -14 q 122 272 101 140 l 200 764 l 292 764 l 214 272 q 239 122 199 176 q 365 68 279 68 q 510 122 453 68 q 585 272 568 176 l 661 764 l 753 764 l 676 272 q 618 120 663 185 q 506 21 574 56 q 351 -14 438 -14 m 539 896 l 719 1090 l 824 1090 l 635 896 l 539 896 m 306 896 l 486 1090 l 590 1090 l 403 896 l 306 896 z "},"ū":{"ha":833,"x_min":101,"x_max":753,"o":"m 351 -14 q 163 63 225 -14 q 122 272 101 140 l 200 764 l 292 764 l 214 272 q 239 122 199 176 q 365 68 279 68 q 510 122 453 68 q 585 272 568 176 l 661 764 l 753 764 l 676 272 q 618 120 663 185 q 506 21 574 56 q 351 -14 438 -14 m 299 942 l 311 1019 l 722 1019 l 710 942 l 299 942 z "},"ų":{"ha":833,"x_min":101,"x_max":753,"o":"m 413 -275 q 315 -242 349 -275 q 290 -157 281 -210 q 319 -90 294 -125 q 397 -11 344 -54 q 383 -12 390 -11 q 368 -13 375 -12 q 353 -14 361 -14 q 163 63 225 -14 q 122 269 101 139 l 200 764 l 292 764 l 214 269 q 237 119 197 172 q 365 67 276 67 q 512 119 456 67 q 583 269 568 172 l 661 764 l 753 764 l 675 269 q 625 128 663 189 q 528 32 588 68 l 488 0 q 411 -73 439 -37 q 379 -137 383 -108 q 390 -188 374 -169 q 442 -207 407 -207 l 528 -207 l 517 -275 l 413 -275 z "},"ů":{"ha":833,"x_min":101,"x_max":753,"o":"m 351 -14 q 163 63 225 -14 q 122 272 101 140 l 200 764 l 292 764 l 214 272 q 239 122 199 176 q 365 68 279 68 q 510 122 453 68 q 585 272 568 176 l 661 764 l 753 764 l 676 272 q 618 120 663 185 q 506 21 574 56 q 351 -14 438 -14 m 490 850 q 385 891 421 850 q 358 997 349 932 q 419 1103 369 1063 q 538 1143 468 1143 q 642 1103 607 1143 q 667 997 678 1063 q 608 890 657 931 q 490 850 560 850 m 500 908 q 567 933 539 908 q 600 997 594 957 q 587 1062 607 1038 q 528 1086 567 1086 q 460 1061 489 1086 q 425 997 432 1036 q 440 933 419 957 q 500 908 461 908 z "},"ũ":{"ha":833,"x_min":101,"x_max":753,"o":"m 351 -14 q 163 63 225 -14 q 122 272 101 140 l 200 764 l 292 764 l 214 272 q 239 122 199 176 q 365 68 279 68 q 510 122 453 68 q 585 272 568 176 l 661 764 l 753 764 l 676 272 q 618 120 663 185 q 506 21 574 56 q 351 -14 438 -14 m 600 903 q 536 920 560 903 q 496 960 513 938 q 463 1001 479 983 q 422 1018 446 1018 q 377 1001 396 1018 q 354 956 358 985 l 347 910 l 278 910 l 285 956 q 334 1049 294 1015 q 431 1083 374 1083 q 494 1066 471 1083 q 534 1026 518 1049 q 567 985 550 1003 q 607 968 583 968 q 649 985 632 968 q 671 1031 667 1001 l 679 1076 l 749 1076 l 740 1031 q 693 937 731 971 q 600 903 656 903 z "},"v":{"ha":833,"x_min":157,"x_max":796,"o":"m 296 0 l 157 764 l 247 764 l 342 217 q 355 135 349 176 q 364 69 361 93 q 394 135 375 93 q 433 217 413 176 l 699 764 l 796 764 l 415 0 l 296 0 z "},"w":{"ha":833,"x_min":121,"x_max":832,"o":"m 126 0 l 121 764 l 201 764 l 200 207 q 199 135 200 176 q 197 68 199 94 q 217 135 204 94 q 240 206 231 175 l 429 764 l 521 764 l 533 206 q 534 135 533 175 q 533 68 535 94 q 551 135 540 94 q 572 207 563 176 l 750 764 l 832 764 l 582 0 l 472 0 l 467 538 q 465 619 465 575 q 465 689 465 663 q 442 619 457 663 q 415 538 428 575 l 236 0 l 126 0 z "},"ẃ":{"ha":833,"x_min":121,"x_max":832,"o":"m 126 0 l 121 764 l 201 764 l 200 207 q 199 135 200 176 q 197 68 199 94 q 217 135 204 94 q 240 206 231 175 l 429 764 l 521 764 l 533 206 q 534 135 533 175 q 533 68 535 94 q 551 135 540 94 q 572 207 563 176 l 750 764 l 832 764 l 582 0 l 472 0 l 467 538 q 465 619 465 575 q 465 689 465 663 q 442 619 457 663 q 415 538 428 575 l 236 0 l 126 0 m 440 896 l 618 1090 l 726 1090 l 542 896 l 440 896 z "},"ŵ":{"ha":833,"x_min":121,"x_max":832,"o":"m 126 0 l 121 764 l 201 764 l 200 207 q 199 135 200 176 q 197 68 199 94 q 217 135 204 94 q 240 206 231 175 l 429 764 l 521 764 l 533 206 q 534 135 533 175 q 533 68 535 94 q 551 135 540 94 q 572 207 563 176 l 750 764 l 832 764 l 582 0 l 472 0 l 467 538 q 465 619 465 575 q 465 689 465 663 q 442 619 457 663 q 415 538 428 575 l 236 0 l 126 0 m 272 896 l 479 1090 l 575 1090 l 722 896 l 629 896 l 521 1031 l 374 896 l 272 896 z "},"ẅ":{"ha":833,"x_min":121,"x_max":832,"o":"m 126 0 l 121 764 l 201 764 l 200 207 q 199 135 200 176 q 197 68 199 94 q 217 135 204 94 q 240 206 231 175 l 429 764 l 521 764 l 533 206 q 534 135 533 175 q 533 68 535 94 q 551 135 540 94 q 572 207 563 176 l 750 764 l 832 764 l 582 0 l 472 0 l 467 538 q 465 619 465 575 q 465 689 465 663 q 442 619 457 663 q 415 538 428 575 l 236 0 l 126 0 m 651 907 q 597 928 615 907 q 583 988 578 950 q 615 1047 590 1025 q 676 1069 640 1069 q 730 1047 711 1069 q 742 988 749 1025 q 711 928 736 950 q 651 907 686 907 m 349 907 q 295 928 314 907 q 282 988 276 950 q 314 1047 289 1025 q 374 1069 339 1069 q 428 1047 408 1069 q 440 988 447 1025 q 410 928 435 950 q 349 907 385 907 z "},"ẁ":{"ha":833,"x_min":121,"x_max":832,"o":"m 126 0 l 121 764 l 201 764 l 200 207 q 199 135 200 176 q 197 68 199 94 q 217 135 204 94 q 240 206 231 175 l 429 764 l 521 764 l 533 206 q 534 135 533 175 q 533 68 535 94 q 551 135 540 94 q 572 207 563 176 l 750 764 l 832 764 l 582 0 l 472 0 l 467 538 q 465 619 465 575 q 465 689 465 663 q 442 619 457 663 q 415 538 428 575 l 236 0 l 126 0 m 468 896 l 342 1090 l 442 1090 l 561 896 l 468 896 z "},"x":{"ha":833,"x_min":32,"x_max":785,"o":"m 32 0 l 364 394 l 169 764 l 274 764 l 403 503 q 416 474 410 490 q 428 449 422 458 q 446 474 435 458 q 465 503 457 490 l 675 764 l 785 764 l 474 389 l 679 0 l 575 0 l 438 275 q 423 306 432 289 q 410 333 414 324 q 389 306 401 324 q 365 275 376 289 l 142 0 l 32 0 z "},"y":{"ha":833,"x_min":106,"x_max":746,"o":"m 128 -250 l 142 -167 l 360 -167 q 476 -131 433 -167 q 529 -24 518 -94 l 544 72 l 567 207 l 536 207 l 581 261 q 499 111 565 167 q 332 56 432 56 q 163 128 219 56 q 125 322 106 200 l 194 764 l 286 764 l 218 333 q 244 186 203 239 q 368 133 285 133 q 513 188 454 133 q 588 339 572 243 l 654 764 l 746 764 l 621 -24 q 533 -192 604 -133 q 346 -250 461 -250 l 128 -250 z "},"ý":{"ha":833,"x_min":106,"x_max":746,"o":"m 128 -250 l 142 -167 l 360 -167 q 476 -131 433 -167 q 529 -24 518 -94 l 544 72 l 567 207 l 536 207 l 581 261 q 499 111 565 167 q 332 56 432 56 q 163 128 219 56 q 125 322 106 200 l 194 764 l 286 764 l 218 333 q 244 186 203 239 q 368 133 285 133 q 513 188 454 133 q 588 339 572 243 l 654 764 l 746 764 l 621 -24 q 533 -192 604 -133 q 346 -250 461 -250 l 128 -250 m 440 896 l 618 1090 l 726 1090 l 542 896 l 440 896 z "},"ŷ":{"ha":833,"x_min":106,"x_max":746,"o":"m 128 -250 l 142 -167 l 360 -167 q 476 -131 433 -167 q 529 -24 518 -94 l 544 72 l 567 207 l 536 207 l 581 261 q 499 111 565 167 q 332 56 432 56 q 163 128 219 56 q 125 322 106 200 l 194 764 l 286 764 l 218 333 q 244 186 203 239 q 368 133 285 133 q 513 188 454 133 q 588 339 572 243 l 654 764 l 746 764 l 621 -24 q 533 -192 604 -133 q 346 -250 461 -250 l 128 -250 m 272 896 l 479 1090 l 575 1090 l 722 896 l 629 896 l 521 1031 l 374 896 l 272 896 z "},"ÿ":{"ha":833,"x_min":106,"x_max":749,"o":"m 128 -250 l 142 -167 l 360 -167 q 476 -131 433 -167 q 529 -24 518 -94 l 544 72 l 567 207 l 536 207 l 581 261 q 499 111 565 167 q 332 56 432 56 q 163 128 219 56 q 125 322 106 200 l 194 764 l 286 764 l 218 333 q 244 186 203 239 q 368 133 285 133 q 513 188 454 133 q 588 339 572 243 l 654 764 l 746 764 l 621 -24 q 533 -192 604 -133 q 346 -250 461 -250 l 128 -250 m 651 907 q 597 928 615 907 q 583 988 578 950 q 615 1047 590 1025 q 676 1069 640 1069 q 730 1047 711 1069 q 742 988 749 1025 q 711 928 736 950 q 651 907 686 907 m 349 907 q 295 928 314 907 q 282 988 276 950 q 314 1047 289 1025 q 374 1069 339 1069 q 428 1047 408 1069 q 440 988 447 1025 q 410 928 435 950 q 349 907 385 907 z "},"ỵ":{"ha":833,"x_min":106,"x_max":746,"o":"m 128 -250 l 142 -167 l 360 -167 q 476 -131 433 -167 q 529 -24 518 -94 l 544 72 l 567 207 l 536 207 l 581 261 q 499 111 565 167 q 332 56 432 56 q 163 128 219 56 q 125 322 106 200 l 194 764 l 286 764 l 218 333 q 244 186 203 239 q 368 133 285 133 q 513 188 454 133 q 588 339 572 243 l 654 764 l 746 764 l 621 -24 q 533 -192 604 -133 q 346 -250 461 -250 l 128 -250 m 638 -344 q 577 -323 597 -344 q 563 -264 557 -301 q 596 -204 568 -226 q 664 -182 624 -182 q 724 -204 704 -182 q 738 -264 744 -226 q 705 -323 732 -301 q 638 -344 678 -344 z "},"ỳ":{"ha":833,"x_min":106,"x_max":746,"o":"m 128 -250 l 142 -167 l 360 -167 q 476 -131 433 -167 q 529 -24 518 -94 l 544 72 l 567 207 l 536 207 l 581 261 q 499 111 565 167 q 332 56 432 56 q 163 128 219 56 q 125 322 106 200 l 194 764 l 286 764 l 218 333 q 244 186 203 239 q 368 133 285 133 q 513 188 454 133 q 588 339 572 243 l 654 764 l 746 764 l 621 -24 q 533 -192 604 -133 q 346 -250 461 -250 l 128 -250 m 468 896 l 342 1090 l 442 1090 l 561 896 l 468 896 z "},"ỷ":{"ha":833,"x_min":106,"x_max":746,"o":"m 128 -250 l 142 -167 l 360 -167 q 476 -131 433 -167 q 529 -24 518 -94 l 544 72 l 567 207 l 536 207 l 581 261 q 499 111 565 167 q 332 56 432 56 q 163 128 219 56 q 125 322 106 200 l 194 764 l 286 764 l 218 333 q 244 186 203 239 q 368 133 285 133 q 513 188 454 133 q 588 339 572 243 l 654 764 l 746 764 l 621 -24 q 533 -192 604 -133 q 346 -250 461 -250 l 128 -250 m 447 896 l 538 994 q 558 1021 549 1008 q 568 1042 567 1033 q 528 1076 574 1076 l 411 1076 l 422 1142 l 553 1142 q 631 1117 604 1142 q 650 1051 657 1093 q 638 1014 647 1033 q 614 978 628 994 l 542 896 l 447 896 z "},"ȳ":{"ha":833,"x_min":106,"x_max":746,"o":"m 128 -250 l 142 -167 l 360 -167 q 476 -131 433 -167 q 529 -24 518 -94 l 544 72 l 567 207 l 536 207 l 581 261 q 499 111 565 167 q 332 56 432 56 q 163 128 219 56 q 125 322 106 200 l 194 764 l 286 764 l 218 333 q 244 186 203 239 q 368 133 285 133 q 513 188 454 133 q 588 339 572 243 l 654 764 l 746 764 l 621 -24 q 533 -192 604 -133 q 346 -250 461 -250 l 128 -250 m 299 942 l 311 1019 l 722 1019 l 710 942 l 299 942 z "},"ỹ":{"ha":833,"x_min":106,"x_max":749,"o":"m 128 -250 l 142 -167 l 360 -167 q 476 -131 433 -167 q 529 -24 518 -94 l 544 72 l 567 207 l 536 207 l 581 261 q 499 111 565 167 q 332 56 432 56 q 163 128 219 56 q 125 322 106 200 l 194 764 l 286 764 l 218 333 q 244 186 203 239 q 368 133 285 133 q 513 188 454 133 q 588 339 572 243 l 654 764 l 746 764 l 621 -24 q 533 -192 604 -133 q 346 -250 461 -250 l 128 -250 m 600 903 q 536 920 560 903 q 496 960 513 938 q 463 1001 479 983 q 422 1018 446 1018 q 377 1001 396 1018 q 354 956 358 985 l 347 910 l 278 910 l 285 956 q 334 1049 294 1015 q 431 1083 374 1083 q 494 1066 471 1083 q 534 1026 518 1049 q 567 985 550 1003 q 607 968 583 968 q 649 985 632 968 q 671 1031 667 1001 l 679 1076 l 749 1076 l 740 1031 q 693 937 731 971 q 600 903 656 903 z "},"z":{"ha":833,"x_min":75,"x_max":740,"o":"m 75 0 l 89 89 l 619 681 l 194 681 l 207 764 l 740 764 l 726 675 l 192 83 l 650 83 l 636 0 l 75 0 z "},"ź":{"ha":833,"x_min":75,"x_max":740,"o":"m 75 0 l 89 89 l 619 681 l 194 681 l 207 764 l 740 764 l 726 675 l 192 83 l 650 83 l 636 0 l 75 0 m 440 896 l 618 1090 l 726 1090 l 542 896 l 440 896 z "},"ž":{"ha":833,"x_min":75,"x_max":754,"o":"m 75 0 l 89 89 l 619 681 l 194 681 l 207 764 l 740 764 l 726 675 l 192 83 l 650 83 l 636 0 l 75 0 m 451 896 l 304 1090 l 399 1090 l 507 956 l 656 1090 l 754 1090 l 547 896 l 451 896 z "},"ż":{"ha":833,"x_min":75,"x_max":740,"o":"m 75 0 l 89 89 l 619 681 l 194 681 l 207 764 l 740 764 l 726 675 l 192 83 l 650 83 l 636 0 l 75 0 m 506 907 q 444 928 467 907 q 424 988 422 950 q 452 1047 426 1025 q 517 1069 478 1069 q 580 1047 557 1069 q 600 988 603 1025 q 572 928 597 950 q 506 907 546 907 z "},"ª":{"ha":833,"x_min":294,"x_max":671,"o":"m 565 632 l 578 708 l 574 708 l 604 903 q 587 959 611 938 q 518 981 563 981 q 449 963 479 981 q 410 917 419 946 l 353 917 q 416 998 369 968 q 525 1028 463 1028 q 633 994 596 1028 q 661 903 671 960 l 618 632 l 565 632 m 418 625 q 326 657 357 625 q 304 743 294 689 q 355 829 313 797 q 460 861 397 861 l 613 861 l 606 814 l 453 814 q 391 795 415 814 q 361 743 367 776 q 378 690 356 710 q 443 669 400 669 q 538 697 500 669 q 583 771 575 725 l 599 771 l 589 708 l 574 708 q 512 648 554 671 q 418 625 469 625 z "},"º":{"ha":833,"x_min":311,"x_max":661,"o":"m 453 618 q 347 656 383 618 q 321 756 311 694 l 342 888 q 399 988 351 950 q 518 1025 447 1025 q 624 988 588 1025 q 651 888 661 950 l 631 756 q 572 656 621 693 q 453 618 522 618 m 461 665 q 537 690 506 665 q 574 756 568 715 l 594 888 q 578 953 601 928 q 510 978 554 978 q 435 953 465 978 q 397 888 404 928 l 376 756 q 394 690 371 715 q 461 665 417 665 z "},"А":{"ha":833,"x_min":24,"x_max":688,"o":"m 24 0 l 457 1014 l 576 1014 l 688 0 l 597 0 l 568 283 l 238 283 l 119 0 l 24 0 m 269 363 l 561 363 l 522 733 q 511 868 514 814 q 507 939 508 922 q 481 868 501 922 q 426 733 461 814 l 269 363 z "},"Б":{"ha":833,"x_min":83,"x_max":783,"o":"m 83 0 l 244 1014 l 783 1014 l 769 931 l 322 931 l 265 575 l 454 575 q 609 540 547 575 q 697 441 671 506 q 708 289 722 376 q 649 136 696 201 q 528 35 601 71 q 364 0 456 0 l 83 0 m 188 83 l 376 83 q 537 138 474 83 q 615 288 600 193 q 585 438 631 385 q 442 492 539 492 l 253 492 l 188 83 z "},"В":{"ha":833,"x_min":82,"x_max":778,"o":"m 82 0 l 243 1014 l 515 1014 q 712 944 646 1014 q 758 753 778 874 q 711 629 747 682 q 619 547 675 576 q 493 518 564 518 l 496 535 q 624 505 572 536 q 699 416 676 474 q 708 279 721 358 q 648 131 694 194 q 529 34 601 68 q 365 0 457 0 l 82 0 m 186 83 l 372 83 q 536 136 471 83 q 617 281 601 189 q 583 428 632 372 q 436 483 535 483 l 250 483 l 186 83 m 263 564 l 443 564 q 593 613 533 564 q 667 747 653 663 q 636 882 681 833 q 501 931 592 931 l 319 931 l 263 564 z "},"Г":{"ha":833,"x_min":100,"x_max":835,"o":"m 100 0 l 261 1014 l 835 1014 l 821 931 l 339 931 l 192 0 l 100 0 z "},"Ѓ":{"ha":833,"x_min":100,"x_max":835,"o":"m 100 0 l 261 1014 l 835 1014 l 821 931 l 339 931 l 192 0 l 100 0 m 475 1125 l 653 1319 l 761 1319 l 576 1125 l 475 1125 z "},"Ґ":{"ha":833,"x_min":100,"x_max":856,"o":"m 100 0 l 261 1014 l 746 1014 l 767 1146 l 856 1146 l 821 931 l 339 931 l 192 0 l 100 0 z "},"Д":{"ha":833,"x_min":-37,"x_max":779,"o":"m -37 -194 l 6 81 l 58 81 q 108 154 81 107 q 160 263 136 201 q 196 396 185 325 l 307 1014 l 779 1014 l 631 81 l 729 81 l 686 -194 l 604 -194 l 635 0 l 75 0 l 44 -194 l -37 -194 m 156 81 l 539 81 l 674 932 l 382 932 l 288 396 q 251 260 274 322 q 202 151 228 197 q 156 81 176 104 z "},"Е":{"ha":833,"x_min":94,"x_max":814,"o":"m 94 0 l 256 1014 l 814 1014 l 800 931 l 333 931 l 276 571 l 694 571 l 682 488 l 263 488 l 199 83 l 665 83 l 653 0 l 94 0 z "},"Ё":{"ha":833,"x_min":94,"x_max":815,"o":"m 94 0 l 256 1014 l 814 1014 l 800 931 l 333 931 l 276 571 l 694 571 l 682 488 l 263 488 l 199 83 l 665 83 l 653 0 l 94 0 m 717 1142 q 663 1163 681 1142 q 650 1222 644 1185 q 682 1282 657 1260 q 743 1304 707 1304 q 796 1282 778 1304 q 807 1222 814 1260 q 777 1163 801 1185 q 717 1142 753 1142 m 415 1142 q 361 1163 379 1142 q 349 1222 343 1185 q 381 1282 356 1260 q 440 1304 406 1304 q 494 1282 476 1304 q 506 1222 513 1260 q 475 1163 500 1185 q 415 1142 450 1142 z "},"Ж":{"ha":833,"x_min":-31,"x_max":888,"o":"m -31 0 l 239 529 l 144 1014 l 236 1014 l 318 556 l 403 556 l 476 1014 l 556 1014 l 482 556 l 564 556 l 792 1014 l 888 1014 l 638 519 l 740 0 l 647 0 l 558 485 l 471 485 l 394 0 l 315 0 l 392 485 l 310 485 l 67 0 l -31 0 z "},"З":{"ha":833,"x_min":64,"x_max":785,"o":"m 347 -14 q 137 61 210 -14 q 79 261 64 136 l 171 261 q 212 119 161 171 q 361 68 263 68 q 531 123 464 68 q 613 271 599 178 q 579 422 629 368 q 425 476 529 476 l 304 476 l 318 560 l 438 560 q 549 584 500 560 q 629 653 597 608 q 669 756 661 697 q 638 897 683 846 q 499 947 592 947 q 335 894 401 947 q 256 751 269 840 l 164 751 q 224 898 178 836 q 344 994 271 960 q 511 1028 418 1028 q 715 958 646 1028 q 765 764 785 888 q 717 638 754 693 q 622 552 679 583 q 496 521 565 521 l 497 538 q 625 507 574 539 q 699 417 676 475 q 710 281 722 358 q 646 127 696 193 q 519 24 596 61 q 347 -14 443 -14 z "},"И":{"ha":833,"x_min":79,"x_max":793,"o":"m 79 0 l 240 1014 l 329 1014 l 219 319 q 205 238 213 279 q 190 161 197 196 q 178 104 183 126 l 668 1014 l 793 1014 l 632 0 l 543 0 l 653 694 q 665 760 657 722 q 681 839 674 799 q 696 910 689 879 l 204 0 l 79 0 z "},"Й":{"ha":833,"x_min":79,"x_max":793,"o":"m 79 0 l 240 1014 l 329 1014 l 219 319 q 205 238 213 279 q 190 161 197 196 q 178 104 183 126 l 668 1014 l 793 1014 l 632 0 l 543 0 l 653 694 q 665 760 657 722 q 681 839 674 799 q 696 910 689 879 l 204 0 l 79 0 m 533 1121 q 389 1175 438 1121 q 354 1319 340 1229 l 431 1319 q 451 1222 421 1258 q 542 1186 481 1186 q 645 1222 603 1186 q 696 1319 688 1258 l 774 1319 q 694 1175 760 1229 q 533 1121 629 1121 z "},"К":{"ha":833,"x_min":82,"x_max":847,"o":"m 82 0 l 243 1015 l 335 1015 l 264 565 l 449 565 l 743 1015 l 847 1015 l 526 524 l 700 0 l 597 0 l 439 485 l 250 485 l 174 0 l 82 0 z "},"Ќ":{"ha":833,"x_min":82,"x_max":847,"o":"m 468 1125 l 646 1319 l 754 1319 l 569 1125 l 468 1125 m 82 0 l 243 1015 l 335 1015 l 264 565 l 449 565 l 743 1015 l 847 1015 l 526 524 l 700 0 l 597 0 l 439 485 l 250 485 l 174 0 l 82 0 z "},"Л":{"ha":833,"x_min":-31,"x_max":789,"o":"m -31 -7 l -17 82 l 19 82 q 113 131 75 82 q 167 278 150 179 l 292 1014 l 789 1014 l 628 0 l 536 0 l 683 931 l 368 931 l 258 278 q 208 122 243 185 q 124 26 174 58 q 7 -7 74 -7 l -31 -7 z "},"М":{"ha":833,"x_min":58,"x_max":814,"o":"m 58 0 l 219 1014 l 344 1014 l 413 650 q 426 574 419 614 q 436 511 433 535 q 466 574 447 535 q 501 650 485 614 l 685 1014 l 814 1014 l 653 0 l 564 0 l 646 514 q 666 635 654 572 q 691 760 678 699 q 717 875 704 821 q 739 968 729 929 l 476 449 l 379 449 l 279 968 q 272 876 278 929 q 260 762 267 824 q 247 636 254 700 q 229 514 239 572 l 147 0 l 58 0 z "},"Н":{"ha":833,"x_min":82,"x_max":790,"o":"m 82 0 l 243 1014 l 335 1014 l 264 567 l 628 567 l 699 1014 l 790 1014 l 629 0 l 538 0 l 614 483 l 250 483 l 174 0 l 82 0 z "},"О":{"ha":833,"x_min":106,"x_max":768,"o":"m 353 -14 q 210 20 268 -14 q 129 118 153 54 q 118 269 106 182 l 193 744 q 252 895 208 832 q 365 993 296 958 q 518 1028 433 1028 q 662 993 604 1028 q 744 895 719 958 q 754 744 768 832 l 679 269 q 621 118 665 182 q 508 20 576 54 q 353 -14 439 -14 m 365 68 q 513 121 456 68 q 588 269 571 174 l 663 744 q 636 893 678 840 q 506 946 594 946 q 358 893 417 946 q 285 744 300 840 l 210 269 q 235 121 194 174 q 365 68 276 68 z "},"П":{"ha":833,"x_min":83,"x_max":789,"o":"m 83 0 l 244 1014 l 789 1014 l 628 0 l 536 0 l 683 931 l 322 931 l 175 0 l 83 0 z "},"Р":{"ha":833,"x_min":82,"x_max":819,"o":"m 82 0 l 243 1014 l 553 1014 q 705 978 643 1014 q 793 878 767 943 q 806 725 819 814 q 744 574 792 639 q 624 472 697 508 q 461 436 551 436 l 243 436 l 174 0 l 82 0 m 256 519 l 474 519 q 633 576 568 519 q 711 725 697 632 q 681 876 728 821 q 539 931 633 931 l 321 931 l 256 519 z "},"С":{"ha":833,"x_min":106,"x_max":782,"o":"m 360 -14 q 213 21 272 -14 q 130 119 154 56 q 118 269 106 183 l 193 744 q 253 896 208 832 q 367 994 297 960 q 525 1028 438 1028 q 673 992 614 1028 q 757 890 732 956 q 768 736 782 825 l 676 736 q 648 890 692 835 q 513 946 604 946 q 360 892 421 946 q 285 744 300 839 l 210 269 q 239 122 194 175 q 374 68 283 68 q 528 124 467 68 q 604 278 589 181 l 696 278 q 635 124 682 189 q 519 22 589 58 q 360 -14 449 -14 z "},"Т":{"ha":833,"x_min":167,"x_max":853,"o":"m 311 0 l 458 931 l 167 931 l 181 1014 l 853 1014 l 839 931 l 550 931 l 403 0 l 311 0 z "},"У":{"ha":833,"x_min":185,"x_max":849,"o":"m 218 0 l 361 265 l 185 1014 l 283 1014 l 393 518 q 412 424 404 472 q 424 351 419 376 q 453 424 433 376 q 497 518 474 472 l 747 1014 l 849 1014 l 319 0 l 218 0 z "},"Ў":{"ha":833,"x_min":185,"x_max":849,"o":"m 218 0 l 361 265 l 185 1014 l 283 1014 l 393 518 q 412 424 404 472 q 424 351 419 376 q 453 424 433 376 q 497 518 474 472 l 747 1014 l 849 1014 l 319 0 l 218 0 m 533 1121 q 389 1175 438 1121 q 354 1319 340 1229 l 431 1319 q 451 1222 421 1258 q 542 1186 481 1186 q 645 1222 603 1186 q 696 1319 688 1258 l 774 1319 q 694 1175 760 1229 q 533 1121 629 1121 z "},"Ф":{"ha":833,"x_min":65,"x_max":810,"o":"m 306 -35 l 321 63 q 174 97 233 63 q 90 196 115 132 q 79 346 65 260 l 132 688 q 192 838 147 774 q 307 937 238 901 q 465 972 376 972 l 481 1069 l 569 1069 l 554 972 q 701 937 643 972 q 785 838 760 901 q 796 688 810 774 l 742 346 q 683 196 728 260 q 568 97 638 132 q 410 63 499 63 l 394 -35 l 306 -35 m 333 142 l 453 893 q 344 867 393 893 q 263 794 296 840 q 221 688 231 749 l 167 346 q 199 199 153 256 q 333 142 244 142 m 422 142 q 531 168 482 142 q 612 240 579 194 q 654 346 644 286 l 707 688 q 677 836 722 779 q 542 893 632 893 l 422 142 z "},"Х":{"ha":833,"x_min":6,"x_max":849,"o":"m 6 0 l 386 524 l 185 1014 l 286 1014 l 401 708 q 424 651 410 685 q 449 594 439 618 q 488 651 465 618 q 528 708 511 685 l 744 1014 l 849 1014 l 492 525 l 706 0 l 606 0 l 476 339 q 453 395 468 361 q 431 453 439 429 q 389 396 413 429 q 350 339 365 363 l 111 0 l 6 0 z "},"Ч":{"ha":833,"x_min":143,"x_max":789,"o":"m 536 0 l 603 414 q 526 405 579 410 q 407 400 474 400 q 206 474 269 400 q 163 676 143 549 l 217 1014 l 308 1014 l 254 676 q 288 535 242 588 q 438 482 335 482 q 547 487 500 482 q 614 496 594 492 l 697 1014 l 789 1014 l 628 0 l 536 0 z "},"Ц":{"ha":833,"x_min":83,"x_max":767,"o":"m 594 -194 l 625 0 l 83 0 l 244 1014 l 336 1014 l 188 82 l 526 82 l 675 1014 l 767 1014 l 618 82 l 724 82 l 681 -194 l 594 -194 z "},"Ш":{"ha":833,"x_min":39,"x_max":835,"o":"m 39 0 l 199 1014 l 286 1014 l 136 74 l 328 74 l 478 1014 l 557 1014 l 408 74 l 599 74 l 749 1014 l 835 1014 l 674 0 l 39 0 z "},"Щ":{"ha":833,"x_min":38,"x_max":825,"o":"m 613 -194 l 643 0 l 38 0 l 199 1014 l 283 1014 l 135 78 l 324 78 l 472 1014 l 551 1014 l 403 78 l 592 78 l 740 1014 l 825 1014 l 676 78 l 742 78 l 699 -194 l 613 -194 z "},"Џ":{"ha":833,"x_min":83,"x_max":789,"o":"m 281 -174 l 308 0 l 83 0 l 244 1014 l 340 1014 l 193 88 l 546 88 l 693 1014 l 789 1014 l 628 0 l 404 0 l 376 -174 l 281 -174 z "},"Ь":{"ha":833,"x_min":83,"x_max":743,"o":"m 83 0 l 244 1014 l 336 1014 l 268 589 l 474 589 q 627 552 565 589 q 716 449 689 515 q 728 294 743 383 q 666 140 714 206 q 545 37 618 74 q 381 0 472 0 l 83 0 m 188 83 l 390 83 q 552 141 486 83 q 635 294 618 199 q 601 448 650 390 q 457 506 553 506 l 254 506 l 188 83 z "},"Ъ":{"ha":833,"x_min":92,"x_max":743,"o":"m 131 0 l 278 926 l 92 926 l 106 1014 l 383 1014 l 315 589 l 474 589 q 627 552 565 589 q 716 449 689 515 q 728 294 743 383 q 666 140 714 206 q 545 37 618 74 q 381 0 472 0 l 131 0 m 235 83 l 390 83 q 552 141 486 83 q 635 294 618 199 q 601 448 650 390 q 457 506 553 506 l 301 506 l 235 83 z "},"Ы":{"ha":833,"x_min":42,"x_max":831,"o":"m 42 0 l 203 1014 l 292 1014 l 224 589 l 292 589 q 478 517 417 589 q 521 325 540 446 l 511 264 q 408 72 493 143 q 199 0 324 0 l 42 0 m 143 82 l 211 82 q 353 131 297 82 q 422 264 410 179 l 432 325 q 406 459 446 411 q 279 507 365 507 l 210 507 l 143 82 m 581 0 l 742 1014 l 831 1014 l 669 0 l 581 0 z "},"Љ":{"ha":833,"x_min":-69,"x_max":807,"o":"m -69 -7 l -56 79 l -25 79 q 47 122 17 79 q 92 239 78 165 l 225 1014 l 589 1014 l 522 589 l 611 589 q 758 531 710 589 q 792 378 807 474 l 765 211 q 683 58 750 115 q 518 0 615 0 l 342 0 l 490 935 l 297 935 l 176 239 q 133 109 164 165 q 57 23 101 53 q -40 -7 13 -7 l -69 -7 m 440 79 l 531 79 q 630 115 590 79 q 679 211 669 150 l 706 378 q 686 474 715 439 q 599 510 657 510 l 508 510 l 440 79 z "},"Њ":{"ha":833,"x_min":19,"x_max":807,"o":"m 19 0 l 181 1014 l 267 1014 l 200 589 l 436 589 l 503 1014 l 589 1014 l 522 589 l 607 589 q 758 532 708 589 q 792 378 807 475 l 765 211 q 682 57 750 114 q 514 0 614 0 l 342 0 l 422 510 l 186 510 l 106 0 l 19 0 m 440 79 l 526 79 q 629 115 589 79 q 679 211 669 150 l 706 378 q 685 475 715 440 q 594 510 656 510 l 508 510 l 440 79 z "},"Ѕ":{"ha":833,"x_min":72,"x_max":788,"o":"m 360 -14 q 144 60 215 -14 q 90 260 72 133 l 182 260 q 221 120 169 172 q 374 68 272 68 q 533 117 471 68 q 610 251 596 165 q 590 383 621 329 q 490 457 558 436 l 371 494 q 230 598 275 525 q 200 769 185 671 q 256 906 213 849 q 369 996 300 964 q 526 1028 439 1028 q 722 956 657 1028 q 768 760 788 883 l 676 760 q 646 896 690 846 q 513 946 601 946 q 363 901 422 946 q 292 776 304 857 q 312 651 282 704 q 407 578 342 599 l 526 539 q 672 431 625 508 q 703 256 718 354 q 643 113 690 174 q 523 19 596 53 q 360 -14 450 -14 z "},"Є":{"ha":833,"x_min":106,"x_max":781,"o":"m 360 -14 q 214 21 272 -14 q 131 119 156 56 q 119 269 106 183 l 194 744 q 254 896 210 832 q 368 994 299 960 q 525 1028 438 1028 q 673 992 614 1028 q 756 890 732 956 q 767 736 781 825 l 675 736 q 648 890 692 835 q 513 946 604 946 q 362 892 422 946 q 286 744 301 839 l 256 553 l 576 553 l 564 469 l 243 469 l 211 269 q 240 122 196 175 q 374 68 283 68 q 527 124 467 68 q 603 278 588 181 l 694 278 q 635 124 681 189 q 519 22 589 58 q 360 -14 449 -14 z "},"Э":{"ha":833,"x_min":96,"x_max":772,"o":"m 350 -14 q 203 22 263 -14 q 120 124 144 58 q 110 278 96 189 l 201 278 q 228 124 185 181 q 364 68 271 68 q 515 122 456 68 q 590 269 575 175 l 622 469 l 301 469 l 314 553 l 635 553 l 665 744 q 637 892 681 839 q 503 946 593 946 q 350 890 411 946 q 274 736 289 835 l 182 736 q 241 890 196 825 q 357 992 286 956 q 515 1028 428 1028 q 662 994 603 1028 q 747 896 721 960 q 757 744 772 832 l 682 269 q 623 119 668 183 q 508 21 578 56 q 350 -14 438 -14 z "},"І":{"ha":833,"x_min":97,"x_max":775,"o":"m 97 0 l 110 83 l 324 83 l 457 931 l 244 931 l 258 1015 l 775 1015 l 761 931 l 550 931 l 415 83 l 626 83 l 614 0 l 97 0 z "},"Ї":{"ha":833,"x_min":97,"x_max":785,"o":"m 97 0 l 110 83 l 324 83 l 457 931 l 244 931 l 258 1015 l 775 1015 l 761 931 l 550 931 l 415 83 l 626 83 l 614 0 l 97 0 m 688 1142 q 633 1163 651 1142 q 621 1222 615 1185 q 653 1282 628 1260 q 714 1304 678 1304 q 767 1282 749 1304 q 778 1222 785 1260 q 748 1163 772 1185 q 688 1142 724 1142 m 386 1142 q 332 1163 350 1142 q 319 1222 314 1185 q 351 1282 326 1260 q 411 1304 376 1304 q 465 1282 447 1304 q 476 1222 483 1260 q 446 1163 471 1185 q 386 1142 421 1142 z "},"Ј":{"ha":833,"x_min":44,"x_max":775,"o":"m 315 -14 q 110 65 176 -14 q 67 283 44 144 l 158 283 q 188 125 143 182 q 329 68 233 68 q 488 125 425 68 q 567 282 551 182 l 669 929 l 417 929 l 431 1014 l 775 1014 l 658 282 q 598 124 644 190 q 479 22 551 57 q 315 -14 407 -14 z "},"Ћ":{"ha":833,"x_min":86,"x_max":756,"o":"m 108 0 l 256 932 l 86 932 l 100 1014 l 532 1014 l 518 932 l 347 932 l 283 525 l 339 576 q 579 688 461 688 q 711 627 667 688 q 739 464 756 567 l 665 0 l 574 0 l 644 444 q 631 567 657 524 q 549 610 606 610 q 463 588 508 610 q 369 522 418 565 l 268 431 l 200 0 l 108 0 z "},"Ю":{"ha":833,"x_min":36,"x_max":840,"o":"m 474 -14 q 324 52 372 -14 q 294 233 275 118 l 333 483 l 197 483 l 122 0 l 36 0 l 197 1014 l 283 1014 l 211 561 l 346 561 l 381 781 q 468 963 399 897 q 639 1028 538 1028 q 792 962 743 1028 q 822 781 840 896 l 735 233 q 647 52 717 118 q 474 -14 578 -14 m 488 67 q 594 111 551 67 q 649 233 636 156 l 736 781 q 719 903 749 858 q 626 947 690 947 q 519 903 563 947 q 464 781 476 858 l 378 233 q 394 111 365 156 q 488 67 424 67 z "},"Я":{"ha":833,"x_min":31,"x_max":789,"o":"m 31 0 l 350 489 l 356 449 q 232 495 282 458 q 161 592 182 532 q 153 729 140 651 q 213 879 167 815 q 332 978 260 943 q 493 1014 404 1014 l 789 1014 l 628 0 l 536 0 l 607 447 l 422 447 l 136 0 l 31 0 m 417 529 l 619 529 l 683 932 l 479 932 q 325 877 389 932 q 246 731 261 822 q 278 585 232 640 q 417 529 324 529 z "},"Ђ":{"ha":833,"x_min":86,"x_max":756,"o":"m 265 -250 l 279 -167 l 353 -167 q 503 -117 444 -167 q 576 21 563 -67 l 644 444 q 631 567 657 524 q 549 610 606 610 q 463 588 508 610 q 369 522 418 565 l 268 431 l 200 0 l 108 0 l 256 932 l 86 932 l 100 1014 l 532 1014 l 518 932 l 347 932 l 283 526 l 339 576 q 578 688 460 688 q 711 627 667 688 q 739 464 756 567 l 668 21 q 610 -123 656 -62 q 496 -217 565 -183 q 339 -250 426 -250 l 265 -250 z "},"Ү":{"ha":833,"x_min":161,"x_max":872,"o":"m 310 0 l 371 385 l 161 1014 l 253 1014 l 400 572 q 419 515 411 540 q 429 476 426 489 q 452 514 438 488 q 488 572 467 540 l 775 1014 l 872 1014 l 463 385 l 401 0 l 310 0 z "},"Ө":{"ha":833,"x_min":99,"x_max":774,"o":"m 353 -14 q 162 63 225 -14 q 119 269 99 140 l 194 744 q 253 895 210 832 q 365 993 297 958 q 518 1028 433 1028 q 710 951 647 1028 q 753 744 774 875 l 678 269 q 619 119 664 183 q 507 21 575 56 q 353 -14 439 -14 m 365 67 q 513 119 456 67 q 586 269 571 172 l 619 478 l 243 478 l 210 269 q 235 119 194 172 q 365 67 276 67 m 257 560 l 633 560 l 663 744 q 635 894 676 842 q 506 947 594 947 q 358 894 417 947 q 286 744 300 842 l 257 560 z "},"а":{"ha":833,"x_min":99,"x_max":751,"o":"m 325 -14 q 155 62 211 -14 q 118 265 99 138 l 154 497 q 209 646 168 583 q 313 743 250 708 q 451 778 375 778 q 601 723 549 778 q 638 578 653 668 l 615 643 l 640 643 l 660 764 l 751 764 l 631 0 l 539 0 l 558 121 l 525 121 l 576 186 q 492 40 563 94 q 325 -14 422 -14 m 363 65 q 508 119 450 65 q 581 268 567 174 l 617 494 q 592 644 632 590 q 463 699 551 699 q 318 645 375 699 q 246 494 261 592 l 210 268 q 235 119 196 172 q 363 65 275 65 z "},"б":{"ha":833,"x_min":99,"x_max":761,"o":"m 354 -14 q 160 64 221 -14 q 121 281 99 142 l 179 649 q 310 919 207 825 q 579 1014 414 1014 l 761 1014 l 746 922 l 564 922 q 367 851 443 922 q 271 649 292 781 l 254 544 l 274 544 l 249 504 q 326 639 263 590 q 488 688 389 688 q 665 611 610 688 q 697 396 721 535 l 679 281 q 620 122 664 188 q 509 21 576 56 q 354 -14 442 -14 m 368 68 q 514 124 457 68 q 588 281 571 181 l 606 396 q 583 553 622 497 q 454 610 543 610 q 305 552 363 610 q 231 396 247 494 l 213 281 q 238 124 196 181 q 368 68 279 68 z "},"в":{"ha":833,"x_min":83,"x_max":747,"o":"m 83 0 l 204 764 l 526 764 q 691 710 635 764 q 732 564 747 656 q 659 436 719 485 q 513 388 599 388 l 514 397 q 656 347 607 397 q 692 214 706 297 q 599 58 676 117 q 407 0 522 0 l 83 0 m 186 82 l 419 82 q 542 119 492 82 q 601 215 592 156 q 572 314 611 276 q 463 351 533 351 l 229 351 l 186 82 m 242 432 l 472 432 q 584 466 538 432 q 639 556 631 500 q 614 647 649 613 q 514 682 579 682 l 282 682 l 242 432 z "}}}
